<svg xmlns="http://www.w3.org/2000/svg" width="36.7242" height="40"><path fill-rule="evenodd" d="M13.043 35.4569 12.7642 33.7c-.6334-.2333-1.3-.55-2-.95-.7-.4-1.3167-.8167-1.85-1.25L7.3 32.2387c-2.4248 1.1096-5.2955.181-6.611-2.1387-1.3251-2.3371-.689-5.2965 1.4795-6.8827L3.7642 22.05c-.0667-.3-.1084-.6417-.125-1.025-.0167-.3833-.025-.725-.025-1.025 0-.3.0083-.6417.025-1.025.0166-.3833.0583-.725.125-1.025l-1.5958-1.1673C0 15.1965-.6362 12.2371.6892 9.9 2.0046 7.5804 4.8752 6.6517 7.3 7.7613L8.914 8.5c.5334-.4333 1.15-.85 1.85-1.25.7-.4 1.3667-.7 2-.9l.2845-1.806C13.4606 1.9275 15.7154 0 18.3642 0c2.6495 0 4.9057 1.9264 5.3211 4.5431L23.9642 6.3c.6333.2333 1.3083.5417 2.025.925.7166.3833 1.325.8083 1.825 1.275l1.614-.7387c2.4249-1.1096 5.2956-.181 6.611 2.1387 1.3212 2.3298.668 5.2813-1.5128 6.8362L32.9642 17.85c.0666.3333.1083.6917.125 1.075.0166.3833.025.7417.025 1.075 0 .3333-.0084.6833-.025 1.05-.0167.3667-.0584.7167-.125 1.05l1.579 1.1404c2.1747 1.5706 2.8192 4.526 1.496 6.8596-1.3154 2.3196-4.1861 3.2483-6.611 2.1387l-1.614-.7387c-.5334.4333-1.1417.8583-1.825 1.275-.6834.4167-1.3584.725-2.025.925l-.2789 1.7569C23.2699 38.0736 21.0137 40 18.3642 40s-4.9058-1.9264-5.3212-4.5431ZM18.3642 26.5c1.8 0 3.3333-.6333 4.6-1.9 1.2666-1.2667 1.9-2.8 1.9-4.6 0-1.8-.6334-3.3333-1.9-4.6-1.2667-1.2667-2.8-1.9-4.6-1.9-1.8 0-3.3334.6333-4.6 1.9-1.2667 1.2667-1.9 2.8-1.9 4.6 0 1.8.6333 3.3333 1.9 4.6 1.2666 1.2667 2.8 1.9 4.6 1.9Zm0-3c-.9667 0-1.7917-.3417-2.475-1.025-.6834-.6833-1.025-1.5083-1.025-2.475 0-.9667.3416-1.7917 1.025-2.475.6833-.6833 1.5083-1.025 2.475-1.025.9666 0 1.7916.3417 2.475 1.025.6833.6833 1.025 1.5083 1.025 2.475 0 .9667-.3417 1.7917-1.025 2.475-.6834.6833-1.5084 1.025-2.475 1.025Zm0 13.5c1.2568 0 2.317-.9359 2.4728-2.183l.4272-3.417a11.7918 11.7918 0 0 0 3.125-1.25 12.8153 12.8153 0 0 0 2.675-2.05l3.411 1.4803c1.0718.465 2.3216.041 2.889-.9803.5715-1.0288.2888-2.322-.66-3.0185l-3.04-2.2315c.1333-.5667.2416-1.125.325-1.675.0833-.55.125-1.1083.125-1.675s-.0334-1.125-.1-1.675c-.0667-.55-.1834-1.1083-.35-1.675l3.04-2.2315c.9488-.6964 1.2315-1.9897.66-3.0185-.5674-1.0213-1.8172-1.4454-2.889-.9803L27.0642 11.9c-.7667-.8667-1.6334-1.5917-2.6-2.175-.9667-.5833-2.0334-.9583-3.2-1.125l-.4272-3.417C20.6812 3.936 19.621 3 18.3642 3c-1.2569 0-2.317.9359-2.473 2.183l-.427 3.417c-1.1334.2333-2.1917.6333-3.175 1.2a11.028 11.028 0 0 0-2.625 2.1L6.253 10.4197c-1.0718-.465-2.3215-.041-2.889.9803-.5715 1.0288-.2887 2.322.66 3.0185l3.04 2.2315a21.1433 21.1433 0 0 0-.325 1.675c-.0833.55-.125 1.1083-.125 1.675s.0417 1.125.125 1.675c.0834.55.1917 1.1083.325 1.675l-3.04 2.2315c-.9487.6964-1.2315 1.9897-.66 3.0185.5675 1.0213 1.8172 1.4454 2.889.9803L9.6641 28.1c.8.8 1.6917 1.4833 2.675 2.05.9834.5667 2.025.9833 3.125 1.25l.4272 3.417c.1559 1.247 1.216 2.183 2.4729 2.183Z"/></svg>