<?xml version="1.0" ?>
<svg height="80" viewBox="0 0 80 80" fill="#979797" width="80" xmlns="http://www.w3.org/2000/svg">
	<path d="M29.3 63.5l-4 4c-3.6 3.5-9.3 3.5-12.8 0-1.7-1.7-2.6-4-2.6-6.3s.8-4.6 2.5-6.2l15-14.8c3-3 8.8-7.6 13-3.4 2 2 5 2 7 0s2-5 0-7c-7.2-7.2-17.8-5.8-27 3.4L5.4 48C2 51.4 0 56 0 61S2 71 5.5 74.5C9.2 78.2 14 80 19 80c4.7 0 9.6-1.8 13.2-5.5l4-4c2-2 2-5 0-7-1.8-2-5-2-7 0zM74.5 6C66.7-1.6 56-2 48.8 5l-5 5c-2 2-2 5 0 7 1.8 2 5 2 7 0l5-5c3.7-3.6 8.5-2 11.7 1 1.7 1.8 2.6 4 2.6 6.3 0 2.4-.8 4.6-2.5 6.3l-16 15.8c-7.2 7.2-10.6 3.8-12 2.4-2-2-5-2-7 0s-2 5 0 7c3.3 3.3 7 5 11 5 5 0 10-2.5 15-7.4l16-15.8C78 29 80 24.4 80 19.3c0-5-2-9.7-5.5-13.3z"/>
</svg>