<?xml version="1.0" standalone="no"?>
<!DOCTYPE svg PUBLIC "-//W3C//DTD SVG 1.1//EN" "http://www.w3.org/Graphics/SVG/1.1/DTD/svg11.dtd" >
<svg xmlns="http://www.w3.org/2000/svg">
<metadata></metadata>
<defs>
<font id="adelle_sanssemibold" horiz-adv-x="1167" >
<font-face units-per-em="2048" ascent="1536" descent="-512" />
<missing-glyph horiz-adv-x="405" />
<glyph horiz-adv-x="0" />
<glyph unicode="&#xd;" horiz-adv-x="405" />
<glyph horiz-adv-x="0" />
<glyph horiz-adv-x="0" />
<glyph unicode=" "  horiz-adv-x="405" />
<glyph unicode="&#x09;" horiz-adv-x="405" />
<glyph unicode="&#xa0;" horiz-adv-x="405" />
<glyph unicode="!" horiz-adv-x="565" d="M129 119q0 145 156 145q153 0 153 -145q0 -143 -153 -144q-156 0 -156 144zM154 1483h258l-35 -1092h-187z" />
<glyph unicode="&#x22;" horiz-adv-x="802" d="M113 952v531h221v-531h-221zM469 952v531h221v-531h-221z" />
<glyph unicode="#" horiz-adv-x="1243" d="M66 291l36 170h213l43 268h-223l35 172h213l39 273h174l-41 -273h217l41 273h174l-41 -273h225l-32 -172h-217l-39 -268h221l-33 -170h-215l-43 -291h-174l45 291h-221l-43 -291h-174l43 291h-223zM489 461h220l39 268h-218z" />
<glyph unicode="$" horiz-adv-x="1099" d="M49 408l209 38q20 -117 65.5 -181t157.5 -79v443q-72 18 -140.5 44.5t-121.5 73t-87 116t-34 175.5q0 88 30 158t80 120t117.5 83t143.5 47v176h180v-174q72 -8 132.5 -33.5t106.5 -72t74.5 -114t38.5 -159.5l-215 -29q-14 82 -44.5 136.5t-102.5 74.5v-432 q76 -20 145.5 -48t121.5 -73t84 -113.5t32 -168.5q0 -182 -101.5 -284.5t-271.5 -127.5v-170h-182v170q-74 6 -144.5 29.5t-128 71t-95.5 121t-50 182.5zM330 1071q0 -74 35.5 -122t115.5 -83v387q-82 -18 -116.5 -68.5t-34.5 -113.5zM639 195q70 16 112 62t42 128 q0 86 -44 129t-110 70v-389z" />
<glyph unicode="%" horiz-adv-x="1665" d="M45 1128q0 172 87 277.5t263 105.5q178 0 255 -97t77 -259q0 -174 -87 -280.5t-261 -106.5q-94 0 -157.5 29.5t-102.5 79t-56.5 115t-17.5 136.5zM238 1141q0 -104 31.5 -166t117.5 -62t118 61.5t32 172.5q0 98 -31 157.5t-115 59.5q-86 0 -119.5 -64.5t-33.5 -158.5z M256 -31l899 1514h211l-897 -1514h-213zM920 336q0 172 87 277.5t263 105.5q178 0 255 -97.5t77 -259.5q0 -174 -87.5 -280.5t-261.5 -106.5q-94 0 -157.5 30t-102.5 79t-56 114.5t-17 137.5zM1112 348q0 -104 32 -165.5t118 -61.5t117.5 61.5t31.5 171.5q0 98 -30.5 157.5 t-114.5 59.5q-86 0 -120 -64.5t-34 -158.5z" />
<glyph unicode="&#x26;" horiz-adv-x="1468" d="M98 387q0 150 73 247t214 163q-41 72 -58.5 138t-17.5 138q0 80 30 146.5t83 113.5t127 74t162 27q57 0 116.5 -13.5t106.5 -46.5t76.5 -88t29.5 -139q0 -47 -13 -95t-48 -95.5t-96.5 -93.5t-157.5 -87l-57 -22q66 -102 144.5 -199.5t172.5 -200.5q47 72 64.5 164 t21.5 197h209q0 -125 -33 -251t-112 -231q41 -29 81.5 -46t88.5 -17q39 0 86 18l32 -176q-35 -16 -76.5 -24t-78.5 -8q-86 0 -157 27.5t-138 76.5q-66 -49 -163 -79t-226 -30q-115 0 -204 31t-152.5 86t-96.5 131t-33 164zM338 412q0 -51 17.5 -97.5t52 -82t89 -57 t128.5 -21.5q119 0 202 49q-104 96 -193 208.5t-169 239.5q-55 -35 -91 -90t-36 -149zM539 1106q0 -53 14 -105.5t43 -111.5l9 4t19.5 9t19.5 8l9 3q98 43 141.5 96.5t43.5 125.5q0 55 -34 93t-106 38q-70 0 -114.5 -41t-44.5 -119z" />
<glyph unicode="'" horiz-adv-x="446" d="M113 952v531h221v-531h-221z" />
<glyph unicode="(" horiz-adv-x="686" d="M100 573q0 137 27 263.5t71 240t101 215t121 191.5h242q-70 -106 -127.5 -213t-99.5 -217.5t-64.5 -228t-22.5 -246.5q0 -139 23.5 -260t63.5 -228.5t93.5 -207t112.5 -195.5l-244 2q-55 82 -108 179t-95 207.5t-68 234.5t-26 263z" />
<glyph unicode=")" horiz-adv-x="686" d="M29 1483h241q63 -90 121 -191.5t102 -215t70.5 -239.5t26.5 -264q0 -139 -25.5 -263t-67.5 -234.5t-95.5 -207.5t-108.5 -179l-244 -2q59 96 112.5 195.5t93.5 207t63.5 228t23.5 260.5q0 129 -23.5 246.5t-64.5 228t-98.5 217t-126.5 213.5z" />
<glyph unicode="*" horiz-adv-x="968" d="M98 1225l35 112l248 -55l45 264h111l38 -268l246 61l35 -112l-233 -117l155 -238l-90 -69l-209 196l-207 -202l-90 73l154 238z" />
<glyph unicode="+" d="M193 561v199h288v297h201v-297h291v-199h-291v-305h-201v305h-288z" />
<glyph unicode="," horiz-adv-x="468" d="M25 -250l118 488h254l-184 -508z" />
<glyph unicode="-" horiz-adv-x="645" d="M41 496v211h555v-211h-555z" />
<glyph unicode="." horiz-adv-x="499" d="M90 129q0 156 160 156t160 -156q0 -154 -160 -154t-160 154z" />
<glyph unicode="/" horiz-adv-x="827" d="M16 -188l576 1734h213l-574 -1734h-215z" />
<glyph unicode="0" horiz-adv-x="1169" d="M76 741q0 172 24.5 313.5t85 243t162 156.5t252.5 55q152 0 248 -55t150.5 -154.5t75 -236.5t20.5 -301q0 -180 -23.5 -325.5t-82 -248t-157.5 -158t-251 -55.5t-250.5 55.5t-154.5 156t-77.5 241.5t-21.5 313zM324 737q0 -135 10 -241.5t37.5 -180t79 -112.5t135.5 -39 q82 0 133 39t78.5 112.5t38 183t10.5 251.5q0 135 -8.5 239.5t-35 177t-76.5 109.5t-132 37t-134 -38t-83 -110.5t-42 -180t-11 -247.5z" />
<glyph unicode="1" horiz-adv-x="868" d="M74 1311q141 12 243.5 52t174.5 120h147v-1483h-233v1186q-27 -14 -70 -26.5t-90 -21t-90 -13.5t-68 -5z" />
<glyph unicode="2" horiz-adv-x="1087" d="M82 1116q14 104 55 179t104.5 122t143.5 69.5t170 22.5q199 0 310.5 -94t111.5 -280q0 -82 -20.5 -154t-61.5 -142.5t-101.5 -146.5t-138.5 -164l-282 -323v-4h624v-201h-893v197l334 397q74 88 130.5 157.5t94 131t57 120t19.5 123.5q0 100 -54 145.5t-153 45.5 q-63 0 -106 -17.5t-69.5 -48t-42 -74.5t-23.5 -98z" />
<glyph unicode="3" horiz-adv-x="1118" d="M63 338l213 41q8 -49 22.5 -88t42.5 -66.5t70 -42t107 -14.5q51 0 97.5 14.5t80 46t54 80.5t20.5 119q0 141 -76 197.5t-207 56.5h-137v186h94q147 0 226.5 70t79.5 186q0 84 -44 139.5t-163 55.5q-117 0 -166 -50t-72 -149l-205 43q18 98 62.5 164t106 107t138 58 t160.5 17q205 0 310.5 -95t105.5 -259q0 -80 -25.5 -139.5t-66.5 -103.5t-91 -71.5t-100 -41.5v-6q147 -29 229.5 -118t82.5 -257q0 -100 -36 -182t-100.5 -139.5t-156.5 -89.5t-203 -32q-90 0 -167 20.5t-137 63.5t-98 112t-51 167z" />
<glyph unicode="4" d="M49 352v170l615 961h290v-936h172v-195h-174v-352h-227v352h-676zM268 547h459v715z" />
<glyph unicode="5" horiz-adv-x="1124" d="M51 338l211 43q8 -43 23.5 -82t45 -68.5t74 -46t107.5 -16.5q51 0 100.5 17.5t87 55.5t60 97t22.5 143q0 76 -19.5 127t-52 83t-76.5 45.5t-93 13.5q-72 0 -133.5 -31t-110.5 -78l-158 68l58 774h737v-201h-561l-41 -438q51 41 120.5 69.5t168.5 28.5q78 0 150.5 -23.5 t127.5 -77t89 -139.5t34 -213q0 -117 -37 -212t-103.5 -161.5t-161.5 -103.5t-212 -37q-82 0 -159 19.5t-138 63.5t-103 113t-57 167z" />
<glyph unicode="6" d="M113 698q0 84 10 177.5t33.5 183.5t65.5 171t104.5 143.5t148.5 99t201 36.5q70 0 133 -16t114.5 -54t89.5 -100.5t56 -156.5l-209 -60q-25 117 -77 158t-130 41q-86 0 -145 -49t-96 -129t-53.5 -179.5t-18.5 -199.5q53 53 145.5 98t202.5 45q188 0 291.5 -112.5 t103.5 -313.5q0 -125 -35.5 -220t-99 -158.5t-152.5 -95.5t-194 -32q-147 0 -242.5 57.5t-150.5 156t-75.5 230.5t-20.5 279zM352 588q2 -76 12.5 -152t38 -137t76.5 -99t129 -38q109 0 172.5 75.5t63.5 225.5q0 129 -52.5 192.5t-162.5 63.5q-78 0 -152 -40t-125 -91z" />
<glyph unicode="7" horiz-adv-x="1064" d="M68 1282v201h950v-178l-588 -1305h-250l590 1282h-702z" />
<glyph unicode="8" horiz-adv-x="1128" d="M63 358q0 147 78 243.5t219 160.5q-123 55 -184 145t-61 207q0 94 35.5 168t98 124t150.5 76.5t193 26.5q215 0 329.5 -92t114.5 -250q0 -131 -71.5 -220t-194.5 -159q66 -31 121 -65.5t95 -81.5t61.5 -108.5t21.5 -143.5q0 -86 -36 -161.5t-102.5 -132t-162.5 -88.5 t-215 -32q-129 0 -221 31t-152.5 83t-88.5 122t-28 147zM297 379q0 -94 60.5 -156.5t201.5 -62.5q70 0 120 18.5t83 50t48 71.5t15 83q0 63 -27.5 108.5t-70.5 77t-96.5 55.5t-106.5 44q-49 -25 -90 -52.5t-71.5 -62.5t-48 -77t-17.5 -97zM354 1145q0 -49 18.5 -90t51.5 -74 t77 -59.5t95 -49.5q94 51 150.5 121t56.5 158q0 86 -53.5 135t-165.5 49q-104 0 -167 -51t-63 -139z" />
<glyph unicode="9" d="M82 313l209 62q25 -117 83 -165t156 -48q82 0 140.5 44t95.5 118.5t53.5 173t18.5 207.5q-53 -53 -147.5 -94.5t-205.5 -41.5q-188 0 -290.5 116t-102.5 323q0 123 36 217t100.5 157.5t153.5 95t193 31.5q145 0 239.5 -57t149 -155.5t76 -230.5t21.5 -280 q0 -143 -20.5 -287.5t-80 -261t-166 -189.5t-278.5 -73q-80 0 -151.5 17.5t-129 57.5t-97.5 104.5t-56 158.5zM330 1020q0 -131 51 -199.5t162 -68.5q78 0 151.5 39t126.5 96q-4 82 -14 159.5t-38 139t-77 98.5t-129 37q-106 0 -169.5 -73.5t-63.5 -227.5z" />
<glyph unicode=":" horiz-adv-x="499" d="M90 129q0 156 160 156t160 -156q0 -154 -160 -154t-160 154zM90 877q0 156 160 155q160 1 160 -155q0 -154 -160 -154t-160 154z" />
<glyph unicode=";" horiz-adv-x="524" d="M27 -250l118 488h254l-184 -508zM139 877q0 156 160 155q160 1 160 -155q0 -154 -160 -154t-160 154z" />
<glyph unicode="&#x3c;" d="M160 473v236l784 303v-205l-577 -211l577 -209v-205z" />
<glyph unicode="=" d="M197 297v203h774v-203h-774zM197 653v203h774v-203h-774z" />
<glyph unicode="&#x3e;" d="M193 190v199l575 207l-575 209v207l784 -303v-230z" />
<glyph unicode="?" horiz-adv-x="1073" d="M43 1100q12 82 47 153.5t94.5 126t146.5 85t204 30.5q88 0 170.5 -20.5t146 -68.5t101.5 -128t38 -199q0 -102 -31.5 -181t-90 -135t-138.5 -94t-178 -59v-219h-229v369q80 6 154.5 23.5t134 52t95 91t35.5 142.5q0 119 -63.5 169t-159.5 50q-100 0 -164.5 -49 t-89.5 -176zM279 119q0 145 155 145q156 0 156 -145q0 -143 -156 -144q-156 0 -155 144z" />
<glyph unicode="@" horiz-adv-x="1734" d="M90 383q0 178 59.5 325.5t167 252t259 163t335.5 58.5q160 0 294 -44t231.5 -129t153 -210t55.5 -287q0 -137 -28 -235.5t-77 -163t-117.5 -95t-150.5 -30.5q-88 0 -150.5 32.5t-87.5 79.5q-41 -55 -101.5 -85.5t-135.5 -30.5q-80 0 -136.5 28.5t-92.5 79.5t-53 121 t-17 152q0 96 23.5 178t68.5 142t109.5 94t144.5 34q59 0 104 -19.5t78 -52.5l14 60h144v-527q0 -31 3 -57.5t13 -45.5t29.5 -30.5t54.5 -11.5q45 0 79 28.5t57.5 78t34.5 115t11 138.5q0 260 -140 396.5t-427 136.5q-158 0 -275.5 -51t-195.5 -138.5t-117 -202t-39 -239.5 q0 -160 47.5 -274.5t130 -188t197.5 -108.5t250 -35q121 0 220.5 28.5t172.5 80.5l68 -140q-80 -63 -204 -96t-277 -33q-164 0 -307.5 47t-250 141.5t-168 237t-61.5 332.5zM676 383q0 -111 34.5 -183.5t125.5 -72.5q57 0 102 29.5t78 81.5v380q-27 23 -61.5 39.5 t-82.5 16.5q-84 0 -140 -68.5t-56 -222.5z" />
<glyph unicode="A" horiz-adv-x="1425" d="M55 0l494 1483h305l520 -1483h-262l-139 406h-539l-135 -406h-244zM481 606h437l-216 656h-4z" />
<glyph unicode="B" horiz-adv-x="1292" d="M178 0v1483h545q131 0 218 -28t138 -77t71.5 -115.5t20.5 -142.5q0 -78 -23.5 -136t-64.5 -100t-94 -69t-112 -41v-6q182 -23 266 -116t84 -246q0 -115 -41 -192t-115 -125t-175 -68.5t-222 -20.5h-496zM416 193h219q74 0 136.5 8t107.5 32.5t70.5 69.5t25.5 119 q0 70 -23.5 115t-64.5 71.5t-96.5 37.5t-118.5 11h-256v-464zM416 852h176q57 0 117.5 9t109.5 34t81 71t32 119q0 66 -19.5 107t-56.5 62.5t-89 28.5t-120 7h-231v-438z" />
<glyph unicode="C" horiz-adv-x="1419" d="M92 721q0 182 47 328.5t137.5 249t220.5 156.5t296 54q119 0 219 -30.5t174 -94t119 -162t53 -231.5l-221 -20q-18 168 -99.5 250t-246.5 82q-211 0 -332 -137.5t-121 -428.5q0 -152 28.5 -257t84 -172.5t135.5 -98.5t184 -31q166 0 250 77t117 218l213 -41 q-18 -127 -77 -214t-140.5 -140t-179 -78t-195.5 -25q-178 0 -305 53.5t-207 152t-117 235.5t-37 305z" />
<glyph unicode="D" horiz-adv-x="1486" d="M178 0v1483h481q193 0 332 -50.5t228.5 -143.5t132.5 -226t43 -299q0 -170 -46 -311.5t-140.5 -241.5t-240 -155.5t-343.5 -55.5h-447zM418 195h205q137 0 236 36.5t163.5 107.5t95.5 172t31 230q0 158 -34 263.5t-98.5 168t-158.5 89t-217 26.5h-223v-1093z" />
<glyph unicode="E" horiz-adv-x="1183" d="M178 0v1483h897v-201h-657v-438h616v-199h-616v-444h688v-201h-928z" />
<glyph unicode="F" horiz-adv-x="1126" d="M178 0v1483h893v-201h-653v-463h604v-201h-604v-618h-240z" />
<glyph unicode="G" horiz-adv-x="1509" d="M92 721q0 184 47 330.5t137.5 248t221.5 155.5t299 54q119 0 217 -27.5t172 -89t119 -157.5t55 -231l-223 -25q-16 158 -96 243t-250 85q-221 0 -336 -147.5t-115 -416.5q0 -158 29.5 -266t87 -174.5t137.5 -96.5t182 -30q88 0 155.5 26.5t113 71.5t68 101.5t22.5 118.5 v96h-347v180h578v-770h-176l-29 193q-23 -49 -65.5 -89.5t-101 -69t-128 -44t-143.5 -15.5q-166 0 -286 55.5t-196.5 154t-112.5 235.5t-36 301z" />
<glyph unicode="H" horiz-adv-x="1495" d="M178 0v1483h240v-625h659v625h240v-1483h-240v647h-659v-647h-240z" />
<glyph unicode="I" horiz-adv-x="595" d="M178 0v1483h240v-1483h-240z" />
<glyph unicode="J" horiz-adv-x="1046" d="M43 350l231 37q4 -49 13.5 -88t29 -66.5t53 -43t89.5 -15.5q41 0 75.5 9.5t59 32t38 63t13.5 104.5v1100h240v-1094q0 -111 -30 -188.5t-86 -127.5t-136 -74t-180 -24q-92 0 -166 20.5t-126 65.5t-83 116t-35 173z" />
<glyph unicode="K" horiz-adv-x="1341" d="M178 0v1483h240v-692l629 692h260l-566 -629l580 -854h-281l-467 670l-155 -168v-502h-240z" />
<glyph unicode="L" horiz-adv-x="1142" d="M178 0v1483h240v-1280h655v-203h-895z" />
<glyph unicode="M" horiz-adv-x="1851" d="M178 0v1483h361l387 -1192h6l385 1192h356v-1483h-223v1233h-6l-408 -1233h-233l-400 1237h-4v-1237h-221z" />
<glyph unicode="N" horiz-adv-x="1525" d="M178 0v1483h301l649 -1159v1159h220v-1483h-283l-666 1165v-1165h-221z" />
<glyph unicode="O" horiz-adv-x="1556" d="M92 737q0 166 45 307.5t134 245t221.5 161.5t306.5 58t299 -58t206.5 -158.5t120.5 -235.5t39 -289q0 -180 -43 -326.5t-130 -250t-218 -160t-305 -56.5q-176 0 -304 56.5t-211 158t-122 241.5t-39 306zM340 741q0 -145 31.5 -250.5t89 -174t138.5 -102.5t179 -34 q96 0 177 33t139.5 101.5t91.5 176t33 257.5q0 283 -116 417.5t-310 134.5q-100 0 -183.5 -33.5t-143.5 -103t-93 -175t-33 -247.5z" />
<glyph unicode="P" horiz-adv-x="1265" d="M178 0v1483h516q141 0 236.5 -37t153 -99.5t81 -144.5t23.5 -170q0 -266 -148.5 -390t-425.5 -124h-198v-518h-238zM416 717h178q72 0 135.5 11t110.5 43t73.5 90.5t26.5 154.5q0 152 -83 211t-236 59h-205v-569z" />
<glyph unicode="Q" horiz-adv-x="1556" d="M92 737q0 166 45 307.5t134 245t221.5 161.5t306.5 58t299 -58t206.5 -158.5t120.5 -235.5t39 -289q0 -186 -45 -329.5t-141 -250.5l178 -188l-137 -127l-186 197q-142 -95 -365 -95q-174 0 -302 56.5t-211 158t-123 241.5t-40 306zM340 741q0 -289 120.5 -430 t317.5 -141q59 0 115.5 11.5t103.5 39.5l-254 277l138 129l245 -271q47 76 72 172.5t25 219.5q0 141 -31 245.5t-87 172t-135 101t-177 33.5q-100 0 -183.5 -33.5t-143.5 -103t-93 -175t-33 -247.5z" />
<glyph unicode="R" horiz-adv-x="1308" d="M178 0v1483h537q137 0 230 -35t149.5 -92.5t80 -131t23.5 -151.5q0 -166 -75.5 -267t-198.5 -149l354 -657h-260l-320 596h-282v-596h-238zM416 788h231q66 0 121 12.5t96 43t63.5 82t22.5 131.5q0 131 -82 180t-227 49h-225v-498z" />
<glyph unicode="S" horiz-adv-x="1226" d="M51 416l221 33q12 -57 33 -108.5t57.5 -90.5t96 -61.5t149.5 -22.5q55 0 108.5 10t95.5 36t67.5 70t25.5 109q0 70 -33.5 114t-90 73.5t-127 49t-145.5 41t-145.5 49t-127 75t-90 118t-33.5 174.5q0 100 40 179t108.5 133.5t162.5 83t205 28.5q98 0 184 -20.5 t153.5 -69.5t111.5 -131t55 -205l-222 -26q-8 53 -24.5 100t-48 82t-82.5 55.5t-129 20.5q-147 0 -211 -55.5t-64 -145.5q0 -68 34 -110.5t90 -72.5t127 -51.5t145.5 -44t145.5 -52t127 -75.5t90 -115t34 -169q0 -121 -45 -206t-120 -139t-172 -79t-204 -25 q-111 0 -206 21.5t-167.5 73t-120 135.5t-59.5 211z" />
<glyph unicode="T" horiz-adv-x="1169" d="M23 1282v201h1124v-201h-440v-1282h-240v1282h-444z" />
<glyph unicode="U" horiz-adv-x="1456" d="M164 518v965h239v-940q0 -195 77 -281t251 -86q86 0 146.5 19.5t99.5 62.5t57.5 111.5t18.5 167.5v946h239v-971q0 -139 -40 -240.5t-113.5 -167t-180 -97.5t-239.5 -32q-293 0 -424 135.5t-131 407.5z" />
<glyph unicode="V" horiz-adv-x="1304" d="M10 1483h269l389 -1252h6l377 1252h243l-469 -1483h-323z" />
<glyph unicode="W" horiz-adv-x="1882" d="M27 1483h252l235 -1217h4l301 1217h260l307 -1227h5l223 1227h239l-313 -1483h-305l-287 1141h-4l-289 -1141h-305z" />
<glyph unicode="X" horiz-adv-x="1300" d="M16 0l484 750l-459 733h266l344 -553l348 553h250l-463 -727l498 -756h-274l-375 563l-359 -563h-260z" />
<glyph unicode="Y" horiz-adv-x="1191" d="M-20 1483h262l368 -688h4l357 688h241l-485 -912l2 -571h-242v567z" />
<glyph unicode="Z" horiz-adv-x="1206" d="M63 0v172l756 1110h-735v201h1018v-178l-748 -1104h779v-201h-1070z" />
<glyph unicode="[" horiz-adv-x="593" d="M125 -293v1776h391v-166h-166v-1444h166v-166h-391z" />
<glyph unicode="\" horiz-adv-x="831" d="M29 1546h213l575 -1734h-215z" />
<glyph unicode="]" horiz-adv-x="593" d="M78 -127h166v1444h-166v166h391v-1776h-391v166z" />
<glyph unicode="^" horiz-adv-x="1261" d="M106 612l404 748h240l409 -748h-229l-303 541l-297 -541h-224z" />
<glyph unicode="_" horiz-adv-x="1024" d="M0 -195h1024v-176h-1024v176z" />
<glyph unicode="`" horiz-adv-x="1024" d="M250 1528h266l180 -336l-164 -21z" />
<glyph unicode="a" horiz-adv-x="1126" d="M96 260q0 102 41 172t111.5 113t165 61.5t200.5 18.5q37 0 61.5 -1t47.5 -3v79q0 49 -7 86t-26.5 64t-56.5 40t-94 13q-96 0 -137.5 -41t-57.5 -123l-207 37q25 150 124 227.5t296 77.5q205 0 301 -85t96 -283v-490q0 -43 11.5 -62.5t52.5 -19.5q23 0 63 13l9 -140 q-31 -16 -77 -25t-89 -9q-84 0 -124 31.5t-55 92.5q-53 -59 -139 -94t-196 -35q-100 0 -162 30t-95.5 74t-45 93t-11.5 88zM336 293q0 -29 7 -53.5t24.5 -45t48 -31.5t78.5 -11q72 0 134 30.5t97 67.5v209q-16 2 -36.5 3t-61.5 1q-45 0 -96.5 -5t-94.5 -21.5t-71.5 -51.5 t-28.5 -92z" />
<glyph unicode="b" horiz-adv-x="1200" d="M147 0v1546h232v-590q68 61 150.5 93t191.5 32q82 0 152.5 -27.5t123 -90t82 -163t29.5 -245.5q0 -156 -34 -265.5t-94 -179t-141 -102.5t-173 -33q-98 0 -172 34t-127 81l-5 -2l-14 -88h-201zM383 262q16 -12 41 -27.5t55.5 -30t66.5 -23.5t75 -9q129 0 186 98.5 t57 280.5q0 166 -52 252t-175 86q-37 0 -74 -10.5t-70.5 -26.5t-61.5 -36.5t-48 -39.5v-514z" />
<glyph unicode="c" horiz-adv-x="1107" d="M88 516q0 276 137 420.5t387 144.5q176 0 290 -99t128 -288l-217 -30q-12 104 -59 166.5t-152 62.5q-51 0 -99 -15.5t-86 -54.5t-60.5 -107.5t-22.5 -172.5q0 -109 20.5 -180.5t55 -114.5t83 -61.5t103.5 -18.5q98 0 156.5 50t76.5 161l205 -41q-12 -96 -53 -164 t-100.5 -113t-135 -65.5t-161.5 -20.5q-131 0 -225.5 40t-154 112t-88 171t-28.5 218z" />
<glyph unicode="d" horiz-adv-x="1193" d="M92 512q0 158 38 266.5t99.5 176t142.5 97t167 29.5q176 0 284 -92v557h230v-1546h-197l-16 106h-4q-63 -59 -143.5 -95t-190.5 -36q-92 0 -167 30t-129 94.5t-84 167t-30 245.5zM336 514q0 -174 56.5 -261t185.5 -87q68 0 132 31.5t107 76.5v533q-35 27 -94 54.5 t-135 27.5q-70 0 -118 -27.5t-78 -77t-43 -119t-13 -151.5z" />
<glyph unicode="e" horiz-adv-x="1120" d="M88 528q0 143 40 248t109.5 172.5t160.5 100t196 32.5q115 0 197.5 -34.5t135 -97t77 -148.5t24.5 -189q0 -68 -6 -141h-686q2 -84 22.5 -141.5t55.5 -93t83 -52t105 -16.5q102 0 150.5 45t66.5 127l201 -49q-31 -152 -144.5 -234t-287.5 -82q-143 0 -238.5 45.5 t-154 122t-83 177t-24.5 208.5zM340 635h444q0 135 -49 197.5t-155 62.5q-45 0 -86 -14.5t-74 -45t-54.5 -80.5t-25.5 -120z" />
<glyph unicode="f" horiz-adv-x="700" d="M25 885v174h151v151q0 184 92 270.5t252 86.5q72 0 127 -12.5t82 -24.5l-8 -170q-31 10 -70 18t-76 8t-66.5 -8t-51 -27.5t-33.5 -55t-12 -91.5v-145h288v-174h-288v-885h-236v885h-151z" />
<glyph unicode="g" horiz-adv-x="1136" d="M53 -199q0 84 51.5 136.5t124.5 76.5v6q-59 20 -92 59.5t-33 100.5q0 72 45.5 122t104.5 95q-72 41 -114 116t-42 177q0 86 32 158t90.5 124t143.5 80.5t191 28.5q92 0 168 -18.5t129 -65.5q29 66 73 106t103 40q27 0 44.5 -2t39.5 -11v-174q-20 2 -39 2q-29 0 -57 -4 q-47 -6 -88 -18q41 -47 61.5 -107.5t20.5 -126.5q0 -90 -34 -160.5t-93.5 -118.5t-141.5 -73.5t-178 -25.5q-53 0 -96 4t-84 16q-20 -16 -35.5 -36.5t-15.5 -43.5q0 -29 20.5 -47t87.5 -22l301 -19q166 -10 259.5 -70.5t93.5 -205.5q0 -104 -46.5 -174t-123 -112t-175 -59.5 t-204.5 -17.5q-147 0 -242.5 22.5t-151 59.5t-77 85t-21.5 97zM281 -160q0 -66 68.5 -95.5t217.5 -29.5q139 0 212 33t73 105q0 49 -32 76.5t-128 31.5l-325 16q-41 -29 -63.5 -61.5t-22.5 -75.5zM328 705q0 -92 54 -145.5t177 -53.5q102 0 165.5 51t63.5 143 q0 100 -60 149.5t-167 49.5q-100 0 -166.5 -46t-66.5 -148z" />
<glyph unicode="h" horiz-adv-x="1193" d="M145 0v1546h234v-592q70 55 157 91t197 36q172 0 249 -90t77 -270v-721h-236v682q0 100 -40 151.5t-134 51.5q-41 0 -80 -11.5t-74.5 -28t-65.5 -35.5t-48 -38v-772h-236z" />
<glyph unicode="i" horiz-adv-x="526" d="M115 1393q0 74 41 113.5t112 39.5q74 0 114 -39.5t40 -113.5q0 -76 -40 -116t-114 -40q-72 0 -112.5 40t-40.5 116zM150 0v1059h235v-1059h-235z" />
<glyph unicode="j" horiz-adv-x="522" d="M-168 -410l21 181q31 -12 73.5 -23.5t85.5 -11.5q59 0 98.5 34.5t39.5 129.5v1159h235v-1174q0 -182 -90 -262t-244 -80q-63 0 -126.5 14.5t-92.5 32.5zM117 1403q0 76 40 116t113 40q72 0 113 -40t41 -116q0 -74 -41 -115t-113 -41q-74 0 -113.5 41t-39.5 115z" />
<glyph unicode="k" horiz-adv-x="1114" d="M147 0v1546h236v-915l412 428h264l-361 -381l387 -678h-258l-305 522l-139 -137v-385h-236z" />
<glyph unicode="l" horiz-adv-x="526" d="M150 0v1546h235v-1546h-235z" />
<glyph unicode="m" horiz-adv-x="1763" d="M145 0v1059h203l8 -109q72 57 157 94t189 37q102 0 167 -31.5t100 -105.5q70 59 157.5 98t196.5 39q164 0 235.5 -89t71.5 -269v-723h-235v688q0 94 -30 145.5t-118 51.5q-31 0 -65.5 -9.5t-66.5 -24.5t-60.5 -32.5t-46.5 -36.5q2 -12 2 -26.5v-28.5v-727h-236v688 q0 94 -28.5 145.5t-116.5 51.5q-33 0 -69 -10.5t-69.5 -25.5t-62.5 -33.5t-47 -37.5v-778h-236z" />
<glyph unicode="n" horiz-adv-x="1193" d="M145 0v1059h209l11 -111q72 57 164 95t202 38q174 0 251 -90t77 -270v-721h-236v682q0 100 -40 151.5t-134 51.5q-41 0 -80 -11.5t-74.5 -28t-65.5 -35.5t-48 -38v-772h-236z" />
<glyph unicode="o" horiz-adv-x="1191" d="M88 524q0 127 33 230.5t99.5 176.5t164.5 111.5t229 38.5t224.5 -38.5t152 -109.5t86 -169t27.5 -215q0 -131 -30 -236.5t-92 -180.5t-159.5 -116t-234.5 -41q-139 0 -235.5 41t-155 115t-84 174.5t-25.5 218.5zM334 532q0 -195 63.5 -284.5t202.5 -89.5q123 0 190.5 87 t67.5 292q0 98 -16.5 166.5t-48 109.5t-78.5 59.5t-109 18.5q-127 0 -199.5 -83t-72.5 -276z" />
<glyph unicode="p" horiz-adv-x="1198" d="M147 -434v1493h203l12 -113q145 135 355 135q84 0 155.5 -27.5t124 -90t82 -163t29.5 -245.5q0 -158 -35 -267.5t-95 -179t-140 -101.5t-168 -32q-96 0 -168 29t-127 74v-512h-228zM381 262q14 -12 39.5 -28.5t56.5 -31t67 -24.5t74 -10q133 0 188.5 103.5t55.5 279.5 q0 184 -55 261t-168 77q-76 0 -145.5 -36t-112.5 -77v-514z" />
<glyph unicode="q" horiz-adv-x="1189" d="M92 514q0 156 38 264.5t100.5 176t142.5 97t166 29.5q92 0 166.5 -27.5t128.5 -80.5l18 86h201v-1493h-226v534q-66 -59 -143.5 -92t-185.5 -33q-90 0 -165 30t-128 95.5t-83 167t-30 246.5zM336 518q0 -170 55 -261t187 -91q68 0 132 32.5t107 75.5v527 q-35 29 -96.5 58.5t-134.5 29.5q-68 0 -116 -26.5t-78 -76t-43 -118t-13 -150.5z" />
<glyph unicode="r" horiz-adv-x="770" d="M145 0v1059h199l18 -158q63 90 146.5 135t200.5 45q10 0 21 -1t22 -1v-235q-27 3 -54 3q-24 0 -48 -2q-52 -5 -101 -19.5t-92 -38t-76 -52.5v-735h-236z" />
<glyph unicode="s" horiz-adv-x="1009" d="M68 274l200 66q10 -37 24.5 -72t41 -60.5t68.5 -40.5t106 -15q88 0 143.5 29.5t55.5 97.5q0 39 -15.5 64.5t-44.5 40.5t-69.5 25.5t-92.5 20.5q-66 12 -132 29.5t-120.5 51.5t-89 91t-34.5 152q0 82 32.5 144.5t88 102t129 60t157.5 20.5q92 0 160.5 -21.5t117 -60 t78 -94t46.5 -125.5l-205 -53q-10 39 -22.5 71.5t-35 56.5t-57.5 37t-86 13q-98 0 -140 -35.5t-42 -89.5q0 -74 62.5 -103.5t166.5 -47.5q68 -12 135.5 -29.5t121.5 -51.5t87 -90.5t33 -146.5q0 -82 -32 -144.5t-89 -105.5t-137 -64.5t-178 -21.5q-383 0 -432 299z" />
<glyph unicode="t" horiz-adv-x="802" d="M27 885v174h161v309l236 33v-342h287v-174h-287v-557q0 -78 27.5 -119t113.5 -41q47 0 97.5 15.5t82.5 33.5l39 -168q-41 -27 -117.5 -50.5t-162.5 -23.5q-158 0 -237 75t-79 245v590h-161z" />
<glyph unicode="u" horiz-adv-x="1187" d="M143 336v723h236v-682q0 -100 36 -150.5t130 -50.5q39 0 78 10.5t74.5 26.5t65.5 35.5t48 38.5v772h236v-1059h-205l-17 117q-70 -63 -161 -101.5t-201 -38.5q-166 0 -243 89.5t-77 269.5z" />
<glyph unicode="v" horiz-adv-x="1058" d="M4 1059h256l277 -828h4l274 828h240l-387 -1059h-273z" />
<glyph unicode="w" horiz-adv-x="1599" d="M4 1059h238l231 -815h2l213 815h238l213 -811h2l225 811h229l-323 -1059h-271l-198 776h-4l-191 -776h-280z" />
<glyph unicode="x" horiz-adv-x="1040" d="M27 1059h256l239 -363l248 363h229l-350 -514l367 -545h-254l-256 379l-244 -379h-233l352 541z" />
<glyph unicode="y" horiz-adv-x="1028" d="M0 -416l23 176q35 -12 81 -22t84 -10q53 0 96.5 31.5t75.5 113.5l43 111l-397 1075h254l260 -795h2l260 795h242l-442 -1194q-33 -88 -68 -149.5t-78 -99.5t-98 -55.5t-125 -17.5q-59 0 -119.5 12.5t-93.5 28.5z" />
<glyph unicode="z" horiz-adv-x="946" d="M59 0v168l551 706h-542v185h804v-170l-546 -696h571v-193h-838z" />
<glyph unicode="{" horiz-adv-x="651" d="M6 520v156h39q145 0 145 164q0 51 -4 107.5t-10 111.5t-10 106.5t-4 94.5q0 129 74.5 189t220.5 60h129v-170h-64q-66 0 -89 -26.5t-23 -77.5q0 -45 4 -96.5t10 -104.5t10 -106.5t4 -102.5q0 -55 -12 -93t-33.5 -63.5t-50.5 -42t-63 -28.5q35 -12 63.5 -29.5t50 -43 t33.5 -63.5t12 -93q0 -98 -14 -197.5t-14 -185.5q0 -53 25.5 -85t103.5 -32h47v-166h-127q-154 0 -225.5 63.5t-71.5 186.5q0 96 14 196.5t14 204.5q0 88 -36.5 127t-106.5 39h-41z" />
<glyph unicode="|" horiz-adv-x="573" d="M180 -293v1839h213v-1839h-213z" />
<glyph unicode="}" horiz-adv-x="651" d="M66 -127h63q66 0 89.5 26.5t23.5 77.5q0 45 -4.5 96.5t-10.5 104.5t-10 106.5t-4 102.5q0 55 12.5 93t34 63.5t50 42t63.5 28.5q-35 12 -63.5 30t-50 43.5t-34 63t-12.5 93.5q0 98 14.5 197.5t14.5 185.5q0 53 -26 84.5t-103 31.5h-47v166h127q154 0 225 -63.5t71 -185.5 q0 -96 -14 -196.5t-14 -205.5q0 -88 37 -127t106 -39h41v-155h-39q-145 0 -145 -164q0 -53 4 -108.5t10 -111t10 -106.5t4 -94q0 -129 -74.5 -189.5t-219.5 -60.5h-129v170z" />
<glyph unicode="~" horiz-adv-x="1126" d="M119 606q-16 133 40 206t154 73q49 0 119 -14.5t140.5 -32t132 -31.5t96.5 -14q37 0 54 19t17 79l138 -6q16 -127 -36 -199t-151 -72q-49 0 -119.5 14.5t-142.5 32t-135.5 32t-95.5 14.5q-35 0 -53.5 -21.5t-14.5 -85.5z" />
<glyph unicode="&#xa1;" horiz-adv-x="565" d="M139 936q0 143 154 143q156 0 156 -143q0 -145 -156 -145q-154 0 -154 145zM166 -428l35 1092h186l37 -1092h-258z" />
<glyph unicode="&#xa2;" horiz-adv-x="1073" d="M109 717q0 221 107.5 350t283.5 164v213h172v-209q68 -10 125 -38t101 -72t70.5 -104t32.5 -136l-210 -31q-10 80 -38 127t-81 63v-632q57 16 88 60t47 122l197 -37q-23 -150 -113 -232.5t-219 -103.5v-221h-172v221q-94 14 -167 57.5t-123 108t-75.5 148t-25.5 182.5z M350 741q0 -129 32 -213t118 -112v622q-66 -23 -108 -91.5t-42 -205.5z" />
<glyph unicode="&#xa3;" horiz-adv-x="1175" d="M41 0v190h119q78 72 115.5 141.5t37.5 153.5q0 82 -43 166h-207v180h148q-25 47 -55.5 116t-30.5 159q0 88 35 162.5t98.5 128t152.5 83t197 29.5q199 0 311.5 -89t141.5 -296l-211 -32q-8 51 -22.5 94t-41 73.5t-69.5 47t-109 16.5q-111 0 -177 -50t-66 -161 q0 -78 30.5 -150.5t59.5 -130.5h434v-180h-379q33 -82 33 -155q0 -86 -33 -160t-107 -146h293q61 0 102.5 13.5t69 41t43 69.5t25.5 100l201 -37q-20 -193 -122 -285t-302 -92h-672z" />
<glyph unicode="&#xa4;" d="M-16 141l190 189q-29 53 -43 116.5t-14 128.5q0 59 15 118t44 112l-186 184l141 144l178 -179q109 80 269 80q164 0 268 -73l170 169l133 -139l-178 -178q55 -102 55 -229q0 -68 -16.5 -133.5t-51.5 -120.5l189 -187l-141 -141l-183 182q-106 -72 -258 -71 q-84 0 -149.5 19.5t-116.5 53.5q-8 -10 -35.5 -36.5t-58.5 -57.5t-56.5 -57.5t-31.5 -32.5zM326 575q0 -59 14 -109t44 -88t76.5 -59.5t112.5 -21.5q121 0 182.5 81t61.5 197q0 127 -61.5 200t-186.5 73q-123 0 -183 -77t-60 -196z" />
<glyph unicode="&#xa5;" horiz-adv-x="1122" d="M37 1483h256l280 -537h5l270 537h239l-325 -606h194v-172h-268v-170h268v-173h-268v-362h-235v362h-269v173h269v170h-269v172h187z" />
<glyph unicode="&#xa6;" horiz-adv-x="573" d="M180 -293v795h213v-795h-213zM180 848v698h213v-698h-213z" />
<glyph unicode="&#xa7;" horiz-adv-x="1138" d="M92 498q0 92 49 166.5t142 134.5q-53 43 -88 107.5t-35 162.5q0 92 35.5 164t98 121t145.5 73.5t175 24.5q180 0 298 -89t135 -284l-218 -28q-10 106 -58 166.5t-163 60.5q-106 0 -162.5 -49t-56.5 -129t50 -124t125 -71.5t162 -50.5t162 -60.5t125 -102t50 -175.5 q0 -88 -51 -166t-140 -137q53 -43 89 -107.5t36 -160.5q0 -92 -35.5 -164t-98 -121t-145.5 -73.5t-177 -24.5q-188 0 -303 93t-129 288l210 26q10 -106 61.5 -165.5t168.5 -59.5q104 0 158.5 47t54.5 129q0 80 -49 121t-124 66.5t-162 46t-162 57.5t-124 103.5t-49 183.5z M315 545q0 -61 37 -98t95.5 -61t130 -42t143.5 -45q111 70 110 176q0 59 -36.5 94t-94 57.5t-130 41t-142.5 47.5q-53 -35 -83 -77t-30 -93z" />
<glyph unicode="&#xa8;" horiz-adv-x="1024" d="M137 1382q0 66 42 105t110 39q66 0 107.5 -39t41.5 -105q0 -68 -42 -106.5t-107 -38.5q-68 0 -110 39t-42 106zM588 1382q0 66 41 105t110 39q66 0 108 -39t42 -105q0 -68 -42 -106.5t-108 -38.5q-70 0 -110.5 39t-40.5 106z" />
<glyph unicode="&#xa9;" horiz-adv-x="1605" d="M100 649q0 166 55.5 296t150.5 220t224 138.5t275 48.5q162 0 292 -48.5t220 -135.5t138 -210.5t48 -277.5q0 -158 -51 -288t-143 -222t-222.5 -143.5t-285.5 -51.5q-174 0 -305 51.5t-219.5 142.5t-132.5 214t-44 266zM246 651q0 -256 147.5 -400.5t411.5 -144.5 q129 0 232.5 39t176 112t110.5 176.5t38 234.5q0 135 -41 238.5t-114.5 173t-176 105.5t-225.5 36q-121 0 -222.5 -38t-177 -112t-117.5 -179.5t-42 -240.5zM444 668q0 86 25 159.5t72 126t116.5 82t159.5 29.5q59 0 112.5 -14.5t95.5 -47t67.5 -83t29.5 -121.5l-133 -17 q-14 164 -176 164q-45 0 -85 -15.5t-69.5 -49t-47 -87t-17.5 -130.5q0 -55 11 -105.5t38 -88.5t67 -60.5t99 -22.5q94 0 137 44t60 122l124 -21q-10 -80 -43.5 -131t-79.5 -80.5t-97.5 -41t-96.5 -11.5q-98 0 -169 30t-115 84t-64.5 127t-20.5 159z" />
<glyph unicode="&#xaa;" horiz-adv-x="788" d="M68 750q0 74 31.5 118.5t82.5 69.5t111.5 33t120.5 8h35.5t33.5 -2v35q0 59 -20.5 93t-91.5 34q-59 0 -85 -23.5t-36 -77.5l-158 27q16 98 85 154.5t210 56.5t211 -55.5t70 -184.5v-291q0 -41 17 -50t54 -3l6 -108q-23 -10 -51 -17.5t-59 -7.5q-59 0 -95 25.5t-42 60.5 q-35 -39 -89.5 -63.5t-129.5 -24.5q-68 0 -109 20.5t-64.5 50t-30.5 62.5t-7 60zM260 770q0 -29 16.5 -53.5t71.5 -24.5q41 0 78 16.5t59 36.5v117q-12 2 -28.5 2h-32.5q-29 0 -57.5 -4t-52 -14t-39 -28.5t-15.5 -47.5z" />
<glyph unicode="&#xab;" horiz-adv-x="915" d="M100 528l183 308h200l-176 -301l170 -324h-198zM449 528l182 308h200l-176 -301l170 -324h-198z" />
<glyph unicode="&#xac;" d="M186 565v201h781v-393h-191v192h-590z" />
<glyph unicode="&#xad;" horiz-adv-x="636" d="M41 496v211h555v-211h-555z" />
<glyph unicode="&#xae;" horiz-adv-x="935" d="M82 961q0 90 30.5 162.5t83 122.5t123 77t150.5 27q180 0 282.5 -101.5t102.5 -271.5q0 -86 -28.5 -157.5t-79 -123t-122 -79t-157.5 -27.5q-96 0 -168 28.5t-120 77.5t-72.5 117t-24.5 148zM176 965q0 -135 79 -211t214 -76t214 78t79 215q0 143 -83 217t-210 74 q-61 0 -114.5 -20.5t-93.5 -58.5t-62.5 -93.5t-22.5 -124.5zM340 784v390h141q84 0 113 -34t29 -79q0 -41 -20.5 -64.5t-51.5 -38.5l104 -174h-94l-90 150h-45v-150h-86zM426 999h29q35 0 56 11.5t21 46.5q0 31 -19 41t-48 10h-39v-109z" />
<glyph unicode="&#xaf;" horiz-adv-x="1024" d="M205 1262v170h612v-170h-612z" />
<glyph unicode="&#xb0;" horiz-adv-x="595" d="M63 1294q0 115 69 176.5t167 61.5q100 0 166.5 -60.5t66.5 -171.5q0 -109 -64.5 -172t-168.5 -63q-106 0 -171 62.5t-65 166.5zM190 1294q0 -49 29 -78.5t80 -29.5q49 0 78 31.5t29 82.5q0 53 -30 83t-77 30t-78 -30.5t-31 -88.5z" />
<glyph unicode="&#xb1;" d="M193 0v199h780v-199h-780zM193 561v199h288v297h201v-297h291v-199h-291v-276h-201v276h-288z" />
<glyph unicode="&#xb2;" horiz-adv-x="804" d="M82 1386q16 139 107.5 201t218.5 62q147 0 220.5 -63.5t73.5 -174.5q0 -53 -15 -99t-47 -92t-79 -95.5t-110 -108.5l-111 -121v-6h377v-174h-619v172l205 219q51 53 87 94t58.5 74t33 62.5t10.5 62.5q0 49 -28 70.5t-75 21.5q-59 0 -88 -34t-39 -97z" />
<glyph unicode="&#xb3;" horiz-adv-x="786" d="M63 938l185 33q10 -57 37.5 -86t91.5 -29q55 0 93 31t38 98q0 72 -38 100.5t-110 28.5h-96v143h62q84 0 127 39t43 101q0 43 -22.5 69.5t-82.5 26.5q-59 0 -87 -27.5t-40 -81.5l-178 35q12 66 44 110t75 70.5t96 38t111 11.5q141 0 215.5 -57.5t74.5 -161.5 q0 -49 -15 -85t-40.5 -63t-57.5 -45t-65 -29v-4q96 -20 146.5 -73.5t50.5 -151.5q0 -131 -95.5 -205t-244.5 -74q-57 0 -110.5 12.5t-96.5 40t-72.5 72.5t-38.5 113z" />
<glyph unicode="&#xb4;" horiz-adv-x="1024" d="M328 1192l180 336h266l-282 -357z" />
<glyph unicode="&#xb5;" horiz-adv-x="1288" d="M190 -360v1419h236v-682q0 -109 29.5 -158t115.5 -49q43 0 83 13.5t75 33t65.5 44t53.5 48.5v750h235v-1059h-200l-9 127h-4q-61 -57 -142 -99t-171 -42q-72 0 -139 32l-4 -2l18 -376h-242z" />
<glyph unicode="&#xb6;" horiz-adv-x="1183" d="M61 977q0 139 45.5 235.5t123 157t182 87t221.5 26.5h379l2 -1755h-183v1595h-153v-1595h-182v778q-211 16 -323 139t-112 332z" />
<glyph unicode="&#xb7;" horiz-adv-x="434" d="M66 627q0 143 151 143q152 0 152 -143t-152 -144q-152 0 -151 144z" />
<glyph unicode="&#xb8;" horiz-adv-x="1024" d="M274 -438l35 121q23 -10 49.5 -16.5t57.5 -6.5q102 0 102 84q0 49 -34.5 67.5t-108.5 20.5l33 229l129 -16l-19 -123q33 -6 62.5 -18.5t52 -34t37 -53t14.5 -76.5q0 -102 -68.5 -158.5t-173.5 -56.5q-53 0 -96 11t-72 26z" />
<glyph unicode="&#xb9;" horiz-adv-x="624" d="M63 1522q88 6 160 31.5t119 74.5h145v-917h-211v684q-16 -8 -43.5 -14.5t-57.5 -11.5t-57.5 -8t-43.5 -3z" />
<glyph unicode="&#xba;" horiz-adv-x="831" d="M61 915q0 166 90.5 263.5t276.5 97.5q92 0 156.5 -25.5t105.5 -71.5t59.5 -109.5t18.5 -139.5q0 -84 -20.5 -152.5t-63.5 -118t-111.5 -76t-164.5 -26.5q-94 0 -160 26.5t-108 75t-60.5 114t-18.5 142.5zM260 920q0 -109 35 -160t119 -51q74 0 115.5 48t41.5 165 t-36.5 160.5t-112.5 43.5q-78 0 -120 -49t-42 -157z" />
<glyph unicode="&#xbb;" horiz-adv-x="915" d="M86 836h201l180 -316l-178 -309h-201l172 309zM434 836h201l180 -316l-178 -309h-201l172 309z" />
<glyph unicode="&#xbc;" horiz-adv-x="1935" d="M111 1382q88 6 159.5 32t118.5 75h146v-918h-211v684q-16 -8 -44 -14t-57.5 -11t-57.5 -8t-44 -3zM446 -25l730 1508h215l-725 -1508h-220zM1085 201v143l375 574h256v-556h107v-161h-107v-201h-205v201h-426zM1268 362h245v375z" />
<glyph unicode="&#xbd;" horiz-adv-x="1935" d="M123 1382q88 6 159.5 32t118.5 75h146v-918h-211v684q-16 -8 -44 -14t-57.5 -11t-57 -8t-44.5 -3zM426 -25l729 1508h215l-725 -1508h-219zM1180 672q16 139 107 200.5t218 61.5q147 0 221 -63.5t74 -174.5q0 -53 -15.5 -99t-47 -92t-78.5 -95.5t-111 -108.5l-110 -121 v-6h377v-174h-619v172l205 219q51 53 87 94t58.5 74t32.5 62.5t10 62.5q0 49 -27.5 70.5t-74.5 21.5q-59 0 -88 -33.5t-39 -97.5z" />
<glyph unicode="&#xbe;" horiz-adv-x="1935" d="M92 799l184 32q10 -57 38 -85.5t92 -28.5q55 0 93 30.5t38 98.5q0 72 -38 100.5t-110 28.5h-96v143h61q84 0 127 39t43 100q0 43 -22.5 70t-81.5 27t-87 -28t-40 -81l-178 35q12 66 43.5 110t74.5 70.5t96.5 37.5t110.5 11q141 0 216 -57t75 -162q0 -49 -15.5 -85 t-41 -62.5t-57 -45t-64.5 -28.5v-4q96 -20 146.5 -73.5t50.5 -151.5q0 -131 -95.5 -205t-244.5 -74q-57 0 -110.5 12.5t-96.5 40t-73 72.5t-38 113zM516 -25l729 1508h215l-725 -1508h-219zM1122 201v143l375 574h256v-556h107v-161h-107v-201h-205v201h-426zM1305 362h245 v375z" />
<glyph unicode="&#xbf;" horiz-adv-x="1028" d="M59 -25q0 102 32 181.5t90.5 135.5t138 94t178.5 58v220h229v-369q-80 -6 -154.5 -23.5t-134 -52.5t-95.5 -91t-36 -142q0 -121 63.5 -170t159.5 -49q100 0 165 49t89 176l224 -37q-12 -82 -47 -153.5t-94.5 -126t-146.5 -85t-204 -30.5q-90 0 -172 20.5t-145.5 68.5 t-101.5 128t-38 198zM461 936q0 143 155 143q156 0 156 -143q0 -145 -156 -145q-155 0 -155 145z" />
<glyph unicode="&#xc0;" horiz-adv-x="1425" d="M55 0l494 1483h305l520 -1483h-262l-139 406h-539l-135 -406h-244zM401 1874h269l194 -281l-172 -22zM481 606h437l-216 656h-4z" />
<glyph unicode="&#xc1;" horiz-adv-x="1425" d="M55 0l494 1483h305l520 -1483h-262l-139 406h-539l-135 -406h-244zM481 606h437l-216 656h-4zM541 1593l196 281h267l-291 -303z" />
<glyph unicode="&#xc2;" horiz-adv-x="1425" d="M55 0l494 1483h305l520 -1483h-262l-139 406h-539l-135 -406h-244zM371 1589l229 273h211l225 -273l-170 -14l-161 156l-166 -160zM481 606h437l-216 656h-4z" />
<glyph unicode="&#xc3;" horiz-adv-x="1425" d="M55 0l494 1483h305l520 -1483h-262l-139 406h-539l-135 -406h-244zM362 1604q-16 133 40.5 201.5t146.5 68.5q49 0 90 -14.5t78 -32t70.5 -31.5t68.5 -14q37 0 53.5 19.5t16.5 78.5l131 -6q16 -127 -34 -195.5t-144 -68.5q-49 0 -92.5 14t-81 31.5t-72.5 32t-68 14.5 q-35 0 -53 -20.5t-14 -84.5zM481 606h437l-216 656h-4z" />
<glyph unicode="&#xc4;" horiz-adv-x="1425" d="M55 0l494 1483h305l520 -1483h-262l-139 406h-539l-135 -406h-244zM328 1737q0 66 42 104.5t109 38.5q66 0 108 -38.5t42 -104.5q0 -68 -42 -106t-108 -38q-68 0 -109.5 38t-41.5 106zM481 606h437l-216 656h-4zM778 1737q0 66 41 104.5t111 38.5q66 0 107.5 -38.5 t41.5 -104.5q0 -68 -42 -106t-107 -38q-70 0 -111 38t-41 106z" />
<glyph unicode="&#xc5;" horiz-adv-x="1425" d="M55 0l488 1466q-74 57 -74 166q0 57 19.5 100.5t51 71t74.5 42t91 14.5q49 0 91 -13.5t74.5 -40t51 -69t18.5 -97.5q0 -117 -80 -178l514 -1462h-262l-139 406h-539l-135 -406h-244zM481 606h437l-216 656h-4zM596 1638q0 -51 28.5 -77.5t77.5 -26.5q53 0 80 28.5 t27 82.5q0 51 -27.5 76.5t-76.5 25.5q-47 0 -78 -27.5t-31 -81.5z" />
<glyph unicode="&#xc6;" horiz-adv-x="2050" d="M47 0l774 1483h1106v-201h-655v-457h616v-196h-616v-428h686v-201h-928v625h-412l-325 -625h-246zM698 819h332v463h-84z" />
<glyph unicode="&#xc7;" horiz-adv-x="1419" d="M92 721q0 182 47 328.5t137.5 249t220.5 156.5t296 54q119 0 219 -30.5t174 -94t119 -162t53 -231.5l-221 -20q-18 168 -99.5 250t-246.5 82q-211 0 -332 -137.5t-121 -428.5q0 -152 28.5 -257t84 -172.5t135.5 -98.5t184 -31q166 0 250 77t117 218l213 -41 q-18 -117 -70.5 -201t-125.5 -138t-161 -81.5t-180 -34.5l-8 -55q33 -6 62.5 -18.5t52 -34t37 -53t14.5 -76.5q0 -102 -68.5 -158.5t-173.5 -56.5q-53 0 -96 11t-72 26l35 121q23 -10 49.5 -16.5t56.5 -6.5q102 0 103 84q0 49 -35 67.5t-108 20.5l20 148q-158 10 -270.5 67 t-183 154.5t-103.5 228.5t-33 291z" />
<glyph unicode="&#xc8;" horiz-adv-x="1183" d="M178 0v1483h897v-201h-657v-438h616v-199h-616v-444h688v-201h-928zM328 1874h268l195 -281l-173 -22z" />
<glyph unicode="&#xc9;" horiz-adv-x="1183" d="M178 0v1483h897v-201h-657v-438h616v-199h-616v-444h688v-201h-928zM483 1593l197 281h266l-291 -303z" />
<glyph unicode="&#xca;" horiz-adv-x="1183" d="M178 0v1483h897v-201h-657v-438h616v-199h-616v-444h688v-201h-928zM297 1589l229 273h211l226 -273l-170 -14l-162 156l-166 -160z" />
<glyph unicode="&#xcb;" horiz-adv-x="1183" d="M178 0v1483h897v-201h-657v-438h616v-199h-616v-444h688v-201h-928zM254 1737q0 66 42 104.5t110 38.5q66 0 107.5 -38.5t41.5 -104.5q0 -68 -42 -106t-107 -38q-68 0 -110 38t-42 106zM705 1737q0 66 40.5 104.5t110.5 38.5q66 0 108 -38.5t42 -104.5q0 -68 -42 -106 t-108 -38q-70 0 -110.5 38t-40.5 106z" />
<glyph unicode="&#xcc;" horiz-adv-x="595" d="M-4 1874h268l195 -281l-172 -22zM178 0v1483h240v-1483h-240z" />
<glyph unicode="&#xcd;" horiz-adv-x="595" d="M135 1593l197 281h266l-291 -303zM178 0v1483h240v-1483h-240z" />
<glyph unicode="&#xce;" horiz-adv-x="595" d="M-35 1589l230 273h211l225 -273l-170 -14l-162 156l-166 -160zM178 0v1483h240v-1483h-240z" />
<glyph unicode="&#xcf;" horiz-adv-x="595" d="M-78 1737q0 66 42 104.5t110 38.5q66 0 107.5 -38.5t41.5 -104.5q0 -68 -42 -106t-107 -38q-68 0 -110 38t-42 106zM178 0v1483h240v-1483h-240zM373 1737q0 66 41 104.5t110 38.5q66 0 108 -38.5t42 -104.5q0 -68 -42 -106t-108 -38q-70 0 -110.5 38t-40.5 106z" />
<glyph unicode="&#xd0;" horiz-adv-x="1486" d="M29 670v186h149v627h481q193 0 332 -50.5t228.5 -143.5t132.5 -226t43 -299q0 -170 -46 -311.5t-140.5 -241.5t-240 -155.5t-343.5 -55.5h-447v670h-149zM418 195h205q137 0 236 36.5t163.5 107.5t95.5 172t31 230q0 158 -34 263.5t-98.5 168t-158.5 89t-217 26.5h-223 v-432h401v-186h-401v-475z" />
<glyph unicode="&#xd1;" horiz-adv-x="1525" d="M178 0v1483h301l649 -1159v1159h220v-1483h-283l-666 1165v-1165h-221zM440 1604q-16 133 40.5 201.5t146.5 68.5q49 0 90 -14.5t77.5 -32t70.5 -31.5t69 -14q37 0 53.5 19.5t16.5 78.5l131 -6q16 -127 -34 -195.5t-145 -68.5q-49 0 -92 14t-81 31.5t-72.5 32t-67.5 14.5 q-35 0 -53.5 -20.5t-14.5 -84.5z" />
<glyph unicode="&#xd2;" horiz-adv-x="1556" d="M92 737q0 166 45 307.5t134 245t221.5 161.5t306.5 58t299 -58t206.5 -158.5t120.5 -235.5t39 -289q0 -180 -43 -326.5t-130 -250t-218 -160t-305 -56.5q-176 0 -304 56.5t-211 158t-122 241.5t-39 306zM340 741q0 -145 31.5 -250.5t89 -174t138.5 -102.5t179 -34 q96 0 177 33t139.5 101.5t91.5 176t33 257.5q0 283 -116 417.5t-310 134.5q-100 0 -183.5 -33.5t-143.5 -103t-93 -175t-33 -247.5zM512 1874h268l195 -281l-172 -22z" />
<glyph unicode="&#xd3;" horiz-adv-x="1556" d="M92 737q0 166 45 307.5t134 245t221.5 161.5t306.5 58t299 -58t206.5 -158.5t120.5 -235.5t39 -289q0 -180 -43 -326.5t-130 -250t-218 -160t-305 -56.5q-176 0 -304 56.5t-211 158t-122 241.5t-39 306zM340 741q0 -145 31.5 -250.5t89 -174t138.5 -102.5t179 -34 q96 0 177 33t139.5 101.5t91.5 176t33 257.5q0 283 -116 417.5t-310 134.5q-100 0 -183.5 -33.5t-143.5 -103t-93 -175t-33 -247.5zM614 1593l197 281h266l-291 -303z" />
<glyph unicode="&#xd4;" horiz-adv-x="1556" d="M92 737q0 166 45 307.5t134 245t221.5 161.5t306.5 58t299 -58t206.5 -158.5t120.5 -235.5t39 -289q0 -180 -43 -326.5t-130 -250t-218 -160t-305 -56.5q-176 0 -304 56.5t-211 158t-122 241.5t-39 306zM340 741q0 -145 31.5 -250.5t89 -174t138.5 -102.5t179 -34 q96 0 177 33t139.5 101.5t91.5 176t33 257.5q0 283 -116 417.5t-310 134.5q-100 0 -183.5 -33.5t-143.5 -103t-93 -175t-33 -247.5zM463 1589l229 273h211l225 -273l-170 -14l-161 156l-166 -160z" />
<glyph unicode="&#xd5;" horiz-adv-x="1556" d="M92 737q0 166 45 307.5t134 245t221.5 161.5t306.5 58t299 -58t206.5 -158.5t120.5 -235.5t39 -289q0 -180 -43 -326.5t-130 -250t-218 -160t-305 -56.5q-176 0 -304 56.5t-211 158t-122 241.5t-39 306zM340 741q0 -145 31.5 -250.5t89 -174t138.5 -102.5t179 -34 q96 0 177 33t139.5 101.5t91.5 176t33 257.5q0 283 -116 417.5t-310 134.5q-100 0 -183.5 -33.5t-143.5 -103t-93 -175t-33 -247.5zM455 1604q-16 133 40 201.5t146 68.5q49 0 90 -14.5t78 -32t70.5 -31.5t68.5 -14q37 0 53.5 19.5t16.5 78.5l131 -6q16 -127 -34 -195.5 t-144 -68.5q-49 0 -92 14t-81 31.5t-73 32t-68 14.5q-35 0 -53 -20.5t-14 -84.5z" />
<glyph unicode="&#xd6;" horiz-adv-x="1556" d="M92 737q0 166 45 307.5t134 245t221.5 161.5t306.5 58t299 -58t206.5 -158.5t120.5 -235.5t39 -289q0 -180 -43 -326.5t-130 -250t-218 -160t-305 -56.5q-176 0 -304 56.5t-211 158t-122 241.5t-39 306zM340 741q0 -145 31.5 -250.5t89 -174t138.5 -102.5t179 -34 q96 0 177 33t139.5 101.5t91.5 176t33 257.5q0 283 -116 417.5t-310 134.5q-100 0 -183.5 -33.5t-143.5 -103t-93 -175t-33 -247.5zM420 1737q0 66 42 104.5t109 38.5q66 0 108 -38.5t42 -104.5q0 -68 -42 -106t-108 -38q-68 0 -109.5 38t-41.5 106zM870 1737q0 66 41 104.5 t111 38.5q66 0 107.5 -38.5t41.5 -104.5q0 -68 -42 -106t-107 -38q-70 0 -111 38t-41 106z" />
<glyph unicode="&#xd7;" d="M231 446l211 211l-211 211l142 146l209 -211l211 211l141 -146l-211 -211l211 -211l-141 -145l-211 211l-209 -211z" />
<glyph unicode="&#xd8;" horiz-adv-x="1556" d="M92 737q0 166 45 307.5t134 245t221.5 161.5t306.5 58q47 0 92 -5t86 -15l57 137h230l-90 -217q150 -96 220 -265t70 -376q0 -180 -43 -326.5t-130 -250t-218 -160t-305 -56.5q-98 0 -184 19l-58 -141h-231l92 219q-154 96 -224.5 269t-70.5 396zM340 741 q0 -158 37 -268.5t102 -177.5l414 995q-51 10 -100 10q-100 0 -183.5 -33.5t-143.5 -103t-93 -175.5t-33 -247zM668 193q51 -13 110 -13q96 0 177 33t139.5 101.5t91.5 176t33 257.5q0 154 -36 263t-102 177z" />
<glyph unicode="&#xd9;" horiz-adv-x="1456" d="M164 518v965h239v-940q0 -195 77 -281t251 -86q86 0 146.5 19.5t99.5 62.5t57.5 111.5t18.5 167.5v946h239v-971q0 -139 -40 -240.5t-113.5 -167t-180 -97.5t-239.5 -32q-293 0 -424 135.5t-131 407.5zM428 1874h268l195 -281l-172 -22z" />
<glyph unicode="&#xda;" horiz-adv-x="1456" d="M164 518v965h239v-940q0 -195 77 -281t251 -86q86 0 146.5 19.5t99.5 62.5t57.5 111.5t18.5 167.5v946h239v-971q0 -139 -40 -240.5t-113.5 -167t-180 -97.5t-239.5 -32q-293 0 -424 135.5t-131 407.5zM588 1593l196 281h267l-291 -303z" />
<glyph unicode="&#xdb;" horiz-adv-x="1456" d="M164 518v965h239v-940q0 -195 77 -281t251 -86q86 0 146.5 19.5t99.5 62.5t57.5 111.5t18.5 167.5v946h239v-971q0 -139 -40 -240.5t-113.5 -167t-180 -97.5t-239.5 -32q-293 0 -424 135.5t-131 407.5zM395 1589l230 273h211l225 -273l-170 -14l-162 156l-166 -160z" />
<glyph unicode="&#xdc;" horiz-adv-x="1456" d="M164 518v965h239v-940q0 -195 77 -281t251 -86q86 0 146.5 19.5t99.5 62.5t57.5 111.5t18.5 167.5v946h239v-971q0 -139 -40 -240.5t-113.5 -167t-180 -97.5t-239.5 -32q-293 0 -424 135.5t-131 407.5zM352 1737q0 66 42 104.5t110 38.5q66 0 107.5 -38.5t41.5 -104.5 q0 -68 -42 -106t-107 -38q-68 0 -110 38t-42 106zM803 1737q0 66 41 104.5t110 38.5q66 0 108 -38.5t42 -104.5q0 -68 -42 -106t-108 -38q-70 0 -110.5 38t-40.5 106z" />
<glyph unicode="&#xdd;" horiz-adv-x="1191" d="M-20 1483h262l368 -688h4l357 688h241l-485 -912l2 -571h-242v567zM442 1593l197 281h266l-291 -303z" />
<glyph unicode="&#xde;" horiz-adv-x="1265" d="M178 0v1483h242v-250h274q141 0 236.5 -37t153 -98.5t81 -141t23.5 -163.5q0 -262 -148.5 -383t-425.5 -121h-198v-289h-238zM416 487h178q72 0 135.5 10.5t110.5 41t73.5 88t26.5 149.5q0 145 -83 202.5t-236 57.5h-205v-549z" />
<glyph unicode="&#xdf;" horiz-adv-x="1351" d="M145 0v1081q0 135 39 229.5t106.5 152t162 83t204.5 25.5q231 0 354.5 -98.5t123.5 -280.5q0 -74 -20.5 -130t-53.5 -98t-75 -70t-85 -44v-8q74 -14 139.5 -41t113.5 -76t77 -122t29 -179q0 -94 -28 -175t-82 -141.5t-136 -95.5t-193 -35q-88 0 -152.5 21.5t-108.5 56.5 t-72.5 82t-43.5 101l179 75q12 -31 27.5 -58.5t38 -49t53 -34.5t73.5 -13q98 0 150.5 64.5t52.5 205.5q0 88 -26.5 145.5t-73 92t-106.5 49t-130 14.5h-80v170h33q74 0 124 21.5t80.5 56.5t44 80t13.5 94q0 133 -66.5 189.5t-181.5 56.5q-61 0 -111.5 -13.5t-85 -49.5 t-53 -96t-18.5 -153v-1085h-236z" />
<glyph unicode="&#xe0;" horiz-adv-x="1126" d="M96 260q0 102 41 172t111.5 113t165 61.5t200.5 18.5q37 0 61.5 -1t47.5 -3v79q0 49 -7 86t-26.5 64t-56.5 40t-94 13q-96 0 -137.5 -41t-57.5 -123l-207 37q25 150 124 227.5t296 77.5q205 0 301 -85t96 -283v-490q0 -43 11.5 -62.5t52.5 -19.5q23 0 63 13l9 -140 q-31 -16 -77 -25t-89 -9q-84 0 -124 31.5t-55 92.5q-53 -59 -139 -94t-196 -35q-100 0 -162 30t-95.5 74t-45 93t-11.5 88zM293 1528h266l180 -336l-164 -21zM336 293q0 -29 7 -53.5t24.5 -45t48 -31.5t78.5 -11q72 0 134 30.5t97 67.5v209q-16 2 -36.5 3t-61.5 1 q-45 0 -96.5 -5t-94.5 -21.5t-71.5 -51.5t-28.5 -92z" />
<glyph unicode="&#xe1;" horiz-adv-x="1126" d="M96 260q0 102 41 172t111.5 113t165 61.5t200.5 18.5q37 0 61.5 -1t47.5 -3v79q0 49 -7 86t-26.5 64t-56.5 40t-94 13q-96 0 -137.5 -41t-57.5 -123l-207 37q25 150 124 227.5t296 77.5q205 0 301 -85t96 -283v-490q0 -43 11.5 -62.5t52.5 -19.5q23 0 63 13l9 -140 q-31 -16 -77 -25t-89 -9q-84 0 -124 31.5t-55 92.5q-53 -59 -139 -94t-196 -35q-100 0 -162 30t-95.5 74t-45 93t-11.5 88zM336 293q0 -29 7 -53.5t24.5 -45t48 -31.5t78.5 -11q72 0 134 30.5t97 67.5v209q-16 2 -36.5 3t-61.5 1q-45 0 -96.5 -5t-94.5 -21.5t-71.5 -51.5 t-28.5 -92zM371 1192l180 336h266l-282 -357z" />
<glyph unicode="&#xe2;" horiz-adv-x="1126" d="M96 260q0 102 41 172t111.5 113t165 61.5t200.5 18.5q37 0 61.5 -1t47.5 -3v79q0 49 -7 86t-26.5 64t-56.5 40t-94 13q-96 0 -137.5 -41t-57.5 -123l-207 37q25 150 124 227.5t296 77.5q205 0 301 -85t96 -283v-490q0 -43 11.5 -62.5t52.5 -19.5q23 0 63 13l9 -140 q-31 -16 -77 -25t-89 -9q-84 0 -124 31.5t-55 92.5q-53 -59 -139 -94t-196 -35q-100 0 -162 30t-95.5 74t-45 93t-11.5 88zM217 1192l223 338h228l223 -338l-166 -10l-170 215l-170 -219zM336 293q0 -29 7 -53.5t24.5 -45t48 -31.5t78.5 -11q72 0 134 30.5t97 67.5v209 q-16 2 -36.5 3t-61.5 1q-45 0 -96.5 -5t-94.5 -21.5t-71.5 -51.5t-28.5 -92z" />
<glyph unicode="&#xe3;" horiz-adv-x="1126" d="M96 260q0 102 41 172t111.5 113t165 61.5t200.5 18.5q37 0 61.5 -1t47.5 -3v79q0 49 -7 86t-26.5 64t-56.5 40t-94 13q-96 0 -137.5 -41t-57.5 -123l-207 37q25 150 124 227.5t296 77.5q205 0 301 -85t96 -283v-490q0 -43 11.5 -62.5t52.5 -19.5q23 0 63 13l9 -140 q-31 -16 -77 -25t-89 -9q-84 0 -124 31.5t-55 92.5q-53 -59 -139 -94t-196 -35q-100 0 -162 30t-95.5 74t-45 93t-11.5 88zM211 1208q-8 66 3 117t38 85t63.5 51.5t81.5 17.5q49 0 90 -14.5t78 -32t71 -32t69 -14.5q37 0 53 19.5t16 81.5l131 -8q16 -127 -34 -196t-144 -69 q-49 0 -92 14.5t-81 33t-73 33t-67 14.5q-35 0 -53.5 -21.5t-14.5 -85.5zM336 293q0 -29 7 -53.5t24.5 -45t48 -31.5t78.5 -11q72 0 134 30.5t97 67.5v209q-16 2 -36.5 3t-61.5 1q-45 0 -96.5 -5t-94.5 -21.5t-71.5 -51.5t-28.5 -92z" />
<glyph unicode="&#xe4;" horiz-adv-x="1126" d="M96 260q0 102 41 172t111.5 113t165 61.5t200.5 18.5q37 0 61.5 -1t47.5 -3v79q0 49 -7 86t-26.5 64t-56.5 40t-94 13q-96 0 -137.5 -41t-57.5 -123l-207 37q25 150 124 227.5t296 77.5q205 0 301 -85t96 -283v-490q0 -43 11.5 -62.5t52.5 -19.5q23 0 63 13l9 -140 q-31 -16 -77 -25t-89 -9q-84 0 -124 31.5t-55 92.5q-53 -59 -139 -94t-196 -35q-100 0 -162 30t-95.5 74t-45 93t-11.5 88zM180 1382q0 66 42 105t110 39q66 0 107.5 -39t41.5 -105q0 -68 -42 -106.5t-107 -38.5q-68 0 -110 39t-42 106zM336 293q0 -29 7 -53.5t24.5 -45 t48 -31.5t78.5 -11q72 0 134 30.5t97 67.5v209q-16 2 -36.5 3t-61.5 1q-45 0 -96.5 -5t-94.5 -21.5t-71.5 -51.5t-28.5 -92zM631 1382q0 66 41 105t110 39q66 0 108 -39t42 -105q0 -68 -42 -106.5t-108 -38.5q-70 0 -110.5 39t-40.5 106z" />
<glyph unicode="&#xe5;" horiz-adv-x="1126" d="M96 260q0 102 41 172t111.5 113t165 61.5t200.5 18.5q37 0 61.5 -1t47.5 -3v79q0 49 -7 86t-26.5 64t-56.5 40t-94 13q-96 0 -137.5 -41t-57.5 -123l-207 37q25 150 124 227.5t296 77.5q205 0 301 -85t96 -283v-490q0 -43 11.5 -62.5t52.5 -19.5q23 0 63 13l9 -140 q-31 -16 -77 -25t-89 -9q-84 0 -124 31.5t-55 92.5q-53 -59 -139 -94t-196 -35q-100 0 -162 30t-95.5 74t-45 93t-11.5 88zM332 1372q0 53 18.5 94t49 69t70.5 41t85 13q92 0 157.5 -51.5t65.5 -157.5q0 -100 -61.5 -154.5t-161.5 -54.5t-161.5 52.5t-61.5 148.5zM336 293 q0 -29 7 -53.5t24.5 -45t48 -31.5t78.5 -11q72 0 134 30.5t97 67.5v209q-16 2 -36.5 3t-61.5 1q-45 0 -96.5 -5t-94.5 -21.5t-71.5 -51.5t-28.5 -92zM457 1378q0 -96 96 -96q47 0 71.5 25.5t24.5 72.5q0 94 -94 95q-43 0 -70.5 -25t-27.5 -72z" />
<glyph unicode="&#xe6;" horiz-adv-x="1742" d="M96 262q0 102 38 171t105.5 111t162 60.5t206.5 22.5q25 0 58.5 -1t56.5 -3v69q0 49 -7 88t-27.5 66.5t-57.5 42t-94 14.5q-96 0 -140.5 -40t-58.5 -124l-201 37q45 305 406 305q137 0 209.5 -40t113.5 -123q63 80 157.5 121.5t211.5 41.5q109 0 187.5 -34.5t129 -98 t75 -149.5t24.5 -191q0 -29 -1 -69.5t-5 -69.5h-687q2 -90 22.5 -147.5t55.5 -91t82 -47t107 -13.5q100 0 149 44t70 126l203 -47q-33 -152 -148 -235t-289 -83q-143 0 -235 42t-150 118q-86 -88 -194.5 -124t-216.5 -36q-100 0 -162 30t-96.5 74t-47 93t-12.5 90zM336 293 q0 -57 34 -100t126 -43q72 0 142.5 30.5t121.5 83.5q-16 47 -24.5 98.5t-12.5 108.5q-20 0 -46 1t-52 -1q-59 0 -112.5 -9t-92.5 -28.5t-61.5 -54.5t-22.5 -86zM963 633h444q4 137 -47 200.5t-158 63.5q-45 0 -87 -15.5t-75.5 -48t-54 -83t-22.5 -117.5z" />
<glyph unicode="&#xe7;" horiz-adv-x="1107" d="M88 516q0 276 137 420.5t387 144.5q176 0 290 -99t128 -288l-217 -30q-12 104 -59 166.5t-152 62.5q-51 0 -99 -15.5t-86 -54.5t-60.5 -107.5t-22.5 -172.5q0 -109 20.5 -180.5t55 -114.5t83 -61.5t103.5 -18.5q98 0 156.5 50t76.5 161l205 -41q-12 -88 -48 -153.5 t-88 -109.5t-119.5 -67.5t-143.5 -30.5l-8 -55q33 -6 62.5 -18.5t52 -34t37 -53t14.5 -76.5q0 -102 -69 -158.5t-173 -56.5q-53 0 -96 11t-72 26l35 121q23 -10 49.5 -16.5t56.5 -6.5q102 0 103 84q0 49 -35 67.5t-109 20.5l21 148q-111 12 -188.5 56t-129 114.5t-75 164 t-23.5 201.5z" />
<glyph unicode="&#xe8;" horiz-adv-x="1120" d="M88 528q0 143 40 248t109.5 172.5t160.5 100t196 32.5q115 0 197.5 -34.5t135 -97t77 -148.5t24.5 -189q0 -68 -6 -141h-686q2 -84 22.5 -141.5t55.5 -93t83 -52t105 -16.5q102 0 150.5 45t66.5 127l201 -49q-31 -152 -144.5 -234t-287.5 -82q-143 0 -238.5 45.5 t-154 122t-83 177t-24.5 208.5zM322 1528h266l180 -336l-164 -21zM340 635h444q0 135 -49 197.5t-155 62.5q-45 0 -86 -14.5t-74 -45t-54.5 -80.5t-25.5 -120z" />
<glyph unicode="&#xe9;" horiz-adv-x="1120" d="M88 528q0 143 40 248t109.5 172.5t160.5 100t196 32.5q115 0 197.5 -34.5t135 -97t77 -148.5t24.5 -189q0 -68 -6 -141h-686q2 -84 22.5 -141.5t55.5 -93t83 -52t105 -16.5q102 0 150.5 45t66.5 127l201 -49q-31 -152 -144.5 -234t-287.5 -82q-143 0 -238.5 45.5 t-154 122t-83 177t-24.5 208.5zM340 635h444q0 135 -49 197.5t-155 62.5q-45 0 -86 -14.5t-74 -45t-54.5 -80.5t-25.5 -120zM399 1192l181 336h266l-283 -357z" />
<glyph unicode="&#xea;" horiz-adv-x="1120" d="M88 528q0 143 40 248t109.5 172.5t160.5 100t196 32.5q115 0 197.5 -34.5t135 -97t77 -148.5t24.5 -189q0 -68 -6 -141h-686q2 -84 22.5 -141.5t55.5 -93t83 -52t105 -16.5q102 0 150.5 45t66.5 127l201 -49q-31 -152 -144.5 -234t-287.5 -82q-143 0 -238.5 45.5 t-154 122t-83 177t-24.5 208.5zM246 1192l223 338h227l224 -338l-166 -10l-170 215l-170 -219zM340 635h444q0 135 -49 197.5t-155 62.5q-45 0 -86 -14.5t-74 -45t-54.5 -80.5t-25.5 -120z" />
<glyph unicode="&#xeb;" horiz-adv-x="1120" d="M88 528q0 143 40 248t109.5 172.5t160.5 100t196 32.5q115 0 197.5 -34.5t135 -97t77 -148.5t24.5 -189q0 -68 -6 -141h-686q2 -84 22.5 -141.5t55.5 -93t83 -52t105 -16.5q102 0 150.5 45t66.5 127l201 -49q-31 -152 -144.5 -234t-287.5 -82q-143 0 -238.5 45.5 t-154 122t-83 177t-24.5 208.5zM209 1382q0 66 42 105t109 39q66 0 108 -39t42 -105q0 -68 -42 -106.5t-108 -38.5q-68 0 -109.5 39t-41.5 106zM340 635h444q0 135 -49 197.5t-155 62.5q-45 0 -86 -14.5t-74 -45t-54.5 -80.5t-25.5 -120zM659 1382q0 66 41 105t111 39 q66 0 108 -39t42 -105q0 -68 -42 -106.5t-108 -38.5q-70 0 -111 39t-41 106z" />
<glyph unicode="&#xec;" horiz-adv-x="526" d="M-16 1528h266l180 -336l-164 -21zM150 0v1059h235v-1059h-235z" />
<glyph unicode="&#xed;" horiz-adv-x="526" d="M113 1192l180 336h266l-283 -357zM150 0v1059h235v-1059h-235z" />
<glyph unicode="&#xee;" horiz-adv-x="526" d="M-72 1192l224 338h227l223 -338l-166 -10l-170 215l-170 -219zM150 0v1059h235v-1059h-235z" />
<glyph unicode="&#xef;" horiz-adv-x="526" d="M-109 1382q0 66 42 105t110 39q66 0 108 -39t42 -105q0 -68 -42 -106.5t-108 -38.5q-68 0 -110 39t-42 106zM150 0v1059h235v-1059h-235zM342 1382q0 66 41 105t111 39q66 0 107.5 -39t41.5 -105q0 -68 -42 -106.5t-107 -38.5q-70 0 -111 39t-41 106z" />
<glyph unicode="&#xf0;" horiz-adv-x="1189" d="M84 502q0 111 28.5 209t86 171.5t144.5 116.5t202 43q147 0 272 -71l8 6q-23 72 -58.5 132t-88.5 112l-186 -105l-91 144l150 83q-53 29 -125 48.5t-133 29.5l80 160q209 -31 356 -131l201 121l102 -154l-158 -90q121 -135 171.5 -310t50.5 -370q0 -133 -24.5 -254 t-85 -214t-161 -148.5t-252.5 -55.5q-125 0 -217 39t-152.5 109t-90 166t-29.5 213zM328 510q0 -78 13 -142.5t44 -110.5t80 -72.5t119 -26.5q80 0 133 34.5t86 97t46 148.5t13 191q0 33 -2 65.5t-6 67.5q-41 41 -109.5 69.5t-148.5 28.5q-129 0 -198.5 -85t-69.5 -265z" />
<glyph unicode="&#xf1;" horiz-adv-x="1193" d="M145 0v1059h209l11 -111q72 57 164 95t202 38q174 0 251 -90t77 -270v-721h-236v682q0 100 -40 151.5t-134 51.5q-41 0 -80 -11.5t-74.5 -28t-65.5 -35.5t-48 -38v-772h-236zM258 1208q-8 66 3 117t38 85t63.5 51.5t81.5 17.5q49 0 90 -14.5t78 -32t71 -32t69 -14.5 q37 0 53 19.5t16 81.5l131 -8q16 -127 -34 -196t-144 -69q-49 0 -92 14.5t-81 33t-72.5 33t-67.5 14.5q-35 0 -53.5 -21.5t-14.5 -85.5z" />
<glyph unicode="&#xf2;" horiz-adv-x="1191" d="M88 524q0 127 33 230.5t99.5 176.5t164.5 111.5t229 38.5t224.5 -38.5t152 -109.5t86 -169t27.5 -215q0 -131 -30 -236.5t-92 -180.5t-159.5 -116t-234.5 -41q-139 0 -235.5 41t-155 115t-84 174.5t-25.5 218.5zM334 532q0 -195 63.5 -284.5t202.5 -89.5q123 0 190.5 87 t67.5 292q0 98 -16.5 166.5t-48 109.5t-78.5 59.5t-109 18.5q-127 0 -199.5 -83t-72.5 -276zM346 1528h266l181 -336l-164 -21z" />
<glyph unicode="&#xf3;" horiz-adv-x="1191" d="M88 524q0 127 33 230.5t99.5 176.5t164.5 111.5t229 38.5t224.5 -38.5t152 -109.5t86 -169t27.5 -215q0 -131 -30 -236.5t-92 -180.5t-159.5 -116t-234.5 -41q-139 0 -235.5 41t-155 115t-84 174.5t-25.5 218.5zM334 532q0 -195 63.5 -284.5t202.5 -89.5q123 0 190.5 87 t67.5 292q0 98 -16.5 166.5t-48 109.5t-78.5 59.5t-109 18.5q-127 0 -199.5 -83t-72.5 -276zM424 1192l180 336h266l-282 -357z" />
<glyph unicode="&#xf4;" horiz-adv-x="1191" d="M88 524q0 127 33 230.5t99.5 176.5t164.5 111.5t229 38.5t224.5 -38.5t152 -109.5t86 -169t27.5 -215q0 -131 -30 -236.5t-92 -180.5t-159.5 -116t-234.5 -41q-139 0 -235.5 41t-155 115t-84 174.5t-25.5 218.5zM270 1192l224 338h227l223 -338l-166 -10l-170 215 l-170 -219zM334 532q0 -195 63.5 -284.5t202.5 -89.5q123 0 190.5 87t67.5 292q0 98 -16.5 166.5t-48 109.5t-78.5 59.5t-109 18.5q-127 0 -199.5 -83t-72.5 -276z" />
<glyph unicode="&#xf5;" horiz-adv-x="1191" d="M88 524q0 127 33 230.5t99.5 176.5t164.5 111.5t229 38.5t224.5 -38.5t152 -109.5t86 -169t27.5 -215q0 -131 -30 -236.5t-92 -180.5t-159.5 -116t-234.5 -41q-139 0 -235.5 41t-155 115t-84 174.5t-25.5 218.5zM264 1208q-8 66 3.5 117t38 85t63.5 51.5t82 17.5 q49 0 90 -14.5t77.5 -32t70.5 -32t69 -14.5q37 0 53 19.5t16 81.5l131 -8q16 -127 -34 -196t-144 -69q-49 0 -92 14.5t-81 33t-72.5 33t-67.5 14.5q-35 0 -53.5 -21.5t-14.5 -85.5zM334 532q0 -195 63.5 -284.5t202.5 -89.5q123 0 190.5 87t67.5 292q0 98 -16.5 166.5 t-48 109.5t-78.5 59.5t-109 18.5q-127 0 -199.5 -83t-72.5 -276z" />
<glyph unicode="&#xf6;" horiz-adv-x="1191" d="M88 524q0 127 33 230.5t99.5 176.5t164.5 111.5t229 38.5t224.5 -38.5t152 -109.5t86 -169t27.5 -215q0 -131 -30 -236.5t-92 -180.5t-159.5 -116t-234.5 -41q-139 0 -235.5 41t-155 115t-84 174.5t-25.5 218.5zM233 1382q0 66 42 105t110 39q66 0 108 -39t42 -105 q0 -68 -42 -106.5t-108 -38.5q-68 0 -110 39t-42 106zM334 532q0 -195 63.5 -284.5t202.5 -89.5q123 0 190.5 87t67.5 292q0 98 -16.5 166.5t-48 109.5t-78.5 59.5t-109 18.5q-127 0 -199.5 -83t-72.5 -276zM684 1382q0 66 41 105t111 39q66 0 107.5 -39t41.5 -105 q0 -68 -42 -106.5t-107 -38.5q-70 0 -111 39t-41 106z" />
<glyph unicode="&#xf7;" d="M193 557v201h780v-201h-780zM430 330q0 63 36 100t107 37q72 0 108 -37t36 -100q0 -66 -36 -100.5t-108 -34.5q-143 0 -143 135zM430 985q0 63 36 100t107 37q72 0 108 -37t36 -100q0 -135 -144 -135q-143 0 -143 135z" />
<glyph unicode="&#xf8;" horiz-adv-x="1191" d="M88 524q0 127 33 230.5t99.5 176.5t164.5 111.5t229 38.5q29 0 54.5 -2t50.5 -6l55 127h215l-86 -192q104 -66 152.5 -186t48.5 -273q0 -131 -30 -236.5t-92 -180.5t-159.5 -116t-234.5 -41q-72 0 -133 13l-60 -135h-217l92 208q-98 72 -140 192t-42 271zM334 532 q0 -154 39 -239l264 596q-8 0 -15.5 1t-15.5 1q-127 0 -199.5 -83t-72.5 -276zM532 164q31 -6 68 -6q123 0 190.5 87t67.5 292q0 170 -49 254z" />
<glyph unicode="&#xf9;" horiz-adv-x="1187" d="M143 336v723h236v-682q0 -100 36 -150.5t130 -50.5q39 0 78 10.5t74.5 26.5t65.5 35.5t48 38.5v772h236v-1059h-205l-17 117q-70 -63 -161 -101.5t-201 -38.5q-166 0 -243 89.5t-77 269.5zM309 1528h266l181 -336l-164 -21z" />
<glyph unicode="&#xfa;" horiz-adv-x="1187" d="M143 336v723h236v-682q0 -100 36 -150.5t130 -50.5q39 0 78 10.5t74.5 26.5t65.5 35.5t48 38.5v772h236v-1059h-205l-17 117q-70 -63 -161 -101.5t-201 -38.5q-166 0 -243 89.5t-77 269.5zM434 1192l180 336h267l-283 -357z" />
<glyph unicode="&#xfb;" horiz-adv-x="1187" d="M143 336v723h236v-682q0 -100 36 -150.5t130 -50.5q39 0 78 10.5t74.5 26.5t65.5 35.5t48 38.5v772h236v-1059h-205l-17 117q-70 -63 -161 -101.5t-201 -38.5q-166 0 -243 89.5t-77 269.5zM260 1192l223 338h228l223 -338l-166 -10l-170 215l-170 -219z" />
<glyph unicode="&#xfc;" horiz-adv-x="1187" d="M143 336v723h236v-682q0 -100 36 -150.5t130 -50.5q39 0 78 10.5t74.5 26.5t65.5 35.5t48 38.5v772h236v-1059h-205l-17 117q-70 -63 -161 -101.5t-201 -38.5q-166 0 -243 89.5t-77 269.5zM223 1382q0 66 42 105t110 39q66 0 107.5 -39t41.5 -105q0 -68 -42 -106.5 t-107 -38.5q-68 0 -110 39t-42 106zM674 1382q0 66 41 105t110 39q66 0 108 -39t42 -105q0 -68 -42 -106.5t-108 -38.5q-70 0 -110.5 39t-40.5 106z" />
<glyph unicode="&#xfd;" horiz-adv-x="1028" d="M0 -416l23 176q35 -12 81 -22t84 -10q53 0 96.5 31.5t75.5 113.5l43 111l-397 1075h254l260 -795h2l260 795h242l-442 -1194q-33 -88 -68 -149.5t-78 -99.5t-98 -55.5t-125 -17.5q-59 0 -119.5 12.5t-93.5 28.5zM406 1192l180 336h266l-283 -357z" />
<glyph unicode="&#xfe;" horiz-adv-x="1200" d="M147 -434v1980h232v-590q68 61 149.5 93t190.5 32q84 0 155.5 -27.5t124 -90t82 -163t29.5 -245.5q0 -158 -35 -267.5t-95 -179t-140 -101.5t-168 -32q-96 0 -168 29t-127 74v-512h-230zM383 262q14 -12 40 -28.5t56.5 -31t66.5 -24.5t75 -10q133 0 188 103.5t55 279.5 q0 182 -55 260t-172 78q-37 0 -74 -10.5t-70.5 -26.5t-61.5 -36.5t-48 -39.5v-514z" />
<glyph unicode="&#xff;" horiz-adv-x="1028" d="M0 -416l23 176q35 -12 81 -22t84 -10q53 0 96.5 31.5t75.5 113.5l43 111l-397 1075h254l260 -795h2l260 795h242l-442 -1194q-33 -88 -68 -149.5t-78 -99.5t-98 -55.5t-125 -17.5q-59 0 -119.5 12.5t-93.5 28.5zM147 1382q0 66 42 105t110 39q66 0 108 -39t42 -105 q0 -68 -42 -106.5t-108 -38.5q-68 0 -110 39t-42 106zM598 1382q0 66 41 105t111 39q66 0 107.5 -39t41.5 -105q0 -68 -42 -106.5t-107 -38.5q-70 0 -111 39t-41 106z" />
<glyph unicode="&#x2dc;" horiz-adv-x="1024" d="M168 1208q-8 66 3 117t38 85t63.5 51.5t81.5 17.5q49 0 90 -14.5t78 -32t71 -32t69 -14.5q37 0 53 19.5t16 81.5l131 -8q16 -127 -34 -196t-144 -69q-49 0 -92 14.5t-81 33t-73 33t-67 14.5q-35 0 -53.5 -21.5t-14.5 -85.5z" />
<glyph unicode="&#x2000;" horiz-adv-x="940" />
<glyph unicode="&#x2001;" horiz-adv-x="1880" />
<glyph unicode="&#x2002;" horiz-adv-x="940" />
<glyph unicode="&#x2003;" horiz-adv-x="1880" />
<glyph unicode="&#x2004;" horiz-adv-x="626" />
<glyph unicode="&#x2005;" horiz-adv-x="470" />
<glyph unicode="&#x2006;" horiz-adv-x="313" />
<glyph unicode="&#x2007;" horiz-adv-x="313" />
<glyph unicode="&#x2008;" horiz-adv-x="235" />
<glyph unicode="&#x2009;" horiz-adv-x="376" />
<glyph unicode="&#x200a;" horiz-adv-x="104" />
<glyph unicode="&#x2010;" horiz-adv-x="645" d="M41 496v211h555v-211h-555z" />
<glyph unicode="&#x2011;" horiz-adv-x="645" d="M41 496v211h555v-211h-555z" />
<glyph unicode="&#x2012;" horiz-adv-x="645" d="M41 496v211h555v-211h-555z" />
<glyph unicode="&#x2013;" horiz-adv-x="1024" d="M0 487v179h1022v-179h-1022z" />
<glyph unicode="&#x2014;" horiz-adv-x="2048" d="M0 487v179h2046v-179h-2046z" />
<glyph unicode="&#x2018;" horiz-adv-x="440" d="M66 1126l172 480l176 -21l-109 -459h-239z" />
<glyph unicode="&#x2019;" horiz-adv-x="440" d="M59 1118l109 459h240l-172 -479z" />
<glyph unicode="&#x201c;" horiz-adv-x="780" d="M66 1126l172 480l176 -21l-109 -459h-239zM406 1126l172 480l176 -21l-109 -459h-239z" />
<glyph unicode="&#x201d;" horiz-adv-x="780" d="M59 1118l109 459h240l-172 -479zM399 1118l109 459h240l-173 -479z" />
<glyph unicode="&#x201e;" horiz-adv-x="753" d="M10 -272l109 458h239l-172 -479zM350 -272l109 458h239l-172 -479z" />
<glyph unicode="&#x2022;" horiz-adv-x="858" d="M137 573q0 143 75 214t216 71t217 -71t76 -214t-76 -214.5t-217 -71.5t-216 71.5t-75 214.5z" />
<glyph unicode="&#x2026;" horiz-adv-x="1384" d="M90 129q0 156 160 156t160 -156q0 -154 -160 -154t-160 154zM528 129q0 156 160 156t160 -156q0 -154 -160 -154t-160 154zM975 129q0 156 160 156q159 0 159 -156q0 -154 -159 -154q-160 0 -160 154z" />
<glyph unicode="&#x202f;" horiz-adv-x="376" />
<glyph unicode="&#x2039;" horiz-adv-x="571" d="M100 528l183 308h200l-176 -301l170 -324h-198z" />
<glyph unicode="&#x203a;" horiz-adv-x="571" d="M86 836h201l180 -316l-178 -309h-201l172 309z" />
<glyph unicode="&#x205f;" horiz-adv-x="470" />
<glyph unicode="&#x20ac;" horiz-adv-x="1280" d="M16 477l33 172h135q-2 16 -2 34.5v37.5v42t2 40h-114l32 172h101q25 139 76 239.5t124.5 166t167 97t201.5 31.5q98 0 181 -24.5t144.5 -79.5t98.5 -143t43 -213l-209 -23q-16 156 -73.5 220.5t-186.5 64.5q-152 0 -228.5 -89t-105.5 -247h445l-33 -172h-428v-70v-43 t2 -41h405l-32 -172h-355q29 -154 103.5 -228.5t210.5 -74.5q129 0 190.5 63.5t87.5 192.5l199 -39q-16 -119 -65.5 -198.5t-118 -128t-148.5 -69t-160 -20.5q-106 0 -195 28t-159 88.5t-117 155.5t-67 230h-185z" />
<glyph unicode="&#x2122;" horiz-adv-x="1724" d="M66 1362v121h651v-121h-256v-649h-142v649h-253zM821 713v770h164l223 -598l230 598h151v-770h-127v524l-205 -524h-108l-199 526v-526h-129z" />
<glyph unicode="&#x25fc;" horiz-adv-x="1054" d="M0 0v1055h1055v-1055h-1055z" />
</font>
</defs>
</svg>
