<?xml version="1.0" standalone="no"?>
<!DOCTYPE svg PUBLIC "-//W3C//DTD SVG 1.1//EN" "http://www.w3.org/Graphics/SVG/1.1/DTD/svg11.dtd" >
<svg xmlns="http://www.w3.org/2000/svg">
<metadata></metadata>
<defs>
<font id="adelle_sansregular" horiz-adv-x="1554" >
<font-face units-per-em="2048" ascent="1536" descent="-512" />
<missing-glyph horiz-adv-x="438" />
<glyph horiz-adv-x="0" />
<glyph horiz-adv-x="0" />
<glyph unicode="&#xd;" horiz-adv-x="681" />
<glyph unicode=" "  horiz-adv-x="438" />
<glyph unicode="&#x09;" horiz-adv-x="438" />
<glyph unicode="&#xa0;" horiz-adv-x="438" />
<glyph unicode="!" horiz-adv-x="544" d="M137 106q0 133 137 134q138 -1 138 -134q0 -131 -138 -131q-137 0 -137 131zM168 1483h209l-33 -1098h-141z" />
<glyph unicode="&#x22;" horiz-adv-x="739" d="M119 952v531h184v-531h-184zM436 952v531h185v-531h-185z" />
<glyph unicode="#" horiz-adv-x="1243" d="M70 295l32 141h226l47 297h-236l29 144h227l39 268h150l-41 -268h243l39 268h150l-41 -268h235l-26 -144h-230l-43 -297h234l-29 -141h-225l-45 -295h-148l45 295h-247l-45 -295h-148l43 295h-235zM475 436h248l43 297h-244z" />
<glyph unicode="$" horiz-adv-x="1083" d="M57 403l170 35q25 -137 78 -202q51 -63 170 -76v493q-41 10 -74.5 22.5t-62.5 24.5q-55 25 -111 68q-55 43 -84 115q-29 74 -28 166q0 168 98 270q98 100 258 123v178h156v-172q309 -29 350 -363l-172 -26l-12 2q-18 100 -60 160q-41 57 -123 73v-491q176 -45 277 -133 q98 -86 98 -262q0 -170 -98 -271q-98 -102 -271 -123v-176h-153v174q-365 25 -406 391zM285 1075v2q0 -84 41 -141q39 -55 139 -92v450q-180 -33 -180 -219zM608 164q189 41 189 227q0 96 -49 146q-51 49 -140 77v-450z" />
<glyph unicode="%" horiz-adv-x="1640" d="M55 1124q0 172 90 279q88 104 256 104q324 0 324 -356q0 -178 -88 -281q-90 -104 -252 -104l-2 -2q-174 0 -250 100q-78 102 -78 260zM219 1137q0 -115 37 -176t133 -62v-2q94 0 135 61q39 59 39 183q0 111 -37 172t-131 61q-176 0 -176 -237zM250 -41l899 1516h166 l-897 -1516h-168zM874 330q0 172 91 278q88 104 256 105q324 0 323 -357q0 -178 -88 -280q-90 -104 -252 -105l-2 -2q-174 0 -250 101q-78 102 -78 260zM1038 342q0 -115 37 -176t133 -62v-2q94 0 135 62q39 59 39 182q0 111 -36 172q-37 61 -132 62q-176 0 -176 -238z" />
<glyph unicode="&#x26;" horiz-adv-x="1431" d="M117 379q0 143 67 242q68 98 207 170q-80 147 -80 294t105 246q104 98 268 99q129 0 219 -64q92 -66 92 -217l6 -6q0 -233 -307 -365l-73 -33q68 -111 172 -239q94 -121 172 -203q98 139 104 395h166q-2 -305 -152 -497q94 -74 183 -74q49 0 92 20l33 -139 q-63 -35 -148 -35q-137 0 -282 109q-145 -111 -381 -111q-209 0 -336 115t-127 293zM307 393q0 -113 78 -194q76 -80 225 -80h2q137 0 234 61q-117 111 -236 273q-49 66 -86 119t-63 94q-154 -96 -154 -273zM500 1096q0 -113 61 -238q6 0 37 14l35 15q205 88 205 243 q0 66 -39 105q-41 41 -117 41q-80 0 -131 -47q-49 -47 -49 -129z" />
<glyph unicode="'" horiz-adv-x="421" d="M119 952v531h184v-531h-184z" />
<glyph unicode="(" horiz-adv-x="649" d="M115 573q0 455 313 910h193q-154 -242 -234 -457q-80 -219 -80 -448q0 -254 74 -457q74 -205 215 -434l-186 2q-295 444 -295 884z" />
<glyph unicode=")" horiz-adv-x="649" d="M10 1483h193q313 -455 313 -910q0 -440 -295 -884l-186 -2q141 229 215 434q74 203 74 457q0 229 -80 448q-80 215 -234 457z" />
<glyph unicode="*" horiz-adv-x="964" d="M106 1239l29 88l266 -63l39 282h86l33 -282l262 65l27 -88l-244 -123l162 -246l-70 -55l-217 205l-215 -211l-69 59l159 248z" />
<glyph unicode="+" horiz-adv-x="1167" d="M197 573v170h301v308h170v-308h301v-170h-301v-311h-170v311h-301z" />
<glyph unicode="," horiz-adv-x="446" d="M29 -246l114 463h207l-172 -481z" />
<glyph unicode="-" horiz-adv-x="647" d="M41 514v178h555v-178h-555z" />
<glyph unicode="." horiz-adv-x="462" d="M92 113q0 137 139 137t140 -137q0 -137 -140 -138q-139 0 -139 138z" />
<glyph unicode="/" horiz-adv-x="776" d="M14 -188l576 1734h168l-574 -1734h-170z" />
<glyph unicode="0" horiz-adv-x="1150" d="M82 735q0 174 24 307q25 131 80 240q55 106 158 166q100 57 246 57q119 0 203 -39q88 -41 139 -104q49 -61 82 -164q33 -102 41 -201q4 -51 7 -110.5t3 -126.5q0 -147 -12 -260q-12 -119 -45 -215q-35 -102 -88 -166q-55 -66 -144 -105q-86 -39 -209 -39q-119 0 -205 37 t-139 103t-84 166t-43 208q-12 106 -12 250zM270 725q0 -145 13 -244q12 -98 43 -184t92 -129t157 -43l5 -12q176 0 239 155q63 154 64 467q0 150 -13 252q-12 100 -43 187q-31 86 -90 126q-59 41 -151 41q-180 0 -248 -153q-68 -154 -68 -463z" />
<glyph unicode="1" horiz-adv-x="845" d="M80 1309q143 12 244 53q96 39 168 121h106v-1483l-186 -4v1227q-47 -29 -152 -47q-104 -18 -166 -19z" />
<glyph unicode="2" horiz-adv-x="1071" d="M98 1135q51 375 449 374l-2 -2q190 0 299 -92t108 -276q0 -156 -73 -285q-74 -129 -248 -334l-301 -352v-4h643v-164h-860v156l348 419q172 207 239 318q63 106 64 240q0 219 -234 219q-131 0 -186 -62q-53 -59 -76 -186z" />
<glyph unicode="3" horiz-adv-x="1107" d="M78 319l172 35q25 -113 74 -168t184 -55q121 0 203 72q80 70 80 215q0 281 -312 280h-133v158h94q152 0 242 74q88 74 88 198q0 221 -233 222q-123 0 -179 -50q-55 -49 -86 -159l-166 37q66 330 449 329q195 0 297 -94q104 -96 104 -258q0 -152 -86 -240 q-86 -90 -202 -116v-6q315 -57 315 -377q0 -201 -129 -320q-131 -121 -346 -121q-391 0 -430 344z" />
<glyph unicode="4" horiz-adv-x="1132" d="M45 365v139l633 979h233v-959h174v-159h-176v-365h-180v365h-684zM229 524h502v774z" />
<glyph unicode="5" horiz-adv-x="1107" d="M63 317l175 43q43 -227 270 -227q127 0 213 86t86 262q0 154 -74 228t-196 73q-145 0 -265 -112l-127 57l60 748h708v-164h-563l-43 -477q121 100 291 100q174 0 289 -107q117 -109 117 -344q0 -229 -134 -372q-133 -141 -362 -142q-172 0 -295 86q-121 86 -150 262z" />
<glyph unicode="6" horiz-adv-x="1157" d="M129 690q0 109 12 213q12 102 49 217q37 111 97 197q57 80 157 137q98 55 228 55q315 0 372 -315l-172 -53q-27 115 -79 162q-51 45 -142 45q-98 0 -168 -56q-70 -55 -106 -149q-18 -47 -31.5 -95.5t-21.5 -97.5q-16 -98 -19 -209q57 63 158 111q100 47 207 47 q190 0 293 -115q102 -115 102 -311q0 -238 -125 -369t-338 -131q-137 0 -235 56q-98 55 -148 159q-47 100 -69 226q-20 115 -21 276zM311 575q2 -78 13 -135q4 -29 11 -59.5t17 -63.5q18 -66 49 -104q31 -41 82 -68t119 -26q121 0 195 86t73 250q0 283 -241 282 q-168 0 -318 -159v-3z" />
<glyph unicode="7" horiz-adv-x="1048" d="M72 1319v164h934v-144l-605 -1339h-198l606 1319h-737z" />
<glyph unicode="8" horiz-adv-x="1105" d="M74 356q0 262 311 404q-262 121 -262 360q0 186 127 289q125 100 332 100q199 0 313 -92q115 -92 115 -248q0 -238 -283 -385v-4q156 -68 231 -153q78 -88 78 -246q0 -180 -135 -293q-137 -115 -358 -115q-238 0 -353 107q-117 106 -116 276zM262 362q0 -236 287 -235 q150 0 221 72q72 72 72 178q0 63 -27 110q-29 49 -80 86q-27 18 -50 33t-46 25t-49.5 22.5t-61.5 24.5h-2q-131 -61 -196 -131q-68 -72 -68 -185zM313 1143q0 -102 68 -166q67 -66 190 -129q248 125 248 307q0 197 -250 197q-121 0 -188 -56q-68 -55 -68 -153z" />
<glyph unicode="9" horiz-adv-x="1157" d="M96 299l164 47q27 -117 90 -168q61 -49 166 -49q324 0 336 594q-59 -66 -156 -111q-96 -45 -207 -45q-193 0 -290 117q-98 117 -99 326q0 236 129 368q129 133 342 133q115 0 195 -38q82 -41 135 -105q51 -61 82 -160q31 -94 43 -194q12 -98 12 -223q0 -815 -526 -816 q-354 0 -416 324zM283 1014q0 -293 241 -293q90 0 174 45q88 47 146 117l-6 -2q-2 51 -5.5 94t-9.5 78t-15 71.5t-24 73.5q-29 76 -86 115q-59 41 -145 41q-123 0 -197 -86t-73 -254z" />
<glyph unicode=":" horiz-adv-x="462" d="M92 113q0 137 139 137t140 -137q0 -137 -140 -138q-139 0 -139 138zM92 889q0 137 139 137t140 -137q0 -137 -140 -137q-139 0 -139 137z" />
<glyph unicode=";" horiz-adv-x="446" d="M10 -246l115 463h207l-172 -481zM117 889q0 137 139 137t139 -137t-139 -137t-139 137z" />
<glyph unicode="&#x3c;" horiz-adv-x="1167" d="M170 487v201l776 313v-172l-606 -235l606 -227v-177z" />
<glyph unicode="=" horiz-adv-x="1167" d="M201 322v174h766v-174h-766zM201 657v174h766v-174h-766z" />
<glyph unicode="&#x3e;" horiz-adv-x="1167" d="M186 201v166l607 227l-607 231v176l777 -313v-192z" />
<glyph unicode="?" horiz-adv-x="1040" d="M41 1124q29 162 141 262q115 102 326 103q195 0 313 -94q121 -96 121 -308q0 -377 -442 -464v-240l-176 -4v366q193 14 311 91q117 74 117 241q0 137 -68 193q-68 55 -186 55q-115 0 -185 -51q-72 -53 -98 -180zM272 102q0 133 138 134q137 -1 137 -134q0 -131 -137 -131 t-138 131z" />
<glyph unicode="@" horiz-adv-x="1724" d="M94 383q0 354 221 569t584 215q322 0 524 -172q203 -172 203 -487q0 -258 -96 -389q-96 -129 -262 -129q-82 0 -144 30q-61 31 -86 82q-90 -121 -245 -120q-158 0 -228 104q-72 106 -71 276q0 197 96 324t256 127q111 0 188 -74l10 62h127v-520q0 -86 19 -125 q18 -39 90 -39q86 0 139 98q53 100 54 270q0 549 -584 549q-293 0 -463 -182q-168 -180 -168 -459q0 -307 174 -461t463 -153q254 0 410 125l69 -119q-168 -150 -502 -150q-344 0 -561 193t-217 555zM649 373q0 -264 170 -264q125 0 203 127v385q-72 61 -160 61 q-96 0 -153 -76q-59 -78 -60 -233z" />
<glyph unicode="A" horiz-adv-x="1406" d="M74 0l499 1483h246l516 -1483h-207l-149 440h-569l-146 -440h-190zM455 602h477l-238 709h-2z" />
<glyph unicode="B" horiz-adv-x="1286" d="M195 6v1483h510q244 0 346 -98q100 -98 100 -267q0 -147 -80 -233t-213 -117v-4q354 -47 354 -369q0 -401 -548 -401zM379 840l209 -2q68 0 127 12q61 12 116 39q59 29 93 82q33 53 32 131q0 133 -73 182q-74 49 -234 49h-270v-493zM381 164h252q188 0 282 51 q96 53 97 205q0 264 -336 264h-295v-520z" />
<glyph unicode="C" horiz-adv-x="1417" d="M109 719q0 373 184 581q184 209 504 209q242 0 387 -123q143 -123 159 -374l-176 -19q-23 178 -110 264q-90 86 -266 86q-236 0 -365 -153q-129 -154 -129 -455q0 -598 469 -598q178 0 268 76q92 78 129 236l170 -35q-25 -158 -116 -258q-92 -102 -209 -142 q-115 -39 -254 -39h4q-336 0 -492 197q-158 199 -157 547z" />
<glyph unicode="D" horiz-adv-x="1490" d="M197 -2v1483h456q375 0 555 -187q180 -186 181 -530q0 -354 -193 -559t-578 -205zM385 158l231 -2q285 0 431 151q145 152 145 428q0 324 -137 455t-418 131h-252v-1163z" />
<glyph unicode="E" horiz-adv-x="1177" d="M197 0v1483h866v-164h-678v-490h637v-163h-637v-502h705v-164h-893z" />
<glyph unicode="F" horiz-adv-x="1120" d="M197 0v1483h866v-164h-678v-514h627v-164h-627v-641h-188z" />
<glyph unicode="G" horiz-adv-x="1507" d="M102 723q0 375 185 582q183 206 507 206h3q512 0 549 -493l-181 -19q-18 180 -110 265q-94 84 -267 84q-236 0 -364 -160q-129 -160 -129 -449q0 -604 475 -604q188 0 293 105q104 104 104 249v127h-393v154h572v-770h-138l-26 199q-41 -96 -166 -160q-125 -63 -279 -64 q-322 0 -479 201q-156 199 -156 547z" />
<glyph unicode="H" horiz-adv-x="1490" d="M197 0v1483h188v-641h721v641h188v-1483h-188v672h-721v-672h-188z" />
<glyph unicode="I" horiz-adv-x="581" d="M197 0v1483h188v-1483h-188z" />
<glyph unicode="J" horiz-adv-x="1021" d="M55 319l181 31q12 -113 53 -166q39 -51 153 -51q102 0 158 49q55 49 55 185l2 1110h189v-1108q0 -213 -105 -306q-104 -92 -301 -92q-182 0 -278 84q-94 82 -107 264z" />
<glyph unicode="K" horiz-adv-x="1318" d="M197 0v1483h188v-723l666 723h211l-584 -635l612 -848h-221l-520 700l-164 -174v-526h-188z" />
<glyph unicode="L" horiz-adv-x="1130" d="M197 0v1483h188v-1317h668v-166h-856z" />
<glyph unicode="M" horiz-adv-x="1837" d="M197 0v1483h286l437 -1262h2l436 1262h282v-1483h-178v1280h-2l-448 -1280h-197l-440 1282h-4v-1282h-174z" />
<glyph unicode="N" horiz-adv-x="1525" d="M197 0v1483h247l711 -1231v1231h174v-1483h-227l-729 1243v-1243h-176z" />
<glyph unicode="O" d="M98 741q0 340 185 553q184 213 514 213q322 0 487 -204q166 -207 166 -535q0 -369 -176 -582t-508 -213t-498 209t-166 559h-4zM295 741q0 -293 129 -446q129 -154 350 -154v-4q217 0 350 154q131 152 131 457q0 289 -125 440q-126 153 -341 153h-3q-221 0 -356 -155 q-135 -158 -135 -445z" />
<glyph unicode="P" horiz-adv-x="1261" d="M197 0v1483h483q264 0 379 -123q115 -125 115 -322q0 -499 -564 -499h-2h-225v-539h-186zM383 700l211 5q182 0 285 67q100 68 100 258q0 158 -86 225q-86 68 -268 68h-242v-623z" />
<glyph unicode="Q" d="M100 741q0 340 185 553q184 213 514 213q322 0 487 -204q166 -207 166 -535q0 -385 -192 -590l182 -196l-111 -105l-188 203q-141 -104 -375 -105h-2q-330 0 -498 209q-168 207 -168 557zM299 741q0 -293 129 -448q129 -156 348 -156l-2 -4q145 0 252 64l-270 284 l116 111l269 -295q119 174 119 451q0 289 -125 440q-126 153 -341 153h-3q-221 0 -357 -155q-135 -158 -135 -445z" />
<glyph unicode="R" horiz-adv-x="1280" d="M199 -2v1483h508q135 0 227 -33q94 -35 147 -92q53 -59 78 -127t25 -150q0 -315 -287 -413l367 -668h-205l-340 616h-334v-616h-186zM385 772l277 -2q158 0 243 68q86 68 86 229q0 143 -88 199q-90 55 -260 55h-258v-549z" />
<glyph unicode="S" horiz-adv-x="1193" d="M43 403l180 27q31 -139 111 -215q82 -78 254 -78q141 0 235 58q94 57 95 192q0 55 -21 96q-23 43 -49 68q-29 25 -80 49q-49 23 -90 37q-18 6 -45 14t-62 19q-33 10 -55 17t-39 11q-16 4 -37.5 12.5t-50.5 18.5t-50.5 20.5t-37.5 20.5t-33.5 23.5t-40.5 29.5 q-41 31 -63 72q-20 35 -37 90q-14 49 -14 117q0 188 141 299q140 110 356 110h4q444 0 486 -417l-176 -21q-23 131 -88 203q-68 74 -224 74l-4 -11q-309 0 -309 -231q0 -49 23 -94q20 -43 49 -68t82 -49q55 -25 92 -37q18 -6 45.5 -15t64.5 -20q43 -12 77 -22t56 -19 q45 -16 117 -49q72 -35 109 -73q39 -43 65 -105q29 -68 29 -147q0 -221 -150 -328q-150 -106 -374 -107q-485 0 -541 428z" />
<glyph unicode="T" horiz-adv-x="1134" d="M27 1319v164h1081v-164h-444v-1319h-189v1319h-448z" />
<glyph unicode="U" horiz-adv-x="1462" d="M184 500v981h189v-963q0 -199 90 -289t270 -90l-2 -4q184 0 270 86t86 289v969h187v-985q0 -262 -141 -392q-141 -129 -410 -129q-281 0 -410 131t-129 396z" />
<glyph unicode="V" horiz-adv-x="1271" d="M20 1483h211l420 -1301h2l406 1301h192l-475 -1483h-256z" />
<glyph unicode="W" horiz-adv-x="1818" d="M35 1483h196l254 -1262h2l328 1262h209l328 -1278h2l243 1278h189l-313 -1483h-240l-315 1219h-3l-323 -1219h-234z" />
<glyph unicode="X" horiz-adv-x="1280" d="M29 0l487 752l-463 731h213l367 -586l379 586h198l-467 -723l508 -760h-217l-407 608l-394 -608h-204z" />
<glyph unicode="Y" horiz-adv-x="1159" d="M-10 1483h213l389 -723h4l379 723h194l-485 -905v-578h-188v573z" />
<glyph unicode="Z" horiz-adv-x="1204" d="M70 0v139l792 1180h-770v164h995v-144l-788 -1175h821v-164h-1050z" />
<glyph unicode="[" horiz-adv-x="557" d="M131 -293v1776h346v-131h-170v-1514h170v-131h-346z" />
<glyph unicode="\" horiz-adv-x="778" d="M20 1546h168l576 -1734h-170z" />
<glyph unicode="]" horiz-adv-x="557" d="M80 -162h170v1514h-170v131h346v-1776h-346v131z" />
<glyph unicode="^" horiz-adv-x="1169" d="M84 612l403 748h191l409 -748h-184l-323 578l-318 -578h-178z" />
<glyph unicode="_" horiz-adv-x="1024" d="M0 -225h1024v-146h-1024v146z" />
<glyph unicode="`" horiz-adv-x="1024" d="M268 1530h224l198 -334l-135 -25z" />
<glyph unicode="a" horiz-adv-x="1116" d="M113 256q0 358 544 358q16 0 40 -1t53 -3v103q0 106 -43 159t-164 54q-106 0 -156 -43q-49 -43 -68 -131l-163 30q25 150 123 219q100 72 280 72q197 0 287 -84t90 -276v-514q0 -45 12 -64q12 -18 51 -18q20 0 62 12l8 -117q-61 -32 -140 -32h-5q-143 0 -162 124 q-129 -129 -338 -129q-92 0 -160 29q-66 29 -96 74q-31 45 -43 90q-12 43 -12 88zM305 289q0 -168 176 -168q76 0 152 35q74 35 121 84l-4 241q-43 6 -107 6q-68 0 -117 -6t-104 -24t-86 -62q-31 -43 -31 -106z" />
<glyph unicode="b" horiz-adv-x="1189" d="M164 -2v1546h184v-610q158 139 357 139q176 0 280 -125q104 -127 105 -399q0 -291 -123 -432t-320 -142q-158 0 -307 117h-2l-10 -92zM350 240q150 -109 271 -109q274 0 274 420q0 186 -61 276q-61 88 -191 88q-82 0 -160 -38q-82 -41 -133 -93v-544z" />
<glyph unicode="c" horiz-adv-x="1101" d="M98 510q0 272 133 418q131 143 373 143q180 0 289 -92t117 -272l-179 -25q-25 236 -235 236q-131 0 -217 -87q-86 -86 -86 -292q0 -408 295 -408q223 0 264 225l164 -34q-25 -174 -144 -261q-121 -86 -288 -86l-2 -8q-250 0 -367 146q-117 143 -117 397z" />
<glyph unicode="d" horiz-adv-x="1181" d="M102 508q0 293 125 430t320 137q172 0 295 -98v569h182v-1548h-156l-14 113l-2 2q-156 -139 -348 -140q-188 0 -295 129q-106 127 -107 406zM293 508q0 -197 63 -287q63 -92 203 -92q152 0 281 129l-2 563q-123 92 -269 92q-276 0 -276 -405z" />
<glyph unicode="e" horiz-adv-x="1118" d="M94 518q0 272 139 412q139 139 357 139q211 0 315 -123t105 -330q0 -35 -2 -68.5t-7 -66.5h-708q6 -188 84 -270q76 -80 213 -80q203 0 248 186l163 -36q-31 -152 -141 -228q-113 -78 -274 -78l-6 -6q-135 0 -234 43q-96 43 -149 123q-55 84 -78 174q-25 94 -25 209z M293 625l520 2q0 293 -238 293q-115 0 -194 -74q-78 -74 -88 -221z" />
<glyph unicode="f" horiz-adv-x="669" d="M33 903v150h155v170q0 344 314 344q117 0 192 -35l-6 -143q-71 26 -142 26h-5q-78 0 -123 -41q-43 -41 -43 -145v-176h293v-150h-293v-903h-187v903h-155z" />
<glyph unicode="g" horiz-adv-x="1130" d="M61 -207q0 158 170 242v2q-114 47 -114 145q0 63 37 111q37 45 104 98q-76 41 -115 117q-41 78 -41 178q0 174 123 283q121 106 326 106v-8q209 0 305 -96q57 137 166 137q39 0 92 -16v-150h-29q-98 0 -172 -22q78 -90 78 -228q0 -176 -123 -276q-121 -100 -309 -101 q-119 0 -188 25l-13 -12l-12 -13l-12 -12q-10 -10 -12 -14q-4 -8 -9 -15q-4 -6 -8 -18q-2 -6 -2 -18q0 -35 29 -54q27 -18 104 -24l293 -21q176 -12 258 -69q84 -59 84 -203q0 -125 -82 -201q-84 -78 -196 -104q-119 -29 -258 -29q-473 0 -474 260zM250 -178 q0 -147 309 -148q326 0 326 166h2q0 61 -37 90q-37 27 -139 37l-342 21q-63 -39 -93 -78q-27 -35 -26 -88zM289 690q0 -225 262 -225q117 0 188 59q72 59 72 164l-2 -2q0 229 -254 229q-119 0 -193 -55t-73 -170z" />
<glyph unicode="h" horiz-adv-x="1191" d="M166 0v1546h184v-612q180 141 371 141q322 0 321 -360l-4 -715h-186v686q0 117 -45 170q-47 55 -150 55q-80 0 -168 -41q-84 -39 -137 -86v-784h-186z" />
<glyph unicode="i" horiz-adv-x="509" d="M131 1391v4q0 133 131 133q63 0 98 -35t35 -98q0 -61 -35 -101q-35 -37 -98 -37t-98 35q-33 33 -33 99zM166 0v1053h186v-1053h-186z" />
<glyph unicode="j" horiz-adv-x="505" d="M-145 -416l20 152q76 -31 154 -31q137 0 137 166v1182h186v-1190q0 -320 -299 -320q-129 0 -198 41zM129 1391q0 63 35 98t98 35t98 -35t35 -98l-2 -5q0 -66 -33 -98q-35 -35 -98 -35q-66 0 -98 37q-35 39 -35 101z" />
<glyph unicode="k" horiz-adv-x="1087" d="M166 0v1546h186v-956l453 463h211l-365 -379l391 -674h-204l-324 543l-162 -160v-383h-186z" />
<glyph unicode="l" horiz-adv-x="509" d="M166 0v1546h186v-1546h-186z" />
<glyph unicode="m" horiz-adv-x="1773" d="M164 6v1053h160l10 -119q184 141 358 141q203 0 264 -145q182 145 363 145q164 0 231 -88q68 -90 68 -270v-717h-186v690q0 115 -33 166q-35 53 -129 53q-70 0 -150 -36q-84 -39 -133 -82q2 -25 3 -44.5t1 -33.5v-717h-186v690q0 115 -33 166q-35 53 -129 53 q-78 0 -158 -39q-86 -41 -133 -86l-2 -780h-186z" />
<glyph unicode="n" horiz-adv-x="1191" d="M164 0v1053h164l10 -125q184 147 379 147q166 0 246 -90t79 -270l-6 -715h-186v686q0 117 -45 170q-47 55 -150 55q-80 0 -168 -41q-84 -39 -137 -86v-784h-186z" />
<glyph unicode="o" horiz-adv-x="1183" d="M98 522q0 258 133 408q131 147 381 147q242 0 357 -141q115 -143 114 -389q0 -571 -497 -572h-2q-485 0 -486 547zM293 530q0 -209 74 -307t227 -98l2 -2q293 0 293 409q0 213 -70 302q-70 88 -215 88q-311 0 -311 -392z" />
<glyph unicode="p" horiz-adv-x="1189" d="M166 -434v1485h162l10 -121q158 143 364 143q385 0 385 -524q0 -291 -122 -432q-123 -141 -316 -142q-166 0 -303 103v-512h-180zM352 233q135 -104 271 -104q274 0 274 420q0 195 -61 280q-61 86 -191 86q-82 0 -160 -38q-82 -41 -133 -93v-551z" />
<glyph unicode="q" horiz-adv-x="1177" d="M100 512q0 291 127 428q125 135 320 135q168 0 299 -114l16 92h162l-2 -1487h-176v538q-164 -129 -344 -129q-401 0 -402 537zM291 514q0 -195 63 -289t203 -94q152 0 281 129l-2 555q-131 102 -269 103q-276 0 -276 -404z" />
<glyph unicode="r" horiz-adv-x="745" d="M168 -2v1053h156l14 -152q129 174 350 174h19h18v-194q-18 2 -31.5 3t-21.5 1q-88 0 -174 -33q-88 -33 -144 -86v-766h-186z" />
<glyph unicode="s" horiz-adv-x="997" d="M78 279l166 45q25 -102 80 -154q53 -51 182 -51q219 0 219 151q0 80 -51 111q-53 31 -178 55q-29 4 -47.5 8.5t-28.5 8.5t-28.5 8t-43.5 12t-43 15.5t-31 13.5q-25 12 -61 37q-37 25 -53 53q-16 31 -29 72q-12 43 -12 94q0 152 110 235q109 82 279 82v-2q178 0 268 -78 q88 -78 117 -227l-168 -37q-23 100 -68 148q-47 47 -153 47q-203 0 -203 -148q0 -78 55 -110q55 -35 181 -62q76 -16 116 -24q35 -8 99 -35q57 -25 86 -53q27 -29 49 -80q22 -53 22 -114v-5q0 -150 -110 -236q-111 -86 -303 -86q-371 0 -418 306z" />
<glyph unicode="t" horiz-adv-x="776" d="M37 901v150h162v305l186 28v-333h291v-150h-291v-602q0 -90 31 -129q31 -41 121 -41t184 51l33 -139q-39 -27 -115 -49q-70 -20 -143 -21q-150 0 -224 74t-73 229v627h-162z" />
<glyph unicode="u" horiz-adv-x="1189" d="M160 1057h186v-686q0 -115 41 -172q39 -55 152 -56q80 0 168 41q84 39 137 86v783h186v-1053h-162l-12 121q-172 -141 -373 -141q-322 0 -321 358z" />
<glyph unicode="v" horiz-adv-x="1034" d="M12 1053h203l309 -867h2l305 867h191l-395 -1053h-213z" />
<glyph unicode="w" d="M12 1053h189l256 -856l231 856h193l229 -852h2l250 852h180l-328 -1053h-217l-217 829h-2l-215 -829h-221z" />
<glyph unicode="x" horiz-adv-x="1007" d="M35 0l354 543l-352 510h205l258 -383l266 383h190l-354 -506l373 -547h-203l-280 414l-267 -414h-190z" />
<glyph unicode="y" horiz-adv-x="993" d="M-20 -418l22 146q86 -33 168 -33q127 0 188 164l50 129l-390 1063h207l279 -836h2l289 836h190l-455 -1207q-66 -168 -143 -233q-80 -68 -205 -68q-119 0 -202 39z" />
<glyph unicode="z" horiz-adv-x="940" d="M63 0v127l590 776h-581v150h792v-135l-590 -768h615v-150h-826z" />
<glyph unicode="{" horiz-adv-x="626" d="M6 520v137h35q156 0 156 174q0 68 -13 226q-12 156 -12 209q0 238 279 237h112v-145h-80q-66 0 -92 -27q-27 -27 -26 -82q0 -59 12 -209q12 -152 12 -217q0 -109 -39 -155q-41 -51 -112 -78q74 -27 112 -76q39 -47 39 -156q0 -70 -12 -204q-12 -135 -12 -187 q0 -63 30 -94q31 -31 111 -31h57v-141h-110q-281 0 -281 238q0 63 12 202q12 137 13 203q0 176 -154 176h-37z" />
<glyph unicode="|" horiz-adv-x="573" d="M203 -293v1839h168v-1839h-168z" />
<glyph unicode="}" horiz-adv-x="626" d="M61 -156h80q66 0 92 27q29 29 29 82q0 57 -12 209q-12 150 -12 217q0 111 38 158q41 51 113 77q-72 27 -113 78q-39 47 -38 158q0 70 12 205t12 188q0 66 -31 96q-31 31 -110 31h-58l-2 129h111q281 0 281 -237q0 -66 -13 -203q-12 -139 -12 -203q0 -176 154 -176h36 v-137h-34q-156 0 -156 -174q0 -68 12 -224q12 -158 13 -208q0 -238 -279 -238h-113v145z" />
<glyph unicode="~" horiz-adv-x="1058" d="M102 649q0 100 50 156q49 55 129 55l-2 -6q66 0 258 -47q193 -47 227 -47q41 0 59 22q18 20 19 86l119 -6q2 -16 3 -28.5t1 -20.5q0 -98 -52 -149q-51 -51 -131 -52q-63 0 -256 47t-231 48q-72 0 -72 -93v-18l-119 4q-2 10 -2 49z" />
<glyph unicode="&#xa1;" horiz-adv-x="544" d="M150 942q0 131 137 131t137 -131q0 -133 -137 -133t-137 133zM184 -434l33 1098h141l35 -1098h-209z" />
<glyph unicode="&#xa2;" horiz-adv-x="1056" d="M119 715q0 219 102 350q100 129 281 160v209h149v-205q135 -14 223 -103q84 -84 95 -233l-170 -25q-18 178 -156 203v-700q76 8 117 55q39 45 61 139l158 -33q-23 -143 -111 -219q-90 -78 -221 -98v-215h-149v211q-188 25 -283 160q-96 137 -96 344zM307 735 q0 -311 193 -360v692q-193 -45 -193 -332z" />
<glyph unicode="&#xa3;" horiz-adv-x="1148" d="M45 0v154l111 -7q170 154 170 326q0 82 -47 180h-213v152h157q-92 168 -92 291q0 180 129 295q131 115 336 114q197 0 303 -88t131 -289l-168 -22q-18 129 -76 188q-59 61 -196 62q-127 0 -203 -62q-76 -61 -76 -174q0 -31 6 -63q6 -35 13 -56q4 -10 8 -24t12 -33 q8 -18 12.5 -30.5t8.5 -18.5l24 -49q18 -37 19 -39h463v-152h-412q39 -84 39 -176q0 -182 -152 -329h355q115 0 163 51q51 53 72 178l164 -33q-23 -182 -117 -264t-276 -82h-668z" />
<glyph unicode="&#xa5;" horiz-adv-x="1085" d="M47 1483h205l305 -572h2l293 572h190l-329 -615h207v-139h-275v-178h275v-141h-275v-410h-186v410h-271v141h271v178h-271v139h197z" />
<glyph unicode="&#xa6;" horiz-adv-x="573" d="M203 -293v795h168v-795h-168zM203 844v702h168v-702h-168z" />
<glyph unicode="&#xa7;" horiz-adv-x="1122" d="M94 502q0 180 195 303q-121 96 -121 268q0 176 123 275q123 98 311 98q190 0 299 -94q113 -96 121 -277l-174 -22q-12 119 -72 182q-59 61 -178 61q-121 0 -184 -55t-64 -145q0 -96 72 -152q72 -57 172 -84q51 -14 101 -28.5t102 -30.5q100 -31 172 -105q72 -76 71 -194 q0 -180 -192 -305q121 -96 121 -267q0 -176 -123 -274t-311 -98q-184 0 -297 96q-111 94 -123 276l176 23q23 -244 252 -244q115 0 180 55q63 55 63 152q0 96 -71 152q-70 53 -172 82q-51 14 -101.5 27t-101.5 30q-102 31 -172 104q-72 76 -72 197zM268 528q0 -66 45 -108 q45 -43 99 -62q27 -10 64.5 -20t86.5 -25q49 -14 86 -24t64 -21q147 92 147 203q0 51 -24 88q-25 37 -76 62q-47 23 -101 38q-49 14 -122 37q-37 10 -68 19.5t-53 19.5q-143 -94 -144 -203z" />
<glyph unicode="&#xa8;" horiz-adv-x="1024" d="M166 1374q0 57 37 92q39 35 96 35q59 0 92 -33q35 -35 35 -92l-2 -4q0 -57 -35 -92q-33 -33 -92 -33q-55 0 -94 35q-37 33 -37 92zM600 1370q0 57 35 92t92 35q59 0 92 -33q35 -35 35 -92v-4q0 -57 -35 -92q-33 -33 -92 -33q-57 0 -92 35t-35 92z" />
<glyph unicode="&#xa9;" horiz-adv-x="1579" d="M100 635q0 315 197 504q199 188 496 188q317 0 501 -178t185 -481l-4 -4q0 -309 -191 -500q-190 -190 -498 -191q-330 0 -507 185q-178 184 -179 477zM219 635q0 -258 152 -406q150 -147 417 -147l3 -8q260 0 411 153q152 156 152 418q0 268 -156 416q-158 147 -412 147 q-248 0 -407 -153q-160 -154 -160 -420zM422 635q0 178 98 289t275 110q129 0 211 -63q82 -66 92 -203l-121 -16q-16 172 -184 172q-102 2 -166 -68q-63 -70 -64 -221q0 -127 55 -207t170 -80q94 0 142 43q47 43 67 131l107 -24q-16 -98 -70 -162q-55 -66 -116 -86 q-59 -20 -132 -21q-188 0 -276 111q-88 109 -88 295z" />
<glyph unicode="&#xaa;" horiz-adv-x="774" d="M70 748q0 217 329 233q33 0 55.5 -1t37.5 -3v57q0 68 -25 99t-98 30q-63 0 -95 -24q-33 -27 -41 -82l-131 24q31 190 279 191q137 0 203 -55q63 -55 63 -181l-12 -319q0 -25 10 -39q8 -12 35 -12q16 0 41 6l6 -84q-41 -23 -109 -23q-102 0 -116 82q-92 -86 -226 -86 q-117 0 -161 57q-45 57 -45 130zM221 768q0 -96 107 -96q92 0 157 65l2 144q-16 2 -30.5 3t-26.5 1q-23 0 -41 -1t-35 -3q-33 -4 -63 -15q-33 -12 -51 -37t-19 -61z" />
<glyph unicode="&#xab;" horiz-adv-x="890" d="M117 530l182 306h168l-172 -299l168 -326h-168zM444 530l183 306h168l-172 -299l168 -326h-168z" />
<glyph unicode="&#xac;" horiz-adv-x="1167" d="M193 582v170h772v-363h-166v193h-606z" />
<glyph unicode="&#xad;" horiz-adv-x="636" d="M41 514v178h555v-178h-555z" />
<glyph unicode="&#xae;" horiz-adv-x="925" d="M80 967q0 174 110 278q111 104 275 105q176 0 276 -101q102 -102 103 -270h-2q0 -170 -107 -274q-109 -104 -276 -105q-182 0 -281 102q-98 100 -98 265zM164 963q0 -133 80 -209q78 -76 217 -76q135 0 215 80t80 215l-8 -6q0 137 -80 215q-82 78 -211 78t-211 -80 t-82 -217zM328 778v391h139q135 0 135 -110q0 -76 -70 -103l105 -178h-88l-90 154h-51v-154h-80zM408 993h26q86 0 86 62q0 53 -71 53h-41v-115z" />
<glyph unicode="&#xaf;" horiz-adv-x="1024" d="M215 1280v145h596v-145h-596z" />
<glyph unicode="&#xb0;" horiz-adv-x="696" d="M135 1298q0 109 66 170q63 61 166 62q100 0 165 -60q63 -57 64 -165l-4 -2q0 -106 -62 -168q-61 -61 -165 -62q-106 0 -168 62q-61 61 -62 163zM256 1298q0 -53 31 -84t86 -30h-4q53 0 80 33q29 35 28 88q0 55 -28 88q-29 31 -80 30q-51 0 -82 -32q-31 -35 -31 -93z" />
<glyph unicode="&#xb1;" horiz-adv-x="1167" d="M197 0v164h772v-164h-772zM197 573v170h301v308h170v-308h301v-170h-301v-297h-170v297h-301z" />
<glyph unicode="&#xb2;" horiz-adv-x="790" d="M94 1395q14 125 99 186q82 61 208 61h2q131 0 203 -61t72 -174q0 -100 -51 -178q-27 -41 -71 -94.5t-110 -118.5l-143 -156v-4h391v-143h-585v139l210 233q55 61 92.5 107.5t57.5 77.5q39 59 39 131q0 111 -121 110q-127 0 -147 -141z" />
<glyph unicode="&#xb3;" horiz-adv-x="817" d="M78 926l141 22q8 -61 41 -94q31 -31 102 -31q66 0 109 37t43 113q0 78 -43 112q-41 33 -125 33h-88v123h59q88 0 138 43q49 43 49 113q0 111 -121 110q-68 0 -96 -26q-31 -27 -45 -88l-146 28q41 219 305 219q133 0 203 -57q72 -59 72 -160q0 -164 -178 -221v-2 q197 -41 196 -227q0 -127 -88 -201q-90 -74 -233 -74q-121 0 -201 56q-78 55 -94 172z" />
<glyph unicode="&#xb4;" horiz-adv-x="1024" d="M342 1196l199 334h223l-287 -359z" />
<glyph unicode="&#xb5;" horiz-adv-x="1288" d="M205 -360v1415h186v-684q0 -125 37 -181q37 -55 131 -55q168 0 326 170v748h186v-1053h-178v127h-2q-176 -147 -356 -147q-104 0 -156 51l-6 -2l22 -389h-190z" />
<glyph unicode="&#xb6;" horiz-adv-x="1150" d="M51 977q0 260 158 383q156 123 409 123h347l2 -1757h-160v1615h-168v-1615h-160v782q-201 14 -315 139q-113 121 -113 330z" />
<glyph unicode="&#xb7;" horiz-adv-x="397" d="M63 623q0 133 136 133q135 0 135 -133q0 -131 -135 -131t-136 131z" />
<glyph unicode="&#xb8;" horiz-adv-x="1024" d="M274 -434l37 104q61 -31 115 -30q47 0 72 24q25 25 24 66q0 51 -35 73q-33 20 -114 25l33 233l116 -16l-18 -135q162 -31 162 -180q0 -94 -64 -150q-66 -55 -162 -55q-90 0 -166 41z" />
<glyph unicode="&#xb9;" horiz-adv-x="647" d="M82 1518q182 12 268 104h113v-911h-172v712q-25 -14 -96 -26q-68 -12 -105 -13z" />
<glyph unicode="&#xba;" horiz-adv-x="817" d="M70 913q0 168 90 265q88 94 262 94q166 0 246 -92t80 -248q0 -371 -345 -371v-2q-334 0 -333 354zM231 920q0 -123 43 -179q43 -55 136 -55h2q176 0 176 236q0 123 -43 176t-129 53q-184 0 -185 -231z" />
<glyph unicode="&#xbb;" horiz-adv-x="890" d="M100 211l172 307l-172 318h168l181 -316l-181 -309h-168zM428 211l172 307l-172 318h168l180 -316l-180 -309h-168z" />
<glyph unicode="&#xbc;" horiz-adv-x="1822" d="M113 1378q182 12 268 105h113v-912h-172v713q-25 -14 -97 -27q-68 -12 -104 -12zM416 -25l729 1508h172l-725 -1508h-176zM1010 211v117l385 583h207v-567h108v-133h-106v-211h-166v211h-428zM1161 344h277v418z" />
<glyph unicode="&#xbd;" horiz-adv-x="1822" d="M129 1378q182 12 268 105h113v-912h-172v713q-25 -14 -96 -27q-68 -12 -105 -12zM389 -25l729 1508h172l-725 -1508h-176zM1112 680q14 125 98 186q82 61 209 62h2q131 0 203 -62q72 -61 72 -174q0 -100 -51 -178q-27 -41 -71 -94t-110 -119l-143 -156v-4h391v-143h-586 v139l211 234q55 61 92 107t58 77q39 59 39 131q0 111 -121 111q-127 0 -148 -142z" />
<glyph unicode="&#xbe;" horiz-adv-x="1822" d="M92 786l141 23q8 -61 41 -94q31 -31 103 -31q66 0 108 37q43 37 43 113q0 78 -43 112q-41 33 -125 33h-88v123h60q88 0 137 43t49 112q0 111 -121 111q-68 0 -96 -27q-31 -27 -45 -88l-145 29q41 219 305 219q133 0 202 -57q72 -59 72 -160q0 -164 -178 -221v-2 q197 -41 197 -227q0 -127 -88 -201q-90 -74 -234 -74q-121 0 -201 55q-78 55 -94 172zM489 -25l730 1508h172l-725 -1508h-177zM1057 211v117l385 583h207v-567h108v-133h-106v-211h-166v211h-428zM1208 344h277v418z" />
<glyph unicode="&#xbf;" horiz-adv-x="983" d="M80 -39q0 375 442 465v240l174 -4v-367q-193 -14 -311 -90q-117 -74 -117 -242q0 -137 68 -192t186 -56q113 0 185 54q70 51 98 182l174 -31q-27 -158 -141 -260q-113 -100 -326 -100q-195 0 -313 94q-119 94 -119 307zM473 938q0 131 137 131t138 -131q0 -133 -138 -133 q-137 0 -137 133z" />
<glyph unicode="&#xc0;" horiz-adv-x="1406" d="M74 0l499 1483h246l516 -1483h-207l-149 440h-569l-146 -440h-190zM436 1870h226l202 -275l-141 -24zM455 602h477l-238 709h-2z" />
<glyph unicode="&#xc1;" horiz-adv-x="1406" d="M74 0l499 1483h246l516 -1483h-207l-149 440h-569l-146 -440h-190zM455 602h477l-238 709h-2zM549 1595l203 275h225l-287 -299z" />
<glyph unicode="&#xc2;" horiz-adv-x="1406" d="M74 0l499 1483h246l516 -1483h-207l-149 440h-569l-146 -440h-190zM387 1589l238 264h161l234 -264l-143 -14l-175 160l-172 -164zM455 602h477l-238 709h-2z" />
<glyph unicode="&#xc3;" horiz-adv-x="1406" d="M72 -4l499 1483h246l516 -1483h-207l-149 440h-569l-146 -440h-190zM367 1651q0 98 51 149t129 51l-2 -4q74 0 170 -45t139 -45q41 0 59 23q18 20 19 84l112 -6q2 -18 3.5 -32t1.5 -22q0 -96 -50 -145q-49 -49 -127 -49q-68 0 -172 47t-143 47q-72 0 -72 -92v-19l-114 6 q-2 18 -3 30.5t-1 21.5zM453 598h477l-238 709h-2z" />
<glyph unicode="&#xc4;" horiz-adv-x="1406" d="M72 -4l499 1483h246l516 -1483h-207l-149 440h-569l-146 -440h-190zM356 1722q0 57 37 93q39 35 96 34q57 0 93 -34q35 -35 34 -93q0 -57 -34 -92q-33 -33 -93 -33l-2 -2q-55 0 -94 35q-37 33 -37 92zM453 598h477l-238 709h-2zM791 1720q0 57 34 92q35 35 93 35 q57 0 92 -35v-2q35 -35 34 -92q0 -57 -34 -92q-33 -33 -92 -33q-57 0 -93 35q-35 35 -34 92z" />
<glyph unicode="&#xc5;" horiz-adv-x="1406" d="M72 0l497 1477q-90 53 -90 168q0 100 62 155q61 55 153 55q96 0 156 -51q61 -53 61 -149h-2q0 -125 -92 -176l516 -1479h-207l-149 440h-569l-146 -440h-190zM453 602h477l-238 709h-2zM590 1651q0 -103 102 -103q100 0 101 109q0 96 -101 96q-47 0 -74 -27 q-29 -29 -28 -75z" />
<glyph unicode="&#xc6;" horiz-adv-x="2048" d="M61 0l807 1483h1049v-164h-678v-506h635v-162h-635v-487h705v-164h-895v647h-439l-352 -647h-197zM684 807h365v512h-88z" />
<glyph unicode="&#xc7;" horiz-adv-x="1417" d="M106 719q0 373 185 581q184 209 504 209q242 0 387 -123q143 -123 159 -374l-176 -19q-23 178 -110 264q-90 86 -267 86q-236 0 -364 -153q-129 -154 -129 -455q0 -598 469 -598q178 0 268 76q92 78 129 236l170 -35q-33 -211 -174 -316q-143 -106 -342 -121l-8 -67 q162 -31 162 -180q0 -94 -64 -150q-66 -55 -162 -55q-90 0 -159 39l32 106q61 -31 111 -30q47 0 76 24q27 25 26 66q0 51 -34 73q-33 20 -115 25l18 149q-303 18 -448 213q-143 193 -144 529z" />
<glyph unicode="&#xc8;" horiz-adv-x="1177" d="M197 0v1483h866v-164h-678v-490h637v-163h-637v-502h705v-164h-893zM358 1870h226l202 -275l-141 -24z" />
<glyph unicode="&#xc9;" horiz-adv-x="1177" d="M197 0v1483h866v-164h-678v-490h637v-163h-637v-502h705v-164h-893zM471 1595l203 275h225l-287 -299z" />
<glyph unicode="&#xca;" horiz-adv-x="1177" d="M197 0v1483h866v-164h-678v-490h637v-163h-637v-502h705v-164h-893zM309 1589l238 264h162l233 -264l-143 -14l-174 160l-172 -164z" />
<glyph unicode="&#xcb;" horiz-adv-x="1177" d="M195 -4v1483h866v-164h-678v-490h637v-163h-637v-502h704v-164h-892zM279 1722q0 57 36 93q39 35 97 34q57 0 92 -34q35 -35 35 -93q0 -57 -35 -92q-33 -33 -92 -33l-2 -2q-55 0 -95 35q-37 33 -36 92zM713 1720q0 57 35 92t92 35t92 -35v-2q35 -35 35 -92t-35 -92 q-33 -33 -92 -33q-57 0 -92 35t-35 92z" />
<glyph unicode="&#xcc;" horiz-adv-x="581" d="M29 1870h225l203 -275l-142 -24zM197 0v1483h188v-1483h-188z" />
<glyph unicode="&#xcd;" horiz-adv-x="581" d="M141 1595l203 275h225l-286 -299zM197 0v1483h188v-1483h-188z" />
<glyph unicode="&#xce;" horiz-adv-x="581" d="M-20 1589l237 264h162l233 -264l-143 -14l-174 160l-172 -164zM197 0v1483h188v-1483h-188z" />
<glyph unicode="&#xcf;" horiz-adv-x="581" d="M-51 1722q0 57 37 93q39 35 96 34q57 0 92 -34q35 -35 35 -93q0 -57 -35 -92q-33 -33 -92 -33l-2 -2q-55 0 -94 35q-37 33 -37 92zM195 -4v1483h188v-1483h-188zM383 1720q0 57 35 92t92 35t92 -35v-2q35 -35 35 -92t-35 -92q-33 -33 -92 -33q-57 0 -92 35t-35 92z" />
<glyph unicode="&#xd0;" horiz-adv-x="1490" d="M37 674v151h160v656h456q375 0 555 -187q180 -186 181 -530q0 -354 -193 -559t-578 -205h-421v674h-160zM385 158l231 -2q285 0 431 151q145 152 145 428q0 324 -137 455t-418 131h-252v-496h416v-153h-416v-514z" />
<glyph unicode="&#xd1;" horiz-adv-x="1525" d="M195 -4v1483h247l711 -1231v1231h174v-1483h-227l-729 1243v-1243h-176zM442 1651q0 98 52 149q51 51 129 51l-2 -4q74 0 170 -45t139 -45q41 0 59 23q18 20 19 84l112 -6q2 -18 3 -32t1 -22q0 -96 -49 -145t-127 -49q-68 0 -172 47t-143 47q-72 0 -72 -92v-19l-115 6 q-2 18 -3 30.5t-1 21.5z" />
<glyph unicode="&#xd2;" d="M98 741q0 340 185 553q184 213 514 213q322 0 487 -204q166 -207 166 -535q0 -369 -176 -582t-508 -213t-498 209t-166 559h-4zM295 741q0 -293 129 -446q129 -154 350 -154v-4q217 0 350 154q131 152 131 457q0 289 -125 440q-127 154 -344 153q-221 0 -356 -155 q-135 -158 -135 -445zM524 1870h226l202 -275l-141 -24z" />
<glyph unicode="&#xd3;" d="M98 741q0 340 185 553q184 213 514 213q322 0 487 -204q166 -207 166 -535q0 -369 -176 -582t-508 -213t-498 209t-166 559h-4zM295 741q0 -293 129 -446q129 -154 350 -154v-4q217 0 350 154q131 152 131 457q0 289 -125 440q-127 154 -344 153q-221 0 -356 -155 q-135 -158 -135 -445zM637 1595l203 275h225l-287 -299z" />
<glyph unicode="&#xd4;" d="M98 741q0 340 185 553q184 213 514 213q322 0 487 -204q166 -207 166 -535q0 -369 -176 -582t-508 -213t-498 209t-166 559h-4zM295 741q0 -293 129 -446q129 -154 350 -154v-4q217 0 350 154q131 152 131 457q0 289 -125 440q-127 154 -344 153q-221 0 -356 -155 q-135 -158 -135 -445zM475 1589l238 264h161l234 -264l-143 -14l-174 160l-173 -164z" />
<glyph unicode="&#xd5;" d="M96 737q0 340 185 553q184 213 514 213q322 0 487 -205q166 -207 166 -534q0 -369 -176 -582t-508 -213t-498 209t-166 559h-4zM293 737q0 -293 129 -446q129 -154 350 -154v-4q217 0 350 154q131 152 131 456q0 289 -125 441q-127 154 -344 153q-221 0 -356 -155 q-135 -158 -135 -445zM455 1651q0 98 51 149t129 51l-2 -4q74 0 170 -45t139 -45q41 0 59 23q18 20 19 84l113 -6q2 -18 3 -32t1 -22q0 -96 -50 -145q-49 -49 -126 -49q-68 0 -173 47q-104 47 -143 47q-72 0 -72 -92v-19l-114 6q-2 18 -3 30.5t-1 21.5z" />
<glyph unicode="&#xd6;" d="M96 737q0 340 185 553q184 213 514 213q322 0 487 -205q166 -207 166 -534q0 -369 -176 -582t-508 -213t-498 209t-166 559h-4zM293 737q0 -293 129 -446q129 -154 350 -154v-4q217 0 350 154q131 152 131 456q0 289 -125 441q-127 154 -344 153q-221 0 -356 -155 q-135 -158 -135 -445zM444 1722q0 57 37 93q39 35 97 34q57 0 92 -34q35 -35 35 -93q0 -57 -35 -92q-33 -33 -92 -33l-3 -2q-55 0 -94 35q-37 33 -37 92zM879 1720q0 57 34 92q35 35 93 35q57 0 92 -35v-2q35 -35 35 -92t-35 -92q-33 -33 -92 -33q-57 0 -93 35 q-35 35 -34 92z" />
<glyph unicode="&#xd7;" horiz-adv-x="1167" d="M248 440l217 215l-217 219l121 123l213 -215l217 215l119 -123l-216 -219l216 -215l-119 -125l-217 217l-213 -217z" />
<glyph unicode="&#xd8;" d="M100 743q0 340 185 553q184 213 514 213q106 0 205 -26l61 143h182l-88 -213q145 -94 219 -260q74 -170 74 -383q0 -369 -176 -582t-508 -213l-4 2q-109 0 -197 25l-59 -147h-184l86 208q-309 180 -310 680zM295 743q0 -354 186 -503l453 1085q-74 20 -148 21 q-221 0 -356 -156q-135 -158 -135 -445v-2zM633 160q63 -19 141 -19q217 0 350 154q131 152 131 457q0 338 -172 489z" />
<glyph unicode="&#xd9;" horiz-adv-x="1462" d="M184 500v981h189v-963q0 -199 90 -289t270 -90l-2 -4q184 0 270 86t86 289v969h187v-985q0 -262 -141 -392q-141 -129 -410 -129q-281 0 -410 131t-129 396zM465 1870h225l203 -275l-141 -24z" />
<glyph unicode="&#xda;" horiz-adv-x="1462" d="M184 500v981h189v-963q0 -199 90 -289t270 -90l-2 -4q184 0 270 86t86 289v969h187v-985q0 -262 -141 -392q-141 -129 -410 -129q-281 0 -410 131t-129 396zM578 1595l202 275h226l-287 -299z" />
<glyph unicode="&#xdb;" horiz-adv-x="1462" d="M184 500v981h189v-963q0 -199 90 -289t270 -90l-2 -4q184 0 270 86t86 289v969h187v-985q0 -262 -141 -392q-141 -129 -410 -129q-281 0 -410 131t-129 396zM416 1589l237 264h162l234 -264l-144 -14l-174 160l-172 -164z" />
<glyph unicode="&#xdc;" horiz-adv-x="1462" d="M182 496v981h189v-963q0 -199 90 -289t270 -90l-2 -4q184 0 270 86t86 289v969h187v-986q0 -262 -142 -391q-141 -129 -409 -129q-281 0 -410 131t-129 396zM385 1722q0 57 37 93q39 35 96 34q57 0 92 -34q35 -35 35 -93q0 -57 -35 -92q-33 -33 -92 -33l-2 -2 q-55 0 -94 35q-37 33 -37 92zM819 1720q0 57 35 92t92 35t92 -35v-2q35 -35 35 -92t-35 -92q-33 -33 -92 -33q-57 0 -92 35t-35 92z" />
<glyph unicode="&#xdd;" horiz-adv-x="1159" d="M-10 1483h213l389 -723h4l379 723h194l-485 -905v-578h-188v573zM438 1595l203 275h225l-286 -299z" />
<glyph unicode="&#xde;" horiz-adv-x="1261" d="M197 2v1483h186v-244h297q264 0 379 -123q115 -125 115 -313q0 -496 -566 -496h-225v-307h-186zM383 473h209q188 0 287 68q98 68 98 258q0 147 -86 215t-266 67h-242v-608z" />
<glyph unicode="&#xdf;" horiz-adv-x="1351" d="M162 -2v1104q0 244 131 354q131 111 362 111q219 0 338 -97q117 -96 117 -270q0 -244 -236 -344v-6q373 -66 373 -422q0 -205 -110 -328q-111 -123 -310 -123q-137 0 -235 68t-123 197l123 67q27 -90 74 -135q45 -45 141 -45q117 0 184 74q68 74 68 219q0 334 -377 334 h-82v143h31q156 0 227 78q70 76 70 201q0 250 -287 249q-141 0 -215 -73q-74 -74 -74 -260v-1094z" />
<glyph unicode="&#xe0;" horiz-adv-x="1116" d="M113 256q0 358 544 358q16 0 40 -1t53 -3v103q0 106 -43 159t-164 54q-106 0 -156 -43q-49 -43 -68 -131l-163 30q25 150 123 219q100 72 280 72q197 0 287 -84t90 -276v-514q0 -45 12 -64q12 -18 51 -18q20 0 62 12l8 -117q-63 -33 -145 -32q-143 0 -162 124 q-129 -129 -338 -129q-92 0 -160 29q-66 29 -96 74q-31 45 -43 90q-12 43 -12 88zM305 289q0 -168 176 -168q76 0 152 35q74 35 121 84l-4 241q-43 6 -107 6q-68 0 -117 -6t-104 -24t-86 -62q-31 -43 -31 -106zM309 1534h223l199 -334l-135 -24z" />
<glyph unicode="&#xe1;" horiz-adv-x="1116" d="M113 256q0 358 544 358q16 0 40 -1t53 -3v103q0 106 -43 159t-164 54q-106 0 -156 -43q-49 -43 -68 -131l-163 30q25 150 123 219q100 72 280 72q197 0 287 -84t90 -276v-514q0 -45 12 -64q12 -18 51 -18q20 0 62 12l8 -117q-63 -33 -145 -32q-143 0 -162 124 q-129 -129 -338 -129q-92 0 -160 29q-66 29 -96 74q-31 45 -43 90q-12 43 -12 88zM305 289q0 -168 176 -168q76 0 152 35q74 35 121 84l-4 241q-43 6 -107 6q-68 0 -117 -6t-104 -24t-86 -62q-31 -43 -31 -106zM383 1200l199 334h223l-287 -358z" />
<glyph unicode="&#xe2;" horiz-adv-x="1116" d="M113 256q0 358 544 358q16 0 40 -1t53 -3v103q0 106 -43 159t-164 54q-106 0 -156 -43q-49 -43 -68 -131l-163 30q25 150 123 219q100 72 280 72q197 0 287 -84t90 -276v-514q0 -45 12 -64q12 -18 51 -18q20 0 62 12l8 -117q-63 -33 -145 -32q-143 0 -162 124 q-129 -129 -338 -129q-92 0 -160 29q-66 29 -96 74q-31 45 -43 90q-12 43 -12 88zM238 1194l229 338h182l232 -338l-142 -12l-182 231l-180 -233zM305 289q0 -168 176 -168q76 0 152 35q74 35 121 84l-4 241q-43 6 -107 6q-68 0 -117 -6t-104 -24t-86 -62q-31 -43 -31 -106z " />
<glyph unicode="&#xe3;" horiz-adv-x="1116" d="M113 256q0 358 544 358q16 0 40 -1t53 -3v103q0 106 -43 159t-164 54q-106 0 -156 -43q-49 -43 -68 -131l-163 30q25 150 123 219q100 72 280 72q197 0 287 -84t90 -276v-514q0 -45 12 -64q12 -18 51 -18q20 0 62 12l8 -117q-63 -33 -145 -32q-143 0 -162 124 q-129 -129 -338 -129q-92 0 -160 29q-66 29 -96 74q-31 45 -43 90q-12 43 -12 88zM213 1233.5v28.5q0 100 51 153q51 55 125 55v-4q70 0 170 -47t139 -47q41 0 60 23q18 20 18 84l113 -4q2 -18 3 -30.5t1 -19.5q0 -98 -49 -149t-127 -51q-68 0 -172 47t-144 47 q-72 0 -71 -90v-21l-115 6q-2 8 -2 19.5zM305 289q0 -168 176 -168q76 0 152 35q74 35 121 84l-4 241q-43 6 -107 6q-68 0 -117 -6t-104 -24t-86 -62q-31 -43 -31 -106z" />
<glyph unicode="&#xe4;" horiz-adv-x="1116" d="M113 256q0 358 544 358q16 0 40 -1t53 -3v103q0 106 -43 159t-164 54q-106 0 -156 -43q-49 -43 -68 -131l-163 30q25 150 123 219q100 72 280 72q197 0 287 -84t90 -276v-514q0 -45 12 -64q12 -18 51 -18q20 0 62 12l8 -117q-63 -33 -145 -32q-143 0 -162 124 q-129 -129 -338 -129q-92 0 -160 29q-66 29 -96 74q-31 45 -43 90q-12 43 -12 88zM207 1378q0 57 37 92q39 35 96 35q59 0 92 -32q35 -35 35 -93l-2 -4q0 -57 -35 -92q-33 -33 -92 -33q-55 0 -94 35q-37 33 -37 92zM305 289q0 -168 176 -168q76 0 152 35q74 35 121 84 l-4 241q-43 6 -107 6q-68 0 -117 -6t-104 -24t-86 -62q-31 -43 -31 -106zM641 1374q0 57 35 92t92 35q59 0 92 -33q35 -35 35 -92v-4q0 -57 -35 -92q-33 -33 -92 -33q-57 0 -92 35t-35 92z" />
<glyph unicode="&#xe5;" horiz-adv-x="1116" d="M113 258q0 358 544 358q16 0 40 -1t53 -3v103q0 106 -43 159t-164 54q-106 0 -156 -43q-49 -43 -68 -131l-163 30q25 150 123 220q100 72 280 71q197 0 287 -84t90 -276v-514q0 -45 12 -64q12 -18 51 -18q20 0 62 12l8 -117q-63 -33 -145 -32q-143 0 -162 124 q-129 -129 -338 -129q-92 0 -160 29q-66 29 -96 74q-31 45 -43 90q-12 43 -12 88zM305 291q0 -168 176 -168q76 0 152 35q74 35 121 84l-4 241q-43 6 -107 6q-68 0 -117 -6t-104 -24t-86 -62q-31 -43 -31 -106zM342 1374q0 100 61 156q61 55 154 55q98 0 158 -51 q61 -53 61 -154l-2 4q0 -98 -59 -153t-160 -55q-96 0 -156 53q-57 51 -57 145zM453 1380q0 -100 102 -100l2 -2q49 0 74 29q25 27 24 77q0 98 -100 99q-47 0 -74 -27q-29 -29 -28 -76z" />
<glyph unicode="&#xe6;" horiz-adv-x="1759" d="M113 256q0 348 514 358h71.5t51.5 -2v101q0 109 -45 159q-47 53 -166 54q-104 0 -154 -43q-51 -45 -66 -131l-163 30q25 150 123 222q96 70 276 69q131 0 209 -43q76 -43 113 -135q131 178 368 178q207 0 307 -131q102 -133 103 -344q0 -35 -2 -66.5t-6 -60.5h-709 q4 -195 80 -268q76 -74 219 -74q106 0 164 47q57 47 78 141l166 -36q-31 -152 -144 -228q-115 -78 -276 -78h2q-260 0 -373 160q-164 -160 -412 -160q-94 0 -168 29q-72 27 -104 74q-31 43 -45 90q-12 43 -12 88zM311 289q0 -78 37 -123t139 -45h2q180 0 304 133 q-35 96 -37 229q-18 2 -49 2h-72q-324 -4 -324 -196zM944 616l520 -2v15q0 293 -239 293q-111 0 -193 -78q-78 -76 -88 -228z" />
<glyph unicode="&#xe7;" horiz-adv-x="1101" d="M98 510q0 272 133 418q131 143 373 143q180 0 289 -92t117 -272l-179 -25q-25 236 -235 236q-131 0 -217 -87q-86 -86 -86 -292q0 -408 295 -408q223 0 264 225l164 -34q-23 -160 -125 -246q-104 -86 -254 -99l-8 -67q162 -31 162 -180q0 -94 -64 -150q-66 -55 -162 -55 q-90 0 -166 41l33 100q61 -31 115 -31q47 0 71 25q25 25 25 66q0 51 -35 73q-33 20 -114 25l20 151q-213 18 -315 160q-100 139 -101 375z" />
<glyph unicode="&#xe8;" horiz-adv-x="1118" d="M94 518q0 272 139 412q139 139 357 139q211 0 315 -123t105 -330q0 -35 -2 -68.5t-7 -66.5h-708q6 -188 84 -270q76 -80 213 -80q203 0 248 186l163 -36q-31 -152 -141 -228q-113 -78 -274 -78l-6 -6q-135 0 -234 43q-96 43 -149 123q-55 84 -78 174q-25 94 -25 209z M293 625l520 2q0 293 -238 293q-115 0 -194 -74q-78 -74 -88 -221zM336 1526h223l199 -334l-135 -25z" />
<glyph unicode="&#xe9;" horiz-adv-x="1118" d="M94 518q0 272 139 412q139 139 357 139q211 0 315 -123t105 -330q0 -35 -2 -68.5t-7 -66.5h-708q6 -188 84 -270q76 -80 213 -80q203 0 248 186l163 -36q-31 -152 -141 -228q-113 -78 -274 -78l-6 -6q-135 0 -234 43q-96 43 -149 123q-55 84 -78 174q-25 94 -25 209z M293 625l520 2q0 293 -238 293q-115 0 -194 -74q-78 -74 -88 -221zM410 1192l198 334h223l-286 -359z" />
<glyph unicode="&#xea;" horiz-adv-x="1118" d="M94 518q0 272 139 412q139 139 357 139q211 0 315 -123t105 -330q0 -35 -2 -68.5t-7 -66.5h-708q6 -188 84 -270q76 -80 213 -80q203 0 248 186l163 -36q-31 -152 -141 -228q-113 -78 -274 -78l-6 -6q-135 0 -234 43q-96 43 -149 123q-55 84 -78 174q-25 94 -25 209z M268 1194l230 338h182l231 -338l-141 -12l-182 231l-180 -233zM293 625l520 2q0 293 -238 293q-115 0 -194 -74q-78 -74 -88 -221z" />
<glyph unicode="&#xeb;" horiz-adv-x="1118" d="M94 518q0 272 139 412q139 139 357 139q211 0 315 -123t105 -330q0 -35 -2 -68.5t-7 -66.5h-708q6 -188 84 -270q76 -80 213 -80q203 0 248 186l163 -36q-31 -152 -141 -228q-113 -78 -274 -78l-6 -6q-135 0 -234 43q-96 43 -149 123q-55 84 -78 174q-25 94 -25 209z M233 1370q0 57 37 92q39 35 97 35q59 0 92 -33q35 -35 35 -92l-2 -4q0 -57 -35 -92q-33 -33 -92 -33q-55 0 -95 35q-37 33 -37 92zM293 625l520 2q0 293 -238 293q-115 0 -194 -74q-78 -74 -88 -221zM668 1366q0 57 34 92q35 35 93 35q59 0 92 -33q35 -35 35 -92v-4 q0 -57 -35 -92q-33 -33 -92 -33q-57 0 -93 35q-35 35 -34 92z" />
<glyph unicode="&#xec;" horiz-adv-x="509" d="M16 1530h224l198 -334l-135 -25zM166 0v1053h186v-1053h-186z" />
<glyph unicode="&#xed;" horiz-adv-x="509" d="M90 1196l199 334h223l-287 -359zM166 0v1053h186v-1053h-186z" />
<glyph unicode="&#xee;" horiz-adv-x="509" d="M-59 1194l229 338h182l232 -338l-142 -12l-182 231l-180 -233zM166 0v1053h186v-1053h-186z" />
<glyph unicode="&#xef;" horiz-adv-x="509" d="M-86 1374q0 57 37 92q39 35 96 35q59 0 92 -33q35 -35 35 -92l-2 -4q0 -57 -35 -92q-33 -33 -92 -33q-55 0 -94 35q-37 33 -37 92zM166 0v1053h186v-1053h-186zM348 1370q0 57 35 92t92 35q59 0 92 -33q35 -35 35 -92v-4q0 -57 -35 -92q-33 -33 -92 -33q-57 0 -92 35 t-35 92z" />
<glyph unicode="&#xf0;" horiz-adv-x="1177" d="M100 510q0 223 123 371q123 147 348 147q170 0 291 -80q-61 188 -174 301l-196 -112l-80 120l149 84q-115 63 -264 86l61 142q217 -31 369 -133l213 120l74 -124l-170 -97q231 -248 231 -692q0 -100 -12 -192q-12 -90 -49 -181q-37 -90 -92 -153q-55 -66 -144 -105 q-86 -39 -203 -39q-475 0 -475 537zM289 514h2q0 -393 284 -393q166 0 240 141t74 367q0 68 -6 135q-41 45 -123 80q-86 35 -168 35q-152 0 -227 -95q-76 -94 -76 -270z" />
<glyph unicode="&#xf1;" horiz-adv-x="1191" d="M164 0v1053h164l10 -125q184 147 379 147q166 0 246 -90t79 -270l-6 -715h-186v686q0 117 -45 170q-47 55 -150 55q-80 0 -168 -41q-84 -39 -137 -86v-784h-186zM264 1229.5v27.5q0 100 51 154q51 55 125 55v-4q70 0 170 -47t140 -47q41 0 59 23q18 20 18 84l113 -5 q2 -18 3 -30.5t1 -18.5q0 -98 -49 -149t-127 -51q-68 0 -172 47t-143 47q-72 0 -72 -90v-21l-115 6q-2 8 -2 19.5z" />
<glyph unicode="&#xf2;" horiz-adv-x="1183" d="M98 522q0 258 133 408q131 147 381 147q242 0 357 -141q115 -143 114 -389q0 -571 -497 -572h-2q-485 0 -486 547zM293 530q0 -209 74 -307t227 -98l2 -2q293 0 293 409q0 213 -70 302q-70 88 -215 88q-311 0 -311 -392zM360 1528h224l198 -334l-135 -25z" />
<glyph unicode="&#xf3;" horiz-adv-x="1183" d="M98 522q0 258 133 408q131 147 381 147q242 0 357 -141q115 -143 114 -389q0 -571 -497 -572h-2q-485 0 -486 547zM293 530q0 -209 74 -307t227 -98l2 -2q293 0 293 409q0 213 -70 302q-70 88 -215 88q-311 0 -311 -392zM434 1194l199 334h223l-287 -359z" />
<glyph unicode="&#xf4;" horiz-adv-x="1183" d="M98 522q0 258 133 408q131 147 381 147q242 0 357 -141q115 -143 114 -389q0 -571 -497 -572h-2q-485 0 -486 547zM285 1194l229 338h182l232 -338l-142 -12l-182 231l-180 -233zM293 530q0 -209 74 -307t227 -98l2 -2q293 0 293 409q0 213 -70 302q-70 88 -215 88 q-311 0 -311 -392z" />
<glyph unicode="&#xf5;" horiz-adv-x="1183" d="M98 522q0 258 133 408q131 147 381 147q242 0 357 -141q115 -143 114 -389q0 -571 -497 -572h-2q-485 0 -486 547zM264 1227.5v27.5q0 100 51 154q51 55 125 55v-4q70 0 170 -47t140 -47q41 0 59 23q18 20 18 84l113 -5q2 -18 3 -30.5t1 -18.5q0 -98 -49 -149t-127 -51 q-68 0 -172 47t-143 47q-72 0 -72 -90v-21l-115 6q-2 8 -2 19.5zM293 530q0 -209 74 -307t227 -98l2 -2q293 0 293 409q0 213 -70 302q-70 88 -215 88q-311 0 -311 -392z" />
<glyph unicode="&#xf6;" horiz-adv-x="1183" d="M98 522q0 258 133 408q131 147 381 147q242 0 357 -141q115 -143 114 -389q0 -571 -497 -572h-2q-485 0 -486 547zM258 1372q0 57 37 92q39 35 96 35q59 0 92 -33q35 -35 35 -92l-2 -4q0 -57 -35 -92q-33 -33 -92 -33q-55 0 -94 35q-37 33 -37 92zM293 530 q0 -209 74 -307t227 -98l2 -2q293 0 293 409q0 213 -70 302q-70 88 -215 88q-311 0 -311 -392zM692 1368q0 57 35 92t92 35q59 0 92 -33q35 -35 35 -92v-4q0 -57 -35 -92q-33 -33 -92 -33q-57 0 -92 35t-35 92z" />
<glyph unicode="&#xf7;" horiz-adv-x="1167" d="M195 571v172h772v-172h-772zM436 979q0 57 35 92t98 35q131 0 131 -127h-2q0 -129 -131 -129t-131 129zM438 340q0 57 35 92t98 35q131 0 131 -127t-131 -127t-131 127h-2z" />
<glyph unicode="&#xf8;" horiz-adv-x="1183" d="M98 520q0 258 133 408q131 147 381 147q66 0 125 -12l62 137h174l-86 -196q197 -129 196 -457q0 -571 -497 -572l-2 -2q-88 0 -148 15l-59 -138h-176l88 201q-190 129 -191 469zM291 528q0 -207 74 -307l305 692q-31 6 -68 7q-311 -1 -311 -392zM502 133q37 -10 92 -10 q293 0 293 409q0 213 -76 304z" />
<glyph unicode="&#xf9;" horiz-adv-x="1189" d="M160 1057h186v-686q0 -115 41 -172q39 -55 152 -56q80 0 168 41q84 39 137 86v783h186v-1053h-162l-12 121q-172 -141 -373 -141q-322 0 -321 358zM354 1534h224l198 -334l-135 -24z" />
<glyph unicode="&#xfa;" horiz-adv-x="1189" d="M160 1057h186v-686q0 -115 41 -172q39 -55 152 -56q80 0 168 41q84 39 137 86v783h186v-1053h-162l-12 121q-172 -141 -373 -141q-322 0 -321 358zM428 1200l199 334h223l-287 -358z" />
<glyph unicode="&#xfb;" horiz-adv-x="1189" d="M160 1057h186v-686q0 -115 41 -172q39 -55 152 -56q80 0 168 41q84 39 137 86v783h186v-1053h-162l-12 121q-172 -141 -373 -141q-322 0 -321 358zM281 1194l229 338h182l232 -338l-142 -12l-182 231l-180 -233z" />
<glyph unicode="&#xfc;" horiz-adv-x="1189" d="M160 1057h186v-686q0 -115 41 -172q39 -55 152 -56q80 0 168 41q84 39 137 86v783h186v-1053h-162l-12 121q-172 -141 -373 -141q-322 0 -321 358zM252 1378q0 57 37 92q39 35 96 35q59 0 92 -32q35 -35 35 -93l-2 -4q0 -57 -35 -92q-33 -33 -92 -33q-55 0 -94 35 q-37 33 -37 92zM686 1374q0 57 35 92t92 35q59 0 92 -33q35 -35 35 -92v-4q0 -57 -35 -92q-33 -33 -92 -33q-57 0 -92 35t-35 92z" />
<glyph unicode="&#xfd;" horiz-adv-x="993" d="M-20 -418l22 146q86 -33 168 -33q127 0 188 164l50 129l-390 1063h207l279 -836h2l289 836h190l-455 -1207q-66 -168 -143 -233q-80 -68 -205 -68q-119 0 -202 39zM336 1194l199 334h223l-287 -359z" />
<glyph unicode="&#xfe;" horiz-adv-x="1189" d="M160 -436v1980h184v-610q158 139 356 139q176 0 281 -125q104 -127 104 -399q0 -291 -122 -432q-123 -141 -320 -142q-164 0 -295 107h-2v-516zM346 240q150 -109 270 -109q274 0 275 420q0 186 -62 276q-61 88 -190 88q-82 0 -160 -38q-82 -41 -133 -93v-544z" />
<glyph unicode="&#xff;" horiz-adv-x="993" d="M-20 -418l22 146q86 -33 168 -33q127 0 188 164l50 129l-390 1063h207l279 -836h2l289 836h190l-455 -1207q-66 -168 -143 -233q-80 -68 -205 -68q-119 0 -202 39zM160 1372q0 57 37 92q39 35 96 35q59 0 92 -33q35 -35 35 -92l-2 -4q0 -57 -35 -92q-33 -33 -92 -33 q-55 0 -94 35q-37 33 -37 92zM594 1368q0 57 35 92t92 35q59 0 92 -33q35 -35 35 -92v-4q0 -57 -35 -92q-33 -33 -92 -33q-57 0 -92 35t-35 92z" />
<glyph unicode="&#x2dc;" horiz-adv-x="1024" d="M172 1229.5v27.5q0 100 51 154q51 55 125 55v-4q70 0 170 -47t139 -47q41 0 60 23q18 20 18 84l113 -5q2 -18 3 -30.5t1 -18.5q0 -98 -49 -149t-127 -51q-68 0 -172 47t-144 47q-72 0 -71 -90v-21l-115 6q-2 8 -2 19.5z" />
<glyph unicode="&#x2000;" horiz-adv-x="935" />
<glyph unicode="&#x2001;" horiz-adv-x="1870" />
<glyph unicode="&#x2002;" horiz-adv-x="935" />
<glyph unicode="&#x2003;" horiz-adv-x="1870" />
<glyph unicode="&#x2004;" horiz-adv-x="623" />
<glyph unicode="&#x2005;" horiz-adv-x="467" />
<glyph unicode="&#x2006;" horiz-adv-x="311" />
<glyph unicode="&#x2007;" horiz-adv-x="311" />
<glyph unicode="&#x2008;" horiz-adv-x="233" />
<glyph unicode="&#x2009;" horiz-adv-x="374" />
<glyph unicode="&#x200a;" horiz-adv-x="103" />
<glyph unicode="&#x2010;" horiz-adv-x="647" d="M41 514v178h555v-178h-555z" />
<glyph unicode="&#x2011;" horiz-adv-x="647" d="M41 514v178h555v-178h-555z" />
<glyph unicode="&#x2012;" horiz-adv-x="647" d="M41 514v178h555v-178h-555z" />
<glyph unicode="&#x2013;" horiz-adv-x="1024" d="M0 502v149h1022v-149h-1022z" />
<glyph unicode="&#x2014;" horiz-adv-x="2048" d="M0 502v149h2046v-149h-2046z" />
<glyph unicode="&#x2018;" horiz-adv-x="387" d="M66 1133l167 464l142 -18l-109 -446h-200z" />
<glyph unicode="&#x2019;" horiz-adv-x="387" d="M49 1124l109 447h200l-168 -465z" />
<glyph unicode="&#x201c;" horiz-adv-x="702" d="M66 1133l167 464l142 -18l-109 -446h-200zM383 1133l168 464l141 -18l-108 -446h-201z" />
<glyph unicode="&#x201d;" horiz-adv-x="702" d="M49 1124l109 447h200l-168 -465zM365 1124l108 447h201l-168 -465z" />
<glyph unicode="&#x201e;" horiz-adv-x="686" d="M23 -266l108 446h201l-168 -465zM338 -266l108 446h201l-168 -465z" />
<glyph unicode="&#x2022;" horiz-adv-x="802" d="M119 573q0 139 74 207t208 68q281 0 281 -275v-2q0 -276 -281 -276q-137 0 -208 70q-74 70 -74 208z" />
<glyph unicode="&#x2026;" horiz-adv-x="1306" d="M92 113q0 137 139 137t140 -137q0 -137 -140 -138q-139 0 -139 138zM516 113q0 137 139 137t140 -137q0 -137 -140 -138q-139 0 -139 138zM936 113q0 137 139 137t139 -137t-139 -138q-139 0 -139 138z" />
<glyph unicode="&#x202f;" horiz-adv-x="374" />
<glyph unicode="&#x2039;" horiz-adv-x="569" d="M117 530l182 306h168l-172 -299l168 -326h-168z" />
<glyph unicode="&#x203a;" horiz-adv-x="569" d="M100 211l172 307l-172 318h168l181 -316l-181 -309h-168z" />
<glyph unicode="&#x205f;" horiz-adv-x="467" />
<glyph unicode="&#x20ac;" horiz-adv-x="1253" d="M18 508l23 139h131v68v55.5t2 38.5h-113l23 139h104q43 289 197 424t373 135q199 0 319 -108q119 -106 135 -336l-170 -16q-18 164 -81 229q-66 68 -205 67q-319 0 -377 -393h461l-25 -139h-450v-86v-45t2 -31h430l-25 -139h-395q27 -188 115 -283q86 -92 245 -92 q131 0 207 66q74 66 103 207l159 -37q-31 -207 -166 -301q-133 -94 -315 -95l-4 -4q-469 0 -537 537h-166z" />
<glyph unicode="&#x2122;" horiz-adv-x="1703" d="M53 1372v111h652v-111h-265v-659h-123v659h-264zM815 713v770h146l235 -606l242 606h133v-770h-113v547l-219 -547h-94l-215 549v-549h-115z" />
</font>
</defs>
</svg>
