<?xml version="1.0" standalone="no"?>
<!DOCTYPE svg PUBLIC "-//W3C//DTD SVG 1.1//EN" "http://www.w3.org/Graphics/SVG/1.1/DTD/svg11.dtd" >
<svg xmlns="http://www.w3.org/2000/svg">
<metadata></metadata>
<defs>
<font id="adelle_sanslight" horiz-adv-x="1554" >
<font-face units-per-em="2048" ascent="1536" descent="-512" />
<missing-glyph horiz-adv-x="471" />
<glyph horiz-adv-x="0" />
<glyph unicode="&#xd;" horiz-adv-x="471" />
<glyph horiz-adv-x="0" />
<glyph horiz-adv-x="0" />
<glyph unicode=" "  horiz-adv-x="471" />
<glyph unicode="&#x09;" horiz-adv-x="471" />
<glyph unicode="&#xa0;" horiz-adv-x="471" />
<glyph unicode="!" horiz-adv-x="524" d="M145 92q0 117 119 117t119 -117t-119 -117t-119 117zM182 1483h158l-31 -1108h-92z" />
<glyph unicode="&#x22;" horiz-adv-x="737" d="M133 952v531h148v-531h-148zM457 952v531h147v-531h-147z" />
<glyph unicode="#" horiz-adv-x="1243" d="M74 299l26 107h240l51 331h-248l25 109h240l38 266h123l-41 -266h273l39 266h123l-41 -266h247l-22 -109h-242l-47 -331h244l-23 -107h-237l-45 -299h-121l45 299h-277l-45 -299h-120l43 299h-248zM461 406h276l47 331h-272z" />
<glyph unicode="$" horiz-adv-x="1067" d="M76 397l129 29q12 -74 31.5 -127t52.5 -90t81 -57.5t119 -24.5v551q-68 18 -133 41.5t-115.5 65.5t-82 107.5t-31.5 170.5q0 90 27.5 159.5t77 116.5t115 75t142.5 36v172h115v-170q150 -12 237 -97t111 -259l-131 -23q-10 49 -25.5 92t-40 77t-61.5 56.5t-90 30.5v-551 q76 -20 141.5 -48t114.5 -72t77 -108.5t28 -156.5q0 -164 -95.5 -261t-265.5 -116v-180h-115v178q-82 2 -152.5 22.5t-123.5 64.5t-89 116t-48 180zM266 1073q0 -47 10.5 -87t35 -72.5t67.5 -59.5t110 -47v522q-68 -8 -110.5 -32.5t-67 -60.5t-35 -78t-10.5 -85zM604 131 q96 16 157.5 76.5t61.5 183.5q0 57 -17.5 99t-47 71t-69.5 48.5t-85 35.5v-514z" />
<glyph unicode="%" horiz-adv-x="1615" d="M102 1126q0 84 21.5 155t64.5 121t105.5 78.5t144.5 28.5q168 0 243 -98t75 -258q0 -86 -21.5 -156.5t-63.5 -122t-104.5 -80t-144.5 -28.5q-90 0 -151.5 29.5t-98.5 80t-53.5 116t-16.5 134.5zM236 1137q0 -82 20 -147.5t78 -96.5q35 -21 94 -21q57 0 95 20.5t59.5 57.5 t31 87t9.5 108q0 78 -19.5 142.5t-75.5 92.5q-41 20 -94 21q-59 0 -97 -24.5t-60.5 -62.5t-31.5 -85t-9 -92zM283 -35l399 674l500 844h133l-400 -674l-497 -844h-135zM860 336q0 84 21.5 154.5t64.5 121t105.5 79t144.5 28.5q168 0 242.5 -98.5t74.5 -258.5 q0 -86 -21.5 -156.5t-63.5 -121.5t-104 -80t-144 -29q-90 0 -151.5 30t-98.5 80t-53.5 115.5t-16.5 135.5zM993 346q0 -53 8.5 -101t30 -84t59.5 -57.5t95 -21.5t95 20.5t59.5 57.5t30.5 87t9 107q0 51 -8 97.5t-29.5 82t-57.5 56t-93 20.5q-59 0 -97 -24.5t-60.5 -62.5 t-32 -85t-9.5 -92z" />
<glyph unicode="&#x26;" horiz-adv-x="1394" d="M129 373q0 152 70.5 245t197.5 164q-59 111 -75 234q-6 39 -7 82q0 68 26 128t72 104t109.5 70.5t141.5 26.5q35 0 75 -6q39 -6 77 -23.5t68.5 -48t49 -78.5t18.5 -118q0 -61 -18.5 -112.5t-64.5 -97.5t-121.5 -92t-188.5 -99q31 -55 78 -123t99 -136.5t105.5 -132 t96.5 -108.5q61 80 89 191.5t32 244.5h123q-4 -141 -39 -277.5t-119 -240.5q47 -41 95 -64.5t102 -23.5q47 0 100 24l33 -94q-29 -20 -68 -28.5t-72 -8.5q-86 0 -148 31t-126 82q-68 -53 -159 -83t-210 -30q-96 0 -178 29t-140 81t-91 126t-33 162zM264 385 q0 -55 19.5 -107.5t58.5 -94.5t99.5 -66.5t142.5 -24.5q164 0 270 76q-141 137 -241.5 277.5t-166.5 250.5q-61 -35 -105 -83t-65 -119q-12 -49 -12 -109zM451 1106q0 -129 63 -264l84 37q119 51 173 116.5t54 151.5q0 66 -43 114t-129 48q-90 0 -146 -51.5t-56 -151.5z" />
<glyph unicode="'" horiz-adv-x="413" d="M133 952v531h148v-531h-148z" />
<glyph unicode="(" horiz-adv-x="612" d="M121 573q0 137 26.5 265.5t70.5 243t99.5 216t112.5 185.5h141q-147 -238 -229 -458t-82 -450q0 -135 21.5 -252.5t60.5 -225t92 -209t115 -201.5l-137 2q-55 86 -107.5 182t-93.5 206.5t-65.5 233.5t-24.5 262z" />
<glyph unicode=")" horiz-adv-x="612" d="M41 1483h141q57 -84 112.5 -185.5t99.5 -216t71 -242.5t27 -266q0 -139 -25 -262t-66 -233.5t-93 -206.5t-107 -182l-138 -2q61 100 114.5 201.5t92.5 209t60.5 225t21.5 252.5q0 229 -82 449.5t-229 458.5z" />
<glyph unicode="*" horiz-adv-x="960" d="M115 1255l22 62l277 -68l39 297h61l35 -297l272 70l21 -62l-254 -127l168 -258l-51 -38l-226 213l-221 -218l-51 41l166 258z" />
<glyph unicode="+" horiz-adv-x="1167" d="M201 598v127h311v315h141v-315h312v-127h-312v-330h-141v330h-311z" />
<glyph unicode="," horiz-adv-x="425" d="M45 -240l109 430h161l-161 -446z" />
<glyph unicode="-" horiz-adv-x="649" d="M41 537v137h555v-137h-555z" />
<glyph unicode="." horiz-adv-x="442" d="M102 92q0 117 119 117t119 -117t-119 -117t-119 117z" />
<glyph unicode="/" horiz-adv-x="722" d="M12 -188l576 1734h123l-574 -1734h-125z" />
<glyph unicode="0" horiz-adv-x="1132" d="M92 735q0 156 20.5 296t74 246.5t148.5 169t247 62.5q150 0 239.5 -62.5t139 -165.5t64.5 -237.5t15 -279.5q0 -164 -18 -308.5t-70.5 -251t-146.5 -168t-244 -61.5q-152 0 -243 60.5t-142 164t-67.5 242t-16.5 293.5zM233 729q0 -129 11.5 -244.5t47.5 -203.5 t101 -139.5t174 -51.5q106 0 172 51.5t102 140.5t47 208.5t11 259.5q0 135 -10 251.5t-43 202.5t-97.5 135.5t-170.5 49.5q-109 0 -176.5 -49.5t-104.5 -137.5t-50.5 -209t-13.5 -264z" />
<glyph unicode="1" horiz-adv-x="821" d="M88 1311q147 12 240.5 51t163.5 121h63v-1483h-133v1278q-27 -16 -71 -29.5t-91 -22.5t-90 -14.5t-68 -5.5z" />
<glyph unicode="2" horiz-adv-x="1054" d="M106 1151q31 193 146 275.5t287 82.5q84 0 155.5 -20.5t123.5 -64.5t81 -112.5t29 -164.5q0 -86 -23.5 -164t-65.5 -153.5t-101.5 -153.5t-133.5 -164l-325 -393h669v-119h-825v106l358 445q80 98 138.5 174t95.5 142.5t54 130t17 141.5q0 139 -71.5 197.5t-190.5 58.5 q-82 0 -134 -21.5t-85 -57.5t-49 -85t-27 -105z" />
<glyph unicode="3" horiz-adv-x="1095" d="M90 303l133 25q8 -49 23.5 -92t46.5 -74t82 -49.5t133 -18.5q61 0 117.5 18.5t98.5 56.5t67.5 99.5t25.5 147.5q0 88 -25.5 147.5t-70.5 96t-107.5 52t-136.5 15.5h-127v119h94q166 0 259.5 83t93.5 216q0 51 -12.5 95t-43 78t-80 53.5t-122.5 19.5q-72 0 -120 -15.5 t-80 -44t-51.5 -69.5t-33.5 -95l-127 29q18 88 57 147.5t94.5 96.5t126 53t150.5 16q94 0 166 -25.5t119 -71.5t71.5 -109.5t24.5 -139.5q0 -88 -27.5 -151.5t-70.5 -106.5t-94.5 -68.5t-100.5 -35.5v-4q143 -23 230.5 -114t87.5 -267q0 -98 -32 -179t-91.5 -139.5 t-144.5 -90.5t-189 -32q-174 0 -283.5 78t-130.5 250z" />
<glyph unicode="4" horiz-adv-x="1095" d="M41 381v100l651 1002h176v-985h179v-117h-181v-381h-133v381h-692zM186 498h549v850z" />
<glyph unicode="5" horiz-adv-x="1093" d="M70 305l133 33q10 -43 27.5 -86t51 -77t86 -55.5t132.5 -21.5q59 0 118.5 20.5t106.5 66.5t75.5 120t28.5 180q0 174 -83.5 254t-215.5 80q-84 0 -153.5 -31.5t-128.5 -89.5l-96 45l57 740h680v-119h-565l-45 -524q53 41 122.5 70.5t167.5 29.5q74 0 146.5 -20.5 t131 -71.5t95.5 -139t37 -222q0 -111 -32 -205t-93 -161.5t-150.5 -106.5t-205.5 -39q-78 0 -148.5 19.5t-128 59.5t-97.5 102.5t-54 148.5z" />
<glyph unicode="6" horiz-adv-x="1146" d="M137 688q0 82 9.5 174t32 183.5t60 175.5t97 148.5t140.5 102t192 37.5q129 0 225 -68.5t129 -234.5l-123 -32q-16 68 -40.5 109.5t-55.5 66t-70 34t-82 9.5q-78 0 -135 -32t-99 -85t-70 -123t-45 -145.5t-24.5 -151.5t-7.5 -141q27 33 67 65.5t90 59t107.5 44 t118.5 17.5q100 0 174 -32.5t122 -90t70.5 -135.5t22.5 -168q0 -117 -30.5 -210t-89 -157.5t-141.5 -98.5t-185 -34q-141 0 -230.5 58.5t-140.5 157t-69.5 227.5t-18.5 270zM279 586q4 -86 17 -174t47 -161t95.5 -118t163.5 -45q63 0 118.5 21.5t96.5 67.5t64.5 117 t23.5 169q0 160 -66.5 239.5t-191.5 79.5q-57 0 -110.5 -17t-101.5 -45t-86.5 -62.5t-69.5 -71.5z" />
<glyph unicode="7" horiz-adv-x="1034" d="M76 1364v119h917v-103l-618 -1380h-148l619 1364h-770z" />
<glyph unicode="8" horiz-adv-x="1081" d="M86 352q0 82 26.5 144.5t72.5 109.5t104.5 83t124.5 65q-57 25 -108.5 61.5t-89.5 84.5t-60.5 105.5t-22.5 122.5q0 94 34 166t93 119t139 71.5t172 24.5q190 0 300 -89t110 -249q0 -68 -23.5 -127t-65.5 -109t-99 -92t-125 -75q61 -27 121.5 -58.5t108.5 -77.5 t77 -109.5t29 -155.5q0 -86 -33 -158t-94.5 -124t-147.5 -81t-192 -29q-119 0 -204 29t-140.5 80t-81 119.5t-25.5 148.5zM223 356q0 -55 18.5 -104t56.5 -86t98.5 -57.5t146.5 -20.5q88 0 150.5 25.5t101.5 65.5t56 90t17 100q0 78 -32.5 132t-81.5 92t-109 62.5t-113 44.5 q-72 -31 -128 -63.5t-97 -72.5t-62.5 -90t-21.5 -118zM268 1147q0 -66 24.5 -118t64.5 -93t90.5 -71t103.5 -50q61 31 115.5 69t94.5 82t62.5 95t22.5 108q0 109 -70.5 170.5t-216.5 61.5q-135 0 -213 -68.5t-78 -185.5z" />
<glyph unicode="9" horiz-adv-x="1146" d="M109 285l127 32q33 -133 105.5 -181t176.5 -48q106 0 177 54.5t112 145.5t58.5 210.5t21.5 253.5q-27 -33 -67 -66t-91 -59.5t-108.5 -44t-118.5 -17.5q-102 0 -175 34t-121 94.5t-70.5 141t-22.5 175.5q0 117 30.5 209t89 156.5t141.5 99t185 34.5q141 0 230.5 -58 t140.5 -156.5t69.5 -227.5t18.5 -270q0 -102 -8.5 -202.5t-30 -192t-58 -169t-93 -135t-136.5 -90.5t-186 -33q-150 0 -257.5 72t-139.5 238zM250 1012q0 -160 66.5 -244t201.5 -84q53 0 103.5 16.5t96.5 43t87 62.5t72 75q-4 86 -17.5 177t-47.5 166.5t-95.5 124 t-163.5 48.5q-63 0 -118.5 -22.5t-96.5 -68.5t-64.5 -120t-23.5 -174z" />
<glyph unicode=":" horiz-adv-x="442" d="M102 92q0 117 119 117t119 -117t-119 -117t-119 117zM102 899q0 117 119 117t119 -117t-119 -117t-119 117z" />
<glyph unicode=";" horiz-adv-x="425" d="M23 -240l108 430h162l-162 -446zM123 899q0 117 119 117q118 0 118 -117t-118 -117q-119 0 -119 117z" />
<glyph unicode="&#x3c;" horiz-adv-x="1167" d="M182 504v160l766 325v-133l-635 -264l635 -252v-139z" />
<glyph unicode="=" horiz-adv-x="1167" d="M207 350v127h756v-127h-756zM207 676v127h756v-127h-756z" />
<glyph unicode="&#x3e;" horiz-adv-x="1167" d="M182 213v127l635 252l-635 258v139l766 -325v-148z" />
<glyph unicode="?" horiz-adv-x="1009" d="M27 1145q12 59 39.5 119.5t79 108.5t129 79t190.5 31q82 0 156.5 -19.5t132 -63.5t90.5 -118t33 -184q0 -111 -36 -190t-97.5 -133t-143.5 -87t-174 -49v-266h-129v362q86 8 166 26.5t141.5 58.5t97 103.5t35.5 161.5q0 84 -22.5 138.5t-60.5 85t-89 43t-108 12.5 q-55 0 -103.5 -10.5t-88.5 -37t-69.5 -73.5t-45.5 -123zM240 92q0 117 118 117q119 0 119 -117t-119 -117t-118 117z" />
<glyph unicode="@" horiz-adv-x="1714" d="M102 391q0 174 57.5 317.5t162 244t250 155.5t321.5 55q152 0 283 -40t228 -120.5t152.5 -203.5t55.5 -287q0 -268 -95.5 -392t-248.5 -124q-84 0 -141.5 31.5t-82.5 83.5q-39 -53 -102 -90t-149 -37t-144.5 30.5t-94.5 83t-50.5 121t-14.5 146.5q0 96 25 178t71 142 t111.5 94t147.5 34q113 0 192 -74l8 62h113v-512q0 -41 2 -76t13.5 -60.5t35 -40t66.5 -14.5q41 0 79 21.5t65.5 67.5t44 119t16.5 175q0 150 -41 257.5t-118 177t-187.5 101.5t-251.5 32q-147 0 -266 -48.5t-202 -134.5t-128 -206.5t-45 -264.5q0 -162 49 -278.5 t136 -193.5t206 -113.5t256 -36.5t247.5 38.5t180.5 104.5l78 -86q-92 -92 -230.5 -133t-292.5 -41q-162 0 -302 46t-243.5 138t-163 229.5t-59.5 321.5zM627 369q0 -59 9 -109.5t30.5 -87.5t55.5 -57.5t85 -20.5q74 0 132 42t91 108v389q-35 29 -76 49t-100 20 q-94 0 -160.5 -78.5t-66.5 -254.5z" />
<glyph unicode="A" horiz-adv-x="1388" d="M92 0l504 1483h188l512 -1483h-151l-160 477h-598l-160 -477h-135zM428 598h518l-258 772z" />
<glyph unicode="B" horiz-adv-x="1298" d="M215 0v1483h487q131 0 217.5 -28t136.5 -77t70.5 -115.5t20.5 -142.5q0 -80 -24.5 -139t-66.5 -102t-98.5 -69t-119.5 -38v-4q186 -25 272 -120t86 -249q0 -115 -40 -190.5t-111.5 -122.5t-172 -66.5t-221.5 -19.5h-436zM350 121h291q86 0 162 9t131 39t87 86t32 148 q0 100 -39 159t-104.5 89.5t-152.5 38.5t-184 8h-223v-577zM350 817h254q63 0 133 12.5t129.5 44t98.5 88t39 144.5q0 90 -27 142t-81 78t-137 32t-196 6h-213v-547z" />
<glyph unicode="C" horiz-adv-x="1415" d="M113 715q0 193 49 341t138 248.5t215 152.5t278 52q113 0 208 -28.5t164.5 -88t112.5 -150.5t53 -216l-129 -12q-12 90 -40.5 159.5t-78 117.5t-121 74t-169.5 26q-125 0 -225.5 -42t-170 -125t-107.5 -207t-38 -286q0 -170 35 -291t100.5 -198.5t159.5 -114.5t215 -37 q186 0 290.5 81t145.5 255l121 -27q-20 -119 -75.5 -199.5t-132.5 -131t-170 -72t-189 -21.5q-172 0 -293 54.5t-198 152t-112.5 233.5t-35.5 300z" />
<glyph unicode="D" horiz-adv-x="1492" d="M215 0v1483h430q193 0 332 -50.5t228 -143.5t132 -226t43 -299q0 -170 -46 -311.5t-140 -241.5t-239.5 -155.5t-344.5 -55.5h-395zM352 119h269q305 0 460.5 160.5t155.5 453.5q0 184 -42 305t-120 194t-189.5 102.5t-252.5 29.5h-281v-1245z" />
<glyph unicode="E" horiz-adv-x="1171" d="M215 0v1483h838v-119h-701v-551h656v-121h-656v-573h721v-119h-858z" />
<glyph unicode="F" horiz-adv-x="1116" d="M215 0v1483h838v-119h-701v-578h649v-120h-649v-666h-137z" />
<glyph unicode="G" horiz-adv-x="1505" d="M113 725q0 193 48 339t137 245.5t216 149.5t283 50q115 0 209 -26.5t162.5 -85t110.5 -150.5t52 -221l-129 -14q-23 209 -127 295t-284 86q-252 0 -395.5 -171t-143.5 -485q0 -190 41 -316t111.5 -200t165 -103.5t200.5 -29.5q109 0 189.5 37t135 95.5t81 130t26.5 143.5 v153h-444v121h569v-768h-102l-23 209q-18 -47 -61 -89t-103.5 -75t-134.5 -51.5t-155 -18.5q-168 0 -288 55.5t-197 154t-113.5 236.5t-36.5 304z" />
<glyph unicode="H" horiz-adv-x="1486" d="M215 0v1483h137v-660h783v660h137v-1483h-137v702h-783v-702h-137z" />
<glyph unicode="I" horiz-adv-x="567" d="M215 0v1483h137v-1483h-137z" />
<glyph unicode="J" horiz-adv-x="997" d="M61 291l132 22q6 -51 18 -92t36.5 -69.5t66.5 -44t110 -15.5q49 0 93 8.5t77 36t52.5 78.5t19.5 135v1133h137v-1129q0 -111 -27.5 -183.5t-79 -116.5t-122 -61.5t-158.5 -17.5q-178 0 -262 79t-93 237z" />
<glyph unicode="K" horiz-adv-x="1294" d="M215 0v1483h137v-760l703 760h162l-601 -645l644 -838h-162l-574 739l-172 -184v-555h-137z" />
<glyph unicode="L" horiz-adv-x="1116" d="M215 0v1483h137v-1364h680v-119h-817z" />
<glyph unicode="M" horiz-adv-x="1822" d="M215 0v1483h213l485 -1346l486 1346h209v-1483h-131v1335l-488 -1335h-162l-483 1337v-1337h-129z" />
<glyph unicode="N" horiz-adv-x="1525" d="M215 0v1483h197l770 -1317v1317h129v-1483h-174l-791 1335v-1335h-131z" />
<glyph unicode="O" d="M113 743q0 166 45 306.5t132 243t214 159.5t293 57q164 0 284.5 -57t200.5 -156.5t120 -233.5t40 -288q0 -182 -43 -329.5t-128 -252t-211 -161t-292 -56.5q-168 0 -291 57.5t-203.5 160t-120.5 244t-40 306.5zM256 743q0 -158 38 -278.5t106.5 -202.5t164.5 -124 t211 -42t211 41t166 123t108.5 205t38.5 289q0 154 -36.5 272.5t-103 198.5t-161 122t-206.5 42q-115 0 -213.5 -42t-170 -124t-112.5 -203t-41 -277z" />
<glyph unicode="P" horiz-adv-x="1257" d="M215 0v1483h453q141 0 236 -35t152.5 -95.5t81 -139t23.5 -166.5q0 -131 -39 -223.5t-111.5 -150t-177 -83t-233.5 -25.5h-250v-565h-135zM350 686h246q88 0 165 12.5t134 51t90 108.5t33 184q0 100 -28.5 164t-89 98.5t-152 47t-213.5 12.5h-185v-678z" />
<glyph unicode="Q" d="M113 743q0 166 45 306.5t132 243t214 159.5t293 57q164 0 284.5 -57t200.5 -156.5t120 -233.5t40 -288q0 -199 -51.5 -355.5t-153.5 -260.5l188 -205l-86 -78l-192 205q-78 -51 -171 -78t-208 -27q-168 0 -291 57.5t-203.5 160t-120.5 244t-40 306.5zM256 743 q0 -158 38 -278.5t106.5 -202.5t164.5 -124t211 -42q162 0 283 80l-279 307l90 82l279 -309q72 82 111.5 206t39.5 292q0 154 -36.5 272.5t-103 198.5t-161 122t-206.5 42q-115 0 -213.5 -42t-170 -124t-112.5 -203t-41 -277z" />
<glyph unicode="R" horiz-adv-x="1296" d="M215 0v1483h479q137 0 229.5 -35t146.5 -90t76.5 -127t22.5 -146q0 -168 -81.5 -269t-217.5 -142l375 -674h-149l-357 639h-389v-639h-135zM350 758h322q80 0 145.5 15t111.5 53t71.5 100.5t25.5 156.5q0 86 -27.5 140.5t-78 86t-122 43t-157.5 11.5h-291v-606z" />
<glyph unicode="S" horiz-adv-x="1210" d="M72 387l137 21q14 -61 38.5 -119t69.5 -101t113 -68.5t168 -25.5q63 0 128 12.5t116 45t83.5 87t32.5 138.5t-34.5 138t-93 89t-132 57.5t-150.5 44t-149.5 49t-131 72.5t-93.5 115t-35 174q0 90 36 163t100.5 124t153.5 78.5t194 27.5q96 0 177 -21.5t142.5 -70.5 t101 -128t52.5 -191l-131 -17q-10 53 -30 107.5t-56.5 98.5t-96 71.5t-153.5 27.5q-96 0 -162 -20t-107 -56t-58 -84t-17 -104q0 -80 34.5 -132t93 -87t131 -58.5t149.5 -47t151 -52t132 -72.5t93 -110.5t35 -167.5q0 -115 -42 -193.5t-111.5 -130t-161 -74t-191.5 -22.5 q-246 0 -370 105.5t-156 306.5z" />
<glyph unicode="T" horiz-adv-x="1101" d="M31 1364v119h1040v-119h-450v-1364h-138v1364h-452z" />
<glyph unicode="U" horiz-adv-x="1466" d="M205 483v1000h137v-991q0 -111 27.5 -186t78 -122t123 -67.5t164.5 -20.5q94 0 167 19.5t122 65.5t74.5 121t25.5 185v996h138v-1002q0 -256 -138.5 -381t-400.5 -125q-276 0 -397 131.5t-121 376.5z" />
<glyph unicode="V" horiz-adv-x="1236" d="M31 1483h151l453 -1362l432 1362h139l-479 -1483h-188z" />
<glyph unicode="W" horiz-adv-x="1757" d="M41 1483h145l271 -1319l352 1319h158l350 -1340l264 1340h135l-311 -1483h-174l-346 1311l-357 -1311h-159z" />
<glyph unicode="X" horiz-adv-x="1257" d="M41 0l491 754l-466 729h153l397 -627l406 627h147l-467 -719l515 -764h-154l-445 662l-425 -662h-152z" />
<glyph unicode="Y" horiz-adv-x="1126" d="M0 1483h152l423 -764l412 764h139l-485 -895v-588h-137v582z" />
<glyph unicode="Z" horiz-adv-x="1200" d="M76 0v98l827 1266h-803v119h973v-103l-827 -1261h862v-119h-1032z" />
<glyph unicode="[" horiz-adv-x="518" d="M139 -293v1776h297v-90l-170 -17v-1558l170 -19v-92h-297z" />
<glyph unicode="\" horiz-adv-x="722" d="M12 1546h123l576 -1734h-125z" />
<glyph unicode="]" horiz-adv-x="518" d="M82 -201l170 19v1558l-170 17v90h297v-1776h-297v92z" />
<glyph unicode="^" horiz-adv-x="1077" d="M61 612l404 748h141l410 -748h-139l-345 621l-337 -621h-134z" />
<glyph unicode="_" horiz-adv-x="1024" d="M0 -264h1024v-107h-1024v107z" />
<glyph unicode="`" horiz-adv-x="1024" d="M285 1534h180l217 -336l-107 -27z" />
<glyph unicode="a" horiz-adv-x="1095" d="M123 258q0 111 46 180.5t118.5 107.5t163 51t180.5 13q45 0 75.5 -1t61.5 -3v105q0 59 -10 105t-36 77t-70 47t-111 16q-125 0 -177.5 -48t-68.5 -140l-129 23q25 147 120 211.5t263 64.5q186 0 271 -82t85 -276v-541q0 -43 11.5 -62.5t52.5 -19.5q23 0 63 12l8 -88 q-55 -28 -120 -28h-5q-72 0 -101.5 38.5t-33.5 92.5q-59 -61 -148 -99.5t-200 -38.5q-100 0 -160.5 30t-93.5 74t-44 93t-11 86zM266 279q0 -39 8.5 -74t31 -61.5t60 -42t99.5 -15.5q92 0 174 43t131 100v267q-25 4 -54.5 5t-74.5 1q-53 0 -118.5 -5t-123 -26.5t-95.5 -67 t-38 -124.5z" />
<glyph unicode="b" horiz-adv-x="1181" d="M184 0v1546h135v-622q72 59 160 101t211 42q82 0 151.5 -26.5t120 -88t79 -161t28.5 -242.5q0 -154 -36 -262.5t-96 -177t-141 -101.5t-169 -33q-92 0 -172 36t-140 79l-10 -90h-121zM322 217q18 -14 48.5 -35.5t70.5 -41t86 -34t100 -14.5q84 0 141 34t93 95.5 t52.5 146.5t16.5 187q0 215 -67.5 307t-207.5 92q-49 0 -98 -14t-93 -36.5t-81 -50.5t-61 -54v-582z" />
<glyph unicode="c" horiz-adv-x="1097" d="M113 516q0 276 130 413.5t365 137.5q78 0 145.5 -21.5t118 -65.5t82 -109.5t35.5 -153.5l-137 -19q-14 127 -74.5 188.5t-181.5 61.5q-61 0 -121.5 -19.5t-110 -66.5t-79 -127t-29.5 -200q0 -129 28.5 -213t76 -134.5t107.5 -70t124 -19.5q115 0 184.5 53.5t91.5 178.5 l129 -27q-12 -88 -51 -149.5t-95 -101.5t-124.5 -58.5t-142.5 -18.5q-129 0 -219.5 40t-145.5 112t-80.5 171t-25.5 218z" />
<glyph unicode="d" horiz-adv-x="1171" d="M113 510q0 154 35.5 259t96 172t140.5 96.5t170 29.5q92 0 169 -27.5t136 -70.5v577h137v-1546h-116l-13 117q-72 -59 -157.5 -100.5t-202.5 -41.5q-88 0 -161 30t-125 94.5t-80.5 166t-28.5 244.5zM252 504q0 -217 68.5 -316.5t220.5 -99.5q96 0 181 48t138 108v598 q-18 14 -49 32.5t-71 36t-87 28.5t-98 11q-84 0 -141.5 -31.5t-93 -90t-52 -140.5t-16.5 -184z" />
<glyph unicode="e" horiz-adv-x="1118" d="M113 522q0 143 38.5 246.5t104.5 169.5t155 97.5t187 31.5q106 0 183 -35t126 -94t71.5 -140t22.5 -175q-2 -31 -4 -63t-6 -64h-733q2 -117 29.5 -194t73 -122t105.5 -63.5t128 -18.5q123 0 181.5 50.5t82.5 148.5l129 -25q-35 -156 -146.5 -226.5t-256.5 -70.5 q-137 0 -227.5 45.5t-144.5 120t-76.5 174t-22.5 207.5zM260 606h598v19q0 149 -60 233q-64 90 -212 90q-59 0 -116.5 -19.5t-102.5 -60.5t-74 -105.5t-33 -156.5z" />
<glyph unicode="f" horiz-adv-x="636" d="M41 932v115h160v190q0 328 282 328q57 0 102.5 -10.5t71.5 -22.5l-6 -111q-31 10 -71.5 18.5t-77.5 8.5q-72 0 -118 -40t-46 -151v-210h297v-115h-297v-932h-137v932h-160z" />
<glyph unicode="g" horiz-adv-x="1124" d="M76 -199q0 49 16.5 88t41 71t54 56.5t58.5 42.5q-47 14 -75 47t-28 87q0 63 39 107t90 85q-53 29 -92 81t-55 122q-12 45 -12 96q0 88 31.5 158.5t88 121t136.5 77t178 26.5q100 0 181 -24.5t134 -86.5q20 47 58 86t94 39q47 0 88 -14v-123h-20q-41 0 -88 -6 q-60 -8 -99 -20q35 -41 54.5 -100.5t19.5 -123.5q0 -90 -32 -159.5t-88 -116.5t-131 -73t-161 -26q-51 0 -102.5 7.5t-87.5 21.5q-27 -23 -53.5 -52.5t-26.5 -66.5q0 -18 6 -32.5t22.5 -24.5t46 -17.5t76.5 -9.5l291 -16q80 -4 142.5 -18.5t104.5 -45t64.5 -81t22.5 -125.5 q0 -96 -48 -158.5t-125 -98.5t-171 -50.5t-187 -14.5q-147 0 -237 25.5t-138 63.5t-64.5 85t-16.5 90zM217 -174q0 -35 14.5 -65.5t51 -53t102.5 -37t170 -14.5q186 0 275.5 54.5t89.5 152.5q0 59 -39 98t-156 45l-373 21q-59 -41 -97 -89.5t-38 -111.5zM256 696 q0 -115 68.5 -187.5t224.5 -72.5q129 0 205.5 68.5t76.5 187.5q0 135 -72.5 198.5t-205.5 63.5q-61 0 -115.5 -14t-94.5 -46t-63.5 -81t-23.5 -117z" />
<glyph unicode="h" horiz-adv-x="1191" d="M184 0v1546h138v-628q86 63 180 106t205 43q168 0 242.5 -91t74.5 -269v-707h-137v692q0 119 -48 186.5t-169 67.5q-51 0 -103.5 -15.5t-98.5 -38t-84 -49t-62 -46.5v-797h-138z" />
<glyph unicode="i" horiz-adv-x="495" d="M145 1409q0 53 29 81t82 28t82 -28t29 -81t-29 -81t-82 -28t-82 28t-29 81zM184 0v1047h138v-1047h-138z" />
<glyph unicode="j" horiz-adv-x="489" d="M-123 -424l19 113q35 -12 74.5 -20.5t74.5 -8.5q66 0 102.5 39t36.5 131v1217h138v-1209q0 -154 -67 -224.5t-202 -70.5q-18 0 -42.5 2t-50.5 6.5t-48.5 10.5t-34.5 14zM147 1409q0 53 29 81t82 28t82 -28t29 -81t-29 -81t-82 -28t-82 28t-29 81z" />
<glyph unicode="k" horiz-adv-x="1060" d="M184 0v1546h138v-1005l491 506h160l-369 -379l395 -668h-149l-344 569l-184 -188v-381h-138z" />
<glyph unicode="l" horiz-adv-x="495" d="M184 0v1546h138v-1546h-138z" />
<glyph unicode="m" horiz-adv-x="1783" d="M184 0v1047h121l8 -132q86 63 174 107.5t199 44.5q109 0 170.5 -39t89.5 -115q86 63 177 108.5t202 45.5q84 0 139.5 -23.5t89 -68.5t48 -112.5t14.5 -155.5v-707h-137v692q0 59 -6.5 106.5t-27 80t-56 50t-93.5 17.5q-45 0 -91 -13t-90 -34.5t-81 -46.5t-63 -45 q6 -47 6 -100v-707h-137v692q0 59 -6.5 106.5t-27 80t-56 50t-93.5 17.5q-47 0 -96 -15.5t-94 -38t-83 -49t-62 -46.5v-797h-138z" />
<glyph unicode="n" horiz-adv-x="1191" d="M184 0v1047h121l8 -132q86 63 184.5 107.5t209.5 44.5q168 0 242.5 -91t74.5 -269v-707h-137v692q0 119 -48 186.5t-169 67.5q-51 0 -103.5 -15.5t-98.5 -38t-84 -49t-62 -46.5v-797h-138z" />
<glyph unicode="o" horiz-adv-x="1175" d="M113 518q0 256 128 402.5t369 146.5q119 0 205 -38t141.5 -106.5t81 -164.5t25.5 -213q0 -129 -26.5 -234.5t-85 -179.5t-148.5 -115t-219 -41q-133 0 -223.5 42t-145.5 115t-78.5 172t-23.5 214zM254 526q0 -434 340 -434q76 0 136.5 24.5t102 77t64.5 136.5t23 202 q0 117 -21.5 197t-62.5 128t-99.5 69.5t-134.5 21.5q-156 0 -252 -100t-96 -322z" />
<glyph unicode="p" horiz-adv-x="1181" d="M184 -434v1481h121l8 -127q72 59 163 103t214 44q82 0 151.5 -26.5t120 -88t79 -161t28.5 -242.5q0 -154 -36 -262.5t-96 -177t-141 -101.5t-169 -33q-92 0 -171 36t-139 79v-524h-133zM322 217q18 -14 48.5 -35.5t70.5 -41t86 -34t100 -14.5q84 0 141 34t93 95.5 t52.5 146.5t16.5 187q0 215 -67.5 307t-207.5 92q-49 0 -98 -14t-93 -36.5t-81 -50.5t-61 -54v-582z" />
<glyph unicode="q" horiz-adv-x="1165" d="M113 510q0 154 35.5 259t96 172t140.5 96.5t170 29.5q92 0 169 -34t136 -77l10 91h127v-1481h-131v551q-72 -59 -156.5 -100.5t-201.5 -41.5q-88 0 -161 30t-125 94.5t-80.5 166t-28.5 244.5zM252 504q0 -217 68.5 -316.5t220.5 -99.5q47 0 93 13.5t87 36t77 50t62 56.5 v585q-18 14 -49 35t-71 40.5t-87 32.5t-98 13q-84 0 -141.5 -31.5t-93 -90t-52 -140.5t-16.5 -184z" />
<glyph unicode="r" horiz-adv-x="720" d="M184 0v1047h113l12 -146q76 100 162 134q81 32 183 33q6 0 12 -1h32v-143q-28 5 -57 5q-22 0 -44 -3q-52 -6 -103.5 -22.5t-95.5 -43t-76 -57.5v-803h-138z" />
<glyph unicode="s" horiz-adv-x="985" d="M94 293l131 22q10 -47 27.5 -87t48.5 -69.5t80 -47t125 -17.5q51 0 95 8.5t77 29t51.5 54t18.5 82.5q0 45 -15.5 75t-46.5 50.5t-75 33.5t-101 28q-66 16 -133.5 33.5t-121.5 49t-89 85t-35 143.5q0 76 31 132t81 94t117.5 56.5t141.5 18.5q94 0 159.5 -22.5t108.5 -63.5 t65.5 -99.5t32.5 -129.5l-135 -17q-10 51 -23.5 91t-39 68t-67.5 42t-105 14q-68 0 -112 -14t-69.5 -36.5t-35 -54.5t-9.5 -65q0 -47 16.5 -76.5t49.5 -50t79 -35t105 -28.5q72 -18 138.5 -38t116.5 -52.5t80 -86t30 -139.5q0 -135 -98.5 -217t-288.5 -82q-172 0 -277.5 73 t-128.5 245z" />
<glyph unicode="t" horiz-adv-x="749" d="M45 932v115h164v301l137 20v-321h293v-115h-293v-658q0 -90 30 -138t132 -48q47 0 99 16.5t87 36.5l31 -100q-39 -27 -106.5 -46.5t-131.5 -19.5q-141 0 -209.5 67t-68.5 214v676h-164z" />
<glyph unicode="u" horiz-adv-x="1191" d="M182 340v707h137v-693q0 -121 45.5 -187.5t165.5 -66.5q51 0 103.5 15.5t98.5 38t84 48t63 48.5v797h137v-1047h-121l-8 131q-86 -63 -184.5 -107t-208.5 -44q-168 0 -240 91t-72 269z" />
<glyph unicode="v" horiz-adv-x="1007" d="M20 1047h150l342 -912l338 912h137l-401 -1047h-154z" />
<glyph unicode="w" horiz-adv-x="1509" d="M20 1047h142l278 -908l248 908h150l243 -904l277 904h131l-330 -1047h-166l-235 893l-238 -893h-164z" />
<glyph unicode="x" horiz-adv-x="974" d="M41 0l356 547l-352 500h150l282 -408l295 408h141l-358 -498l379 -549h-152l-305 453l-289 -453h-147z" />
<glyph unicode="y" horiz-adv-x="960" d="M-39 -420l21 107q25 -8 76 -19.5t96 -11.5q37 0 70.5 15.5t66.5 53t62.5 103.5t58.5 164l-385 1055h147l307 -885l320 885h139l-422 -1108q-41 -113 -79 -189t-79 -122t-92 -65.5t-118 -19.5q-57 0 -108.5 12.5t-80.5 24.5z" />
<glyph unicode="z" horiz-adv-x="933" d="M66 0v96l630 836h-620v115h782v-99l-633 -833h654v-115h-813z" />
<glyph unicode="{" horiz-adv-x="600" d="M10 535v112h31q78 0 122 44t44 145q0 45 -4 105t-9.5 122.5t-9.5 121t-4 101.5q0 223 264 223h95v-114h-93q-72 -2 -101.5 -30t-29.5 -87q0 -45 4.5 -101.5t8.5 -116t8 -118.5t4 -111q0 -61 -12.5 -103t-33 -68.5t-46 -42t-51.5 -25.5q27 -10 52 -26.5t45.5 -43t33 -68.5 t12.5 -104q0 -104 -12.5 -210.5t-12.5 -190.5q0 -66 33 -101.5t125 -35.5h66v-109h-93q-145 0 -205.5 61.5t-60.5 161.5q0 102 13.5 215t13.5 205q0 109 -46 149t-116 40h-35z" />
<glyph unicode="|" horiz-adv-x="573" d="M225 -293v1839h123v-1839h-123z" />
<glyph unicode="}" horiz-adv-x="600" d="M61 -182h93q72 2 101.5 29.5t29.5 86.5q0 45 -4.5 101.5t-8.5 116t-8 118t-4 111.5q0 61 12.5 103t33 69t46 42t51.5 26q-27 10 -52 26.5t-45.5 43t-33 68.5t-12.5 103q0 104 12.5 211t12.5 191q0 66 -33 101.5t-125 35.5h-66v108h93q145 0 205.5 -61.5t60.5 -161.5 q0 -102 -13.5 -215t-13.5 -205q0 -109 45 -148.5t117 -39.5h35v-113h-31q-78 0 -122 -44t-44 -144q0 -47 4 -106.5t9.5 -122t9.5 -121t4 -101.5q0 -223 -264 -223h-95v115z" />
<glyph unicode="~" horiz-adv-x="991" d="M86 598q-8 63 4 107.5t37 72t56.5 40.5t66.5 13q47 0 114.5 -15t136 -32.5t129 -33t95.5 -15.5q41 0 62.5 19.5t21.5 93.5l96 -4q8 -63 -4 -106.5t-36.5 -71t-57.5 -40t-70 -12.5q-47 0 -113.5 15.5t-136 33t-132 33t-99.5 15.5q-33 0 -56.5 -23.5t-19.5 -93.5z" />
<glyph unicode="&#xa1;" horiz-adv-x="524" d="M162 950q0 117 119 117t118 -117q0 -117 -118 -116q-119 -1 -119 116zM205 -440l31 1108h92l34 -1108h-157z" />
<glyph unicode="&#xa2;" horiz-adv-x="1038" d="M133 711q0 229 105.5 356t277.5 150v206h113v-202q133 -10 222 -90t97 -234l-127 -18q-10 109 -57 160t-135 61v-770q92 10 139 59t70 148l118 -25q-12 -74 -41.5 -127t-73.5 -90t-98.5 -58.5t-113.5 -27.5v-209h-113v209q-98 8 -171 49t-120 107.5t-69.5 153.5 t-22.5 192zM276 727q0 -74 11.5 -140.5t39 -119.5t73.5 -89t116 -46v764q-49 -8 -92 -32t-76 -67t-52.5 -109.5t-19.5 -160.5z" />
<glyph unicode="&#xa3;" horiz-adv-x="1122" d="M51 0v123h109q180 166 180 346q0 98 -53 201h-219v114h168q-29 51 -63 130t-34 182q0 92 34 167.5t93.5 130t142.5 85t179 30.5q186 0 289.5 -86t126.5 -286l-125 -13q-16 135 -78 201t-211 66q-68 0 -125 -17.5t-99 -52.5t-66 -88t-24 -125q0 -98 34 -181t63 -143h487 v-114h-438q45 -102 45 -203q0 -190 -158 -344h404q57 0 97 13.5t67.5 41t44 71.5t26.5 105l127 -26q-23 -176 -114 -252t-250 -76h-660z" />
<glyph unicode="&#xa4;" horiz-adv-x="1167" d="M12 115l195 194q-35 57 -51.5 126t-16.5 143q0 137 72 251l-193 191l103 100l184 -184q55 45 128 70.5t163 25.5t162.5 -23.5t126.5 -66.5l176 176l94 -96l-182 -184q66 -109 65 -252q0 -76 -19.5 -146.5t-60.5 -130.5l195 -192l-102 -99l-191 187q-53 -41 -122.5 -62.5 t-155.5 -21.5q-92 0 -163 23.5t-124 64.5l-189 -191zM295 578q0 -70 17.5 -131.5t53 -106.5t92 -70.5t134.5 -25.5q72 0 126 25.5t91 70.5t55.5 106.5t18.5 131.5q0 154 -74 240.5t-223 86.5q-145 0 -218 -92t-73 -235z" />
<glyph unicode="&#xa5;" horiz-adv-x="1048" d="M55 1483h154l330 -604l317 604h141l-331 -615h215v-108h-277v-146h277v-108h-277v-506h-137v506h-277v108h277v146h-277v108h209z" />
<glyph unicode="&#xa6;" horiz-adv-x="573" d="M225 -293v795h123v-795h-123zM225 840v706h123v-706h-123z" />
<glyph unicode="&#xa7;" horiz-adv-x="1105" d="M102 520q0 86 52.5 167t144.5 138q-55 41 -90 104.5t-35 162.5q0 90 33 157.5t90 112.5t134 67.5t163 22.5q186 0 292.5 -96t117.5 -271l-138 -18q-14 123 -76.5 194.5t-199.5 71.5q-139 0 -207 -65.5t-68 -161.5t52.5 -147.5t131.5 -82t171 -52t171 -57.5t131 -98.5 t52 -174.5q0 -86 -52 -168t-145 -140q55 -41 90 -103.5t35 -160.5q0 -90 -32.5 -157.5t-90 -112.5t-134.5 -67.5t-163 -22.5q-186 0 -292.5 96t-116.5 270l137 19q14 -123 77.5 -194.5t203.5 -71.5q137 0 203.5 66.5t66.5 170.5q0 94 -52 145.5t-131 80t-171 49t-171 55.5 t-131.5 97t-52.5 175zM240 530q0 -78 45 -119.5t114.5 -68.5t154.5 -46.5t163 -49.5q78 49 124 107.5t46 129.5q0 76 -45 119t-116 69.5t-155 46t-161 50.5q-78 -51 -124 -108.5t-46 -129.5z" />
<glyph unicode="&#xa8;" horiz-adv-x="1024" d="M199 1368q0 47 29.5 76t78.5 29q47 0 77 -29t30 -76q0 -49 -30 -76.5t-77 -27.5q-49 0 -78.5 27.5t-29.5 76.5zM606 1368q0 47 30 76t79 29q47 0 76.5 -29t29.5 -76q0 -49 -29.5 -76.5t-76.5 -27.5q-49 0 -79 27.5t-30 76.5z" />
<glyph unicode="&#xa9;" d="M100 625q0 160 53.5 284.5t145.5 211.5t216 133t265 46q156 0 281 -46t213 -130t134 -204t46 -267q0 -152 -49 -276.5t-139 -213.5t-215 -138.5t-275 -49.5q-168 0 -295 50.5t-211 137.5t-127 205.5t-43 256.5zM217 627q0 -129 39 -230.5t110.5 -173t176 -109.5 t237.5 -38q131 0 234.5 39t176.5 112.5t111.5 178t38.5 235.5q0 137 -42 241.5t-115.5 175t-177 106.5t-226.5 36q-121 0 -224 -39t-179 -112.5t-118 -180t-42 -241.5zM416 645q0 86 24.5 160t71.5 126t116.5 81.5t159.5 29.5q59 0 111.5 -13t92.5 -44t64.5 -80t28.5 -121 l-110 -16q-8 92 -51 133t-138 41q-47 0 -91 -16.5t-77.5 -51t-53 -93t-19.5 -140.5q0 -59 14 -113.5t43 -94.5t74 -63.5t104 -23.5q102 0 147.5 43t65.5 133l103 -16q-10 -80 -43 -130t-77 -80t-94.5 -40t-95.5 -10q-98 0 -168.5 29.5t-115.5 84t-65.5 127t-20.5 158.5z" />
<glyph unicode="&#xaa;" horiz-adv-x="757" d="M88 743q0 68 28.5 112t76 68.5t106.5 35t123 12.5q27 0 46 -1t40 -1v61q0 63 -26.5 100t-112.5 37q-72 0 -105 -27.5t-43 -84.5l-104 18q31 190 262 191q129 0 188.5 -51.5t59.5 -178.5v-327q0 -29 8 -40.5t35 -11.5q16 0 41 7l6 -76q-20 -10 -45 -15.5t-49 -5.5 q-53 0 -76 23.5t-27 62.5q-37 -41 -95 -65.5t-132 -24.5q-66 0 -106 19.5t-62.5 47t-29.5 59.5t-7 56zM211 758q0 -37 23.5 -70t95.5 -33q53 0 102 28t78 58v140q-14 2 -31.5 2h-42.5q-37 0 -75.5 -3t-72.5 -15.5t-55.5 -37t-21.5 -69.5z" />
<glyph unicode="&#xab;" horiz-adv-x="868" d="M133 532l182 304h136l-170 -299l168 -326h-136zM440 532l183 304h135l-170 -299l168 -326h-135z" />
<glyph unicode="&#xac;" horiz-adv-x="1167" d="M201 600v135h764v-327h-142v192h-622z" />
<glyph unicode="&#xad;" horiz-adv-x="636" d="M41 537v137h555v-137h-555z" />
<glyph unicode="&#xae;" horiz-adv-x="915" d="M82 969q0 88 29.5 157.5t81 118.5t120 75t146.5 26q174 0 274.5 -98.5t100.5 -264.5q0 -84 -28 -152.5t-77 -117.5t-118.5 -77t-153.5 -28q-92 0 -163 28t-118 76t-70.5 113.5t-23.5 143.5zM164 971q0 -135 79 -212t216 -77t216 79t79 216q0 143 -84 219t-211 76 q-61 0 -115.5 -20.5t-94.5 -58.5t-62.5 -94.5t-22.5 -127.5zM336 786v392h135q80 0 105.5 -34t25.5 -77q0 -41 -18.5 -64.5t-51.5 -37.5l105 -179h-78l-92 156h-57v-156h-74zM410 999h26q39 0 64.5 12.5t25.5 53.5q0 35 -20.5 45t-54.5 10h-41v-121z" />
<glyph unicode="&#xaf;" horiz-adv-x="1024" d="M221 1303v116h580v-116h-580z" />
<glyph unicode="&#xb0;" horiz-adv-x="614" d="M111 1303q0 113 65.5 171t161.5 58q98 0 160.5 -55t62.5 -166q0 -106 -59.5 -166t-163.5 -60t-165.5 57.5t-61.5 160.5zM219 1303q0 -57 30 -89t89 -32q57 0 86 34.5t29 94.5q0 125 -115 125q-53 0 -86 -33t-33 -100z" />
<glyph unicode="&#xb1;" horiz-adv-x="1167" d="M201 0v125h764v-125h-764zM201 598v127h311v315h141v-315h312v-127h-312v-330h-141v330h-311z" />
<glyph unicode="&#xb2;" horiz-adv-x="706" d="M76 1401q18 125 96 180t193 55q119 0 188.5 -55t69.5 -172q0 -53 -14.5 -99t-42 -91t-67.5 -93.5t-91 -105.5l-175 -191v-2h404v-112h-551v106l215 248q49 55 85 99t59.5 82t35 75t11.5 80q0 68 -38 97.5t-104 29.5q-86 0 -119.5 -43t-44.5 -109z" />
<glyph unicode="&#xb3;" horiz-adv-x="739" d="M59 915l119 23q6 -31 15.5 -55.5t27 -42t46 -26.5t71.5 -9q70 0 120 39t50 129q0 94 -51 129t-138 35h-83v100h59q96 0 148.5 47t52.5 121q0 53 -30 89t-110 36t-111.5 -33t-47.5 -92l-115 22q23 115 102.5 162t184.5 47q127 0 191.5 -58t64.5 -157q0 -49 -16.5 -87 t-43 -64.5t-58.5 -43t-63 -24.5v-2q92 -16 144.5 -71.5t52.5 -159.5q0 -123 -83 -196t-220 -73q-111 0 -187.5 50.5t-91.5 164.5z" />
<glyph unicode="&#xb4;" horiz-adv-x="1024" d="M350 1198l217 336h181l-291 -363z" />
<glyph unicode="&#xb5;" horiz-adv-x="1288" d="M221 -360v1407h137v-689q0 -137 40 -201.5t151 -64.5q55 0 108.5 19.5t101.5 50.5t88 67.5t71 73.5v744h137v-1047h-131v150q-35 -31 -79 -62t-93.5 -55.5t-105.5 -41t-116 -16.5q-121 0 -176 72q-2 -2 -3 -2t-3 -2l10 -403h-137z" />
<glyph unicode="&#xb6;" horiz-adv-x="1120" d="M41 981q0 137 45 232.5t123 156t179 87t216 26.5h314l2 -1755h-138v1640h-182v-1640h-137v786q-193 18 -307.5 140t-114.5 327z" />
<glyph unicode="&#xb7;" horiz-adv-x="360" d="M61 618q0 117 119 117t119 -117t-119 -116q-119 0 -119 116z" />
<glyph unicode="&#xb8;" horiz-adv-x="1024" d="M281 -416l30 88q16 -10 48 -22t67 -12q51 0 75.5 28.5t24.5 69.5q0 51 -33.5 75.5t-121.5 26.5l30 223l107 -16l-19 -135q61 -12 108.5 -50t47.5 -126q0 -86 -59.5 -139.5t-147.5 -53.5q-59 0 -98 14.5t-59 28.5z" />
<glyph unicode="&#xb9;" horiz-adv-x="571" d="M68 1511q90 6 152.5 31t107.5 74h78v-905h-130v741q-16 -10 -43.5 -17.5t-56.5 -12.5t-56.5 -8t-43.5 -3z" />
<glyph unicode="&#xba;" horiz-adv-x="802" d="M78 911q0 164 86 258.5t252 94.5q164 0 236.5 -93.5t72.5 -242.5q0 -166 -77 -266.5t-251 -100.5q-90 0 -151.5 26.5t-98 74t-53 112t-16.5 137.5zM203 915q-1 -253 200 -253q92 0 144.5 59t52.5 199q0 135 -49 189t-141 54q-94 0 -150.5 -59.5t-56.5 -188.5z" />
<glyph unicode="&#xbb;" horiz-adv-x="868" d="M113 211l170 303l-168 322h135l180 -318l-182 -307h-135zM420 211l170 303l-168 322h135l180 -318l-182 -307h-135z" />
<glyph unicode="&#xbc;" horiz-adv-x="1751" d="M111 1372q90 6 152.5 30.5t107.5 74.5h78v-906h-130v742q-16 -10 -43.5 -17.5t-56.5 -12.5t-56.5 -8t-43.5 -3zM406 -25l729 1508h129l-727 -1508h-131zM958 219v92l396 594h159v-581h109v-105h-109v-219h-127v219h-428zM1081 324h308v462z" />
<glyph unicode="&#xbd;" horiz-adv-x="1751" d="M131 1372q90 6 152.5 30.5t107.5 74.5h78v-906h-129v742q-16 -10 -44 -17.5t-56.5 -12.5t-56 -8t-44.5 -3zM373 -25l729 1508h129l-727 -1508h-131zM1040 686q18 125 96 180.5t193 55.5q119 0 188.5 -55.5t69.5 -172.5q0 -53 -14 -99t-42 -91t-68 -93.5t-91 -105.5 l-174 -190v-2h404v-113h-551v106l215 248q49 55 84.5 99.5t59.5 82t35 74.5t11 80q0 68 -38 97.5t-103 29.5q-86 0 -120 -43t-44 -108z" />
<glyph unicode="&#xbe;" horiz-adv-x="1751" d="M80 776l119 23q6 -31 15 -55.5t26.5 -42t46 -26.5t71.5 -9q70 0 120 38.5t50 129.5q0 94 -51 128.5t-137 34.5h-84v101h59q96 0 148.5 47t52.5 121q0 53 -29.5 89t-109.5 36t-112 -33t-48 -92l-115 22q23 115 103 162t184 47q127 0 191.5 -58.5t64.5 -156.5 q0 -49 -16.5 -87t-43 -64.5t-58 -43t-62.5 -24.5v-2q92 -16 144.5 -71.5t52.5 -160.5q0 -123 -83 -195.5t-221 -72.5q-111 0 -187.5 50.5t-90.5 164.5zM483 -25l729 1508h129l-727 -1508h-131zM1012 219v92l395 594h160v-581h108v-105h-108v-219h-127v219h-428zM1135 324 h307v462z" />
<glyph unicode="&#xbf;" horiz-adv-x="935" d="M86 -55q0 111 36 189.5t97.5 133t143 87t174.5 48.5v267h129v-363q-86 -8 -166 -26.5t-141.5 -58.5t-97.5 -103.5t-36 -161.5q0 -84 22.5 -138.5t60.5 -85t89.5 -43t108.5 -12.5q55 0 103 10.5t88 37t70 73.5t46 123l123 -24q-12 -59 -40 -120t-79 -109t-129 -78.5 t-190 -30.5q-84 0 -158 19.5t-131 63.5t-90 117.5t-33 184.5zM485 950q0 117 119 117t119 -117t-119 -116q-119 -1 -119 116z" />
<glyph unicode="&#xc0;" horiz-adv-x="1388" d="M92 0l504 1483h188l512 -1483h-151l-160 477h-598l-160 -477h-135zM403 1868h183l209 -271l-111 -26zM428 598h518l-258 772z" />
<glyph unicode="&#xc1;" horiz-adv-x="1388" d="M92 0l504 1483h188l512 -1483h-151l-160 477h-598l-160 -477h-135zM428 598h518l-258 772zM602 1597l209 271h182l-280 -297z" />
<glyph unicode="&#xc2;" horiz-adv-x="1388" d="M92 0l504 1483h188l512 -1483h-151l-160 477h-598l-160 -477h-135zM387 1591l246 250h110l246 -250l-121 -16l-184 166l-180 -170zM428 598h518l-258 772z" />
<glyph unicode="&#xc3;" horiz-adv-x="1388" d="M92 0l504 1483h188l512 -1483h-151l-160 477h-598l-160 -477h-135zM369 1593q-8 63 4 108.5t36.5 73t56 40t66.5 12.5q47 0 89.5 -15.5t80 -33t72.5 -32.5t70 -15q41 0 62.5 19t21.5 93l96 -4q8 -63 -3 -106t-35.5 -71t-58.5 -40t-71 -12q-47 0 -88 15t-80 32.5t-76 33 t-73 15.5q-33 0 -56.5 -23.5t-19.5 -93.5zM428 598h518l-258 772z" />
<glyph unicode="&#xc4;" horiz-adv-x="1388" d="M92 0l504 1483h188l512 -1483h-151l-160 477h-598l-160 -477h-135zM377 1706q0 47 29.5 75.5t78.5 28.5q47 0 77 -28.5t30 -75.5q0 -49 -30 -76.5t-77 -27.5q-49 0 -78.5 27.5t-29.5 76.5zM428 598h518l-258 772zM784 1706q0 47 30 75.5t79 28.5q47 0 76.5 -28.5 t29.5 -75.5q0 -49 -29.5 -76.5t-76.5 -27.5q-49 0 -79 27.5t-30 76.5z" />
<glyph unicode="&#xc5;" horiz-adv-x="1388" d="M92 0l498 1464q-53 23 -83 67t-30 109q0 51 17.5 90t46 66t66.5 39t81 12q88 0 150.5 -47t62.5 -149q0 -139 -113 -185l508 -1466h-151l-160 477h-598l-160 -477h-135zM428 598h518l-258 772zM582 1645q0 -49 26.5 -77t79.5 -28t79 31t26 80q0 102 -105 102 q-47 0 -76.5 -27.5t-29.5 -80.5z" />
<glyph unicode="&#xc6;" horiz-adv-x="2041" d="M92 0l840 1483h991v-115h-700v-571h655v-117h-655v-565h721v-115h-861v676h-469l-383 -676h-139zM680 793h403v575h-82z" />
<glyph unicode="&#xc7;" horiz-adv-x="1415" d="M113 715q0 193 49 341t138 248.5t215 152.5t278 52q113 0 208 -28.5t164.5 -88t112.5 -150.5t53 -216l-129 -12q-12 90 -40.5 159.5t-78 117.5t-121 74t-169.5 26q-125 0 -225.5 -42t-170 -125t-107.5 -207t-38 -286q0 -170 35 -291t100.5 -198.5t159.5 -114.5t215 -37 q186 0 290.5 81t145.5 255l121 -27q-18 -111 -67.5 -187.5t-119 -126.5t-153.5 -75.5t-172 -32.5l-8 -67q61 -12 108 -50t47 -126q0 -86 -59 -139.5t-147 -53.5q-59 0 -98.5 14.5t-59.5 28.5l31 88q16 -10 47.5 -22t66.5 -12q51 0 76 28.5t25 69.5q0 51 -34 75.5t-122 26.5 l18 139q-158 8 -268.5 65.5t-181 154t-103 228.5t-32.5 290z" />
<glyph unicode="&#xc8;" horiz-adv-x="1171" d="M215 0v1483h838v-119h-701v-551h656v-121h-656v-573h721v-119h-858zM418 1868h182l209 -271l-111 -26z" />
<glyph unicode="&#xc9;" horiz-adv-x="1171" d="M215 0v1483h838v-119h-701v-551h656v-121h-656v-573h721v-119h-858zM496 1597l209 271h182l-281 -297z" />
<glyph unicode="&#xca;" horiz-adv-x="1171" d="M215 0v1483h838v-119h-701v-551h656v-121h-656v-573h721v-119h-858zM334 1591l246 250h110l246 -250l-121 -16l-184 166l-180 -170z" />
<glyph unicode="&#xcb;" horiz-adv-x="1171" d="M215 0v1483h838v-119h-701v-551h656v-121h-656v-573h721v-119h-858zM324 1706q0 47 29.5 75.5t78.5 28.5q47 0 77 -28.5t30 -75.5q0 -49 -30 -76.5t-77 -27.5q-49 0 -78.5 27.5t-29.5 76.5zM731 1706q0 47 30 75.5t79 28.5q47 0 76.5 -28.5t29.5 -75.5q0 -49 -29.5 -76.5 t-76.5 -27.5q-49 0 -79 27.5t-30 76.5z" />
<glyph unicode="&#xcc;" horiz-adv-x="567" d="M-18 1868h182l209 -271l-111 -26zM215 0v1483h137v-1483h-137z" />
<glyph unicode="&#xcd;" horiz-adv-x="567" d="M207 1597l209 271h182l-281 -297zM215 0v1483h137v-1483h-137z" />
<glyph unicode="&#xce;" horiz-adv-x="567" d="M-18 1591l245 250h111l246 -250l-121 -16l-184 166l-181 -170zM215 0v1483h137v-1483h-137z" />
<glyph unicode="&#xcf;" horiz-adv-x="567" d="M-29 1706q0 47 30 75.5t79 28.5q47 0 76.5 -28.5t29.5 -75.5q0 -49 -29.5 -76.5t-76.5 -27.5q-49 0 -79 27.5t-30 76.5zM215 0v1483h137v-1483h-137zM379 1706q0 47 29.5 75.5t78.5 28.5q47 0 77 -28.5t30 -75.5q0 -49 -29.5 -76.5t-77.5 -27.5q-49 0 -78.5 27.5 t-29.5 76.5z" />
<glyph unicode="&#xd0;" horiz-adv-x="1523" d="M70 700v115h176v668h430q193 0 332 -50.5t228 -143.5t132 -226t43 -299q0 -170 -46 -311.5t-140.5 -241.5t-239.5 -155.5t-344 -55.5h-395v700h-176zM383 119h268q305 0 461 160.5t156 453.5q0 184 -42 305t-120 194t-189.5 102.5t-252.5 29.5h-281v-549h481v-115h-481 v-581z" />
<glyph unicode="&#xd1;" horiz-adv-x="1525" d="M215 0v1483h197l770 -1317v1317h129v-1483h-174l-791 1335v-1335h-131zM459 1593q-8 63 4 108.5t36.5 73t56.5 40t67 12.5q47 0 89 -15.5t79.5 -33t72.5 -32.5t70 -15q41 0 62.5 19t21.5 93l96 -4q8 -63 -3 -106t-35.5 -71t-58.5 -40t-71 -12q-47 0 -88 15t-80 32.5 t-75.5 33t-73.5 15.5q-33 0 -56.5 -23.5t-19.5 -93.5z" />
<glyph unicode="&#xd2;" d="M113 743q0 166 45 306.5t132 243t214 159.5t293 57q164 0 284.5 -57t200.5 -156.5t120 -233.5t40 -288q0 -182 -43 -329.5t-128 -252t-211 -161t-292 -56.5q-168 0 -291 57.5t-203.5 160t-120.5 244t-40 306.5zM256 743q0 -158 38 -278.5t106.5 -202.5t164.5 -124 t211 -42t211 41t166 123t108.5 205t38.5 289q0 154 -36.5 272.5t-103 198.5t-161 122t-206.5 42q-115 0 -213.5 -42t-170 -124t-112.5 -203t-41 -277zM578 1868h182l209 -271l-111 -26z" />
<glyph unicode="&#xd3;" d="M113 743q0 166 45 306.5t132 243t214 159.5t293 57q164 0 284.5 -57t200.5 -156.5t120 -233.5t40 -288q0 -182 -43 -329.5t-128 -252t-211 -161t-292 -56.5q-168 0 -291 57.5t-203.5 160t-120.5 244t-40 306.5zM256 743q0 -158 38 -278.5t106.5 -202.5t164.5 -124 t211 -42t211 41t166 123t108.5 205t38.5 289q0 154 -36.5 272.5t-103 198.5t-161 122t-206.5 42q-115 0 -213.5 -42t-170 -124t-112.5 -203t-41 -277zM625 1597l209 271h182l-281 -297z" />
<glyph unicode="&#xd4;" d="M113 743q0 166 45 306.5t132 243t214 159.5t293 57q164 0 284.5 -57t200.5 -156.5t120 -233.5t40 -288q0 -182 -43 -329.5t-128 -252t-211 -161t-292 -56.5q-168 0 -291 57.5t-203.5 160t-120.5 244t-40 306.5zM256 743q0 -158 38 -278.5t106.5 -202.5t164.5 -124 t211 -42t211 41t166 123t108.5 205t38.5 289q0 154 -36.5 272.5t-103 198.5t-161 122t-206.5 42q-115 0 -213.5 -42t-170 -124t-112.5 -203t-41 -277zM494 1591l245 250h111l246 -250l-121 -16l-184 166l-181 -170z" />
<glyph unicode="&#xd5;" d="M113 743q0 166 45 306.5t132 243t214 159.5t293 57q164 0 284.5 -57t200.5 -156.5t120 -233.5t40 -288q0 -182 -43 -329.5t-128 -252t-211 -161t-292 -56.5q-168 0 -291 57.5t-203.5 160t-120.5 244t-40 306.5zM256 743q0 -158 38 -278.5t106.5 -202.5t164.5 -124 t211 -42t211 41t166 123t108.5 205t38.5 289q0 154 -36.5 272.5t-103 198.5t-161 122t-206.5 42q-115 0 -213.5 -42t-170 -124t-112.5 -203t-41 -277zM475 1593q-8 63 4.5 108.5t37 73t56 40t66.5 12.5q47 0 89 -15.5t80 -33t72.5 -32.5t69.5 -15q41 0 62.5 19t21.5 93 l96 -4q8 -63 -3 -106t-35.5 -71t-58.5 -40t-70 -12q-47 0 -88 15t-80 32.5t-76 33t-74 15.5q-33 0 -56.5 -23.5t-19.5 -93.5z" />
<glyph unicode="&#xd6;" d="M113 743q0 166 45 306.5t132 243t214 159.5t293 57q164 0 284.5 -57t200.5 -156.5t120 -233.5t40 -288q0 -182 -43 -329.5t-128 -252t-211 -161t-292 -56.5q-168 0 -291 57.5t-203.5 160t-120.5 244t-40 306.5zM256 743q0 -158 38 -278.5t106.5 -202.5t164.5 -124 t211 -42t211 41t166 123t108.5 205t38.5 289q0 154 -36.5 272.5t-103 198.5t-161 122t-206.5 42q-115 0 -213.5 -42t-170 -124t-112.5 -203t-41 -277zM483 1706q0 47 30 75.5t79 28.5q47 0 76.5 -28.5t29.5 -75.5q0 -49 -29.5 -76.5t-76.5 -27.5q-49 0 -79 27.5t-30 76.5z M891 1706q0 47 29.5 75.5t78.5 28.5q47 0 77 -28.5t30 -75.5q0 -49 -29.5 -76.5t-77.5 -27.5q-49 0 -78.5 27.5t-29.5 76.5z" />
<glyph unicode="&#xd7;" horiz-adv-x="1167" d="M264 432l221 223l-221 226l98 98l220 -223l221 223l98 -98l-221 -226l221 -223l-98 -98l-221 223l-220 -223z" />
<glyph unicode="&#xd8;" d="M113 743q0 166 45 306.5t132 243t214 159.5t293 57q123 0 223 -34l63 149h138l-84 -201q154 -92 229.5 -264t75.5 -385q0 -182 -43 -329.5t-128 -252t-211 -161t-292 -56.5q-123 0 -221 31l-64 -151h-139l84 202q-162 92 -238.5 271.5t-76.5 414.5zM256 743 q0 -201 59.5 -341t165.5 -218l490 1174q-80 31 -178 31q-115 0 -213.5 -42t-170 -124t-112.5 -203t-41 -277zM596 125q86 -29 180 -29q115 0 211 41t166 123t108.5 205t38.5 289q0 193 -57 329t-160 213z" />
<glyph unicode="&#xd9;" horiz-adv-x="1466" d="M205 483v1000h137v-991q0 -111 27.5 -186t78 -122t123 -67.5t164.5 -20.5q94 0 167 19.5t122 65.5t74.5 121t25.5 185v996h138v-1002q0 -256 -138.5 -381t-400.5 -125q-276 0 -397 131.5t-121 376.5zM516 1868h182l209 -271l-110 -26z" />
<glyph unicode="&#xda;" horiz-adv-x="1466" d="M205 483v1000h137v-991q0 -111 27.5 -186t78 -122t123 -67.5t164.5 -20.5q94 0 167 19.5t122 65.5t74.5 121t25.5 185v996h138v-1002q0 -256 -138.5 -381t-400.5 -125q-276 0 -397 131.5t-121 376.5zM633 1597l209 271h182l-281 -297z" />
<glyph unicode="&#xdb;" horiz-adv-x="1466" d="M205 483v1000h137v-991q0 -111 27.5 -186t78 -122t123 -67.5t164.5 -20.5q94 0 167 19.5t122 65.5t74.5 121t25.5 185v996h138v-1002q0 -256 -138.5 -381t-400.5 -125q-276 0 -397 131.5t-121 376.5zM453 1591l245 250h111l246 -250l-121 -16l-184 166l-181 -170z" />
<glyph unicode="&#xdc;" horiz-adv-x="1466" d="M205 483v1000h137v-991q0 -111 27.5 -186t78 -122t123 -67.5t164.5 -20.5q94 0 167 19.5t122 65.5t74.5 121t25.5 185v996h138v-1002q0 -256 -138.5 -381t-400.5 -125q-276 0 -397 131.5t-121 376.5zM434 1706q0 47 30 75.5t79 28.5q47 0 76.5 -28.5t29.5 -75.5 q0 -49 -29.5 -76.5t-76.5 -27.5q-49 0 -79 27.5t-30 76.5zM842 1706q0 47 29.5 75.5t78.5 28.5q47 0 77 -28.5t30 -75.5q0 -49 -30 -76.5t-77 -27.5q-49 0 -78.5 27.5t-29.5 76.5z" />
<glyph unicode="&#xdd;" horiz-adv-x="1126" d="M0 1483h152l423 -764l412 764h139l-485 -895v-588h-137v582zM406 1597l208 271h183l-281 -297z" />
<glyph unicode="&#xde;" horiz-adv-x="1257" d="M215 0v1483h135v-260h318q141 0 236 -35t152.5 -93.5t81 -136t23.5 -161.5q0 -127 -39 -216t-111.5 -145.5t-177 -83t-233.5 -26.5h-250v-326h-135zM350 446h246q88 0 165 13.5t134 52.5t90 105.5t33 175.5q0 98 -28.5 158.5t-89 94t-152 46t-213.5 12.5h-185v-658z" />
<glyph unicode="&#xdf;" horiz-adv-x="1345" d="M184 0v1124q0 121 35 206t97.5 138.5t148.5 78t188 24.5q223 0 332 -94.5t109 -268.5q0 -70 -18.5 -124t-51.5 -95t-76 -71.5t-94 -51.5v-6q86 -14 156.5 -44t123 -81t81 -127t28.5 -180q0 -100 -28.5 -183t-83 -142.5t-131 -92.5t-175.5 -33q-74 0 -137 17.5 t-112.5 55.5t-83 98.5t-46.5 144.5l132 22q10 -47 26.5 -87t45 -69.5t71.5 -46t108 -16.5q127 0 199 79t72 239q0 104 -33 174.5t-90 112.5t-133 59.5t-162 17.5h-86v115h31q92 0 154.5 25.5t101.5 66.5t55 92t16 101q0 150 -80.5 213t-222.5 63q-78 0 -139 -16.5 t-103 -56.5t-64.5 -107.5t-22.5 -171.5v-1102h-138z" />
<glyph unicode="&#xe0;" horiz-adv-x="1095" d="M123 258q0 111 46 180.5t118.5 107.5t163 51t180.5 13q45 0 75.5 -1t61.5 -3v105q0 59 -10 105t-36 77t-70 47t-111 16q-125 0 -177.5 -48t-68.5 -140l-129 23q25 147 120 211.5t263 64.5q186 0 271 -82t85 -276v-541q0 -43 11.5 -62.5t52.5 -19.5q23 0 63 12l8 -88 q-57 -29 -125 -28q-72 0 -101.5 38.5t-33.5 92.5q-59 -61 -148 -99.5t-200 -38.5q-100 0 -160.5 30t-93.5 74t-44 93t-11 86zM266 279q0 -39 8.5 -74t31 -61.5t60 -42t99.5 -15.5q92 0 174 43t131 100v267q-25 4 -54.5 5t-74.5 1q-53 0 -118.5 -5t-123 -26.5t-95.5 -67 t-38 -124.5zM322 1534h180l217 -336l-107 -27z" />
<glyph unicode="&#xe1;" horiz-adv-x="1095" d="M123 258q0 111 46 180.5t118.5 107.5t163 51t180.5 13q45 0 75.5 -1t61.5 -3v105q0 59 -10 105t-36 77t-70 47t-111 16q-125 0 -177.5 -48t-68.5 -140l-129 23q25 147 120 211.5t263 64.5q186 0 271 -82t85 -276v-541q0 -43 11.5 -62.5t52.5 -19.5q23 0 63 12l8 -88 q-57 -29 -125 -28q-72 0 -101.5 38.5t-33.5 92.5q-59 -61 -148 -99.5t-200 -38.5q-100 0 -160.5 30t-93.5 74t-44 93t-11 86zM266 279q0 -39 8.5 -74t31 -61.5t60 -42t99.5 -15.5q92 0 174 43t131 100v267q-25 4 -54.5 5t-74.5 1q-53 0 -118.5 -5t-123 -26.5t-95.5 -67 t-38 -124.5zM387 1198l217 336h180l-290 -363z" />
<glyph unicode="&#xe2;" horiz-adv-x="1095" d="M123 258q0 111 46 180.5t118.5 107.5t163 51t180.5 13q45 0 75.5 -1t61.5 -3v105q0 59 -10 105t-36 77t-70 47t-111 16q-125 0 -177.5 -48t-68.5 -140l-129 23q25 147 120 211.5t263 64.5q186 0 271 -82t85 -276v-541q0 -43 11.5 -62.5t52.5 -19.5q23 0 63 12l8 -88 q-57 -29 -125 -28q-72 0 -101.5 38.5t-33.5 92.5q-59 -61 -148 -99.5t-200 -38.5q-100 0 -160.5 30t-93.5 74t-44 93t-11 86zM248 1196l233 338h137l242 -338l-115 -12l-196 250l-189 -254zM266 279q0 -39 8.5 -74t31 -61.5t60 -42t99.5 -15.5q92 0 174 43t131 100v267 q-25 4 -54.5 5t-74.5 1q-53 0 -118.5 -5t-123 -26.5t-95.5 -67t-38 -124.5z" />
<glyph unicode="&#xe3;" horiz-adv-x="1095" d="M123 258q0 111 46 180.5t118.5 107.5t163 51t180.5 13q45 0 75.5 -1t61.5 -3v105q0 59 -10 105t-36 77t-70 47t-111 16q-125 0 -177.5 -48t-68.5 -140l-129 23q25 147 120 211.5t263 64.5q186 0 271 -82t85 -276v-541q0 -43 11.5 -62.5t52.5 -19.5q23 0 63 12l8 -88 q-57 -29 -125 -28q-72 0 -101.5 38.5t-33.5 92.5q-59 -61 -148 -99.5t-200 -38.5q-100 0 -160.5 30t-93.5 74t-44 93t-11 86zM227 1217q-8 63 4.5 107t37 71.5t56 41t66.5 13.5q47 0 89 -15.5t80 -33t73 -32.5t69 -15q41 0 62.5 19.5t21.5 92.5l97 -4q8 -63 -4.5 -106 t-37 -71t-57 -40t-69.5 -12q-47 0 -88 15.5t-80 32.5t-76 32.5t-74 15.5q-33 0 -56.5 -23.5t-18.5 -93.5zM266 279q0 -39 8.5 -74t31 -61.5t60 -42t99.5 -15.5q92 0 174 43t131 100v267q-25 4 -54.5 5t-74.5 1q-53 0 -118.5 -5t-123 -26.5t-95.5 -67t-38 -124.5z" />
<glyph unicode="&#xe4;" horiz-adv-x="1095" d="M123 258q0 111 46 180.5t118.5 107.5t163 51t180.5 13q45 0 75.5 -1t61.5 -3v105q0 59 -10 105t-36 77t-70 47t-111 16q-125 0 -177.5 -48t-68.5 -140l-129 23q25 147 120 211.5t263 64.5q186 0 271 -82t85 -276v-541q0 -43 11.5 -62.5t52.5 -19.5q23 0 63 12l8 -88 q-57 -29 -125 -28q-72 0 -101.5 38.5t-33.5 92.5q-59 -61 -148 -99.5t-200 -38.5q-100 0 -160.5 30t-93.5 74t-44 93t-11 86zM236 1368q0 47 29.5 76t78.5 29q47 0 77 -29t30 -76q0 -49 -30 -76.5t-77 -27.5q-49 0 -78.5 27.5t-29.5 76.5zM266 279q0 -39 8.5 -74t31 -61.5 t60 -42t99.5 -15.5q92 0 174 43t131 100v267q-25 4 -54.5 5t-74.5 1q-53 0 -118.5 -5t-123 -26.5t-95.5 -67t-38 -124.5zM643 1368q0 47 29.5 76t79.5 29q47 0 76.5 -29t29.5 -76q0 -49 -29.5 -76.5t-76.5 -27.5q-49 0 -79 27.5t-30 76.5z" />
<glyph unicode="&#xe5;" horiz-adv-x="1095" d="M123 258q0 111 46 180.5t118.5 107.5t163 51t180.5 13q45 0 75.5 -1t61.5 -3v105q0 59 -10 105t-36 77t-70 47t-111 16q-125 0 -177.5 -48t-68.5 -140l-129 23q25 147 120 211.5t263 64.5q186 0 271 -82t85 -276v-541q0 -43 11.5 -62.5t52.5 -19.5q23 0 63 12l8 -88 q-57 -29 -125 -28q-72 0 -101.5 38.5t-33.5 92.5q-59 -61 -148 -99.5t-200 -38.5q-100 0 -160.5 30t-93.5 74t-44 93t-11 86zM266 279q0 -39 8.5 -74t31 -61.5t60 -42t99.5 -15.5q92 0 174 43t131 100v267q-25 4 -54.5 5t-74.5 1q-53 0 -118.5 -5t-123 -26.5t-95.5 -67 t-38 -124.5zM338 1370q0 51 17.5 90t46 65.5t66.5 39t81 12.5q88 0 150.5 -47.5t62.5 -149.5q0 -96 -57.5 -149t-155.5 -53q-96 0 -153.5 50t-57.5 142zM442 1374q0 -49 27 -76.5t80 -27.5t78.5 30.5t25.5 79.5q0 102 -104 103q-47 0 -77 -28t-30 -81z" />
<glyph unicode="&#xe6;" horiz-adv-x="1775" d="M133 258q0 106 43 175t113.5 108t161 54t186.5 15q35 0 71.5 -1t69.5 -3v127q0 51 -11 92t-38 71t-72 45t-112 15q-119 0 -173.5 -46t-70.5 -138l-125 23q25 147 120 209.5t263 62.5q139 0 211 -46t104 -144q68 100 166.5 145t214.5 45q106 0 183.5 -34t126.5 -93 t71.5 -140t22.5 -175q0 -31 -3 -64t-7 -65h-734q2 -117 30 -194t73 -122t105.5 -63.5t127.5 -18.5q123 0 181.5 50.5t83.5 148.5l129 -25q-35 -156 -147 -226.5t-257 -70.5q-139 0 -228 44t-143 122q-92 -86 -203.5 -126t-224.5 -40q-100 0 -160.5 30t-93 74t-44 93 t-11.5 86zM276 276q0 -37 8.5 -71.5t30 -61t60.5 -42t100 -15.5q96 0 186.5 41t157.5 117q-20 57 -29.5 120.5t-11.5 133.5q-29 2 -67.5 3t-75.5 1q-66 0 -130.5 -8.5t-115.5 -33t-82 -68.5t-31 -116zM918 606h598q4 162 -60.5 252t-212.5 90q-59 0 -116.5 -19.5 t-102.5 -60.5t-73.5 -105.5t-32.5 -156.5z" />
<glyph unicode="&#xe7;" horiz-adv-x="1097" d="M113 516q0 276 130 413.5t365 137.5q78 0 145.5 -21.5t118 -65.5t82 -109.5t35.5 -153.5l-137 -19q-14 127 -74.5 188.5t-181.5 61.5q-61 0 -121.5 -19.5t-110 -66.5t-79 -127t-29.5 -200q0 -129 28.5 -213t76 -134.5t107.5 -70t124 -19.5q115 0 184.5 53.5t91.5 178.5 l129 -27q-12 -82 -47 -140.5t-84 -98t-110.5 -60t-128.5 -27.5l-9 -67q61 -12 108.5 -50t47.5 -126q0 -86 -59.5 -139.5t-147.5 -53.5q-59 0 -98 14.5t-59 28.5l30 88q16 -10 48 -22t67 -12q51 0 75.5 28.5t24.5 69.5q0 51 -33.5 75.5t-121.5 26.5l18 142q-111 8 -187.5 52 t-125.5 114.5t-70.5 165t-21.5 204.5z" />
<glyph unicode="&#xe8;" horiz-adv-x="1118" d="M113 522q0 143 38.5 246.5t104.5 169.5t155 97.5t187 31.5q106 0 183 -35t126 -94t71.5 -140t22.5 -175q-2 -31 -4 -63t-6 -64h-733q2 -117 29.5 -194t73 -122t105.5 -63.5t128 -18.5q123 0 181.5 50.5t82.5 148.5l129 -25q-35 -156 -146.5 -226.5t-256.5 -70.5 q-137 0 -227.5 45.5t-144.5 120t-76.5 174t-22.5 207.5zM260 606h598q4 162 -60.5 252t-211.5 90q-59 0 -116.5 -19.5t-102.5 -60.5t-74 -105.5t-33 -156.5zM356 1534h181l217 -336l-107 -27z" />
<glyph unicode="&#xe9;" horiz-adv-x="1118" d="M113 522q0 143 38.5 246.5t104.5 169.5t155 97.5t187 31.5q106 0 183 -35t126 -94t71.5 -140t22.5 -175q-2 -31 -4 -63t-6 -64h-733q2 -117 29.5 -194t73 -122t105.5 -63.5t128 -18.5q123 0 181.5 50.5t82.5 148.5l129 -25q-35 -156 -146.5 -226.5t-256.5 -70.5 q-137 0 -227.5 45.5t-144.5 120t-76.5 174t-22.5 207.5zM260 606h598q4 162 -60.5 252t-211.5 90q-59 0 -116.5 -19.5t-102.5 -60.5t-74 -105.5t-33 -156.5zM422 1198l217 336h180l-291 -363z" />
<glyph unicode="&#xea;" horiz-adv-x="1118" d="M113 522q0 143 38.5 246.5t104.5 169.5t155 97.5t187 31.5q106 0 183 -35t126 -94t71.5 -140t22.5 -175q-2 -31 -4 -63t-6 -64h-733q2 -117 29.5 -194t73 -122t105.5 -63.5t128 -18.5q123 0 181.5 50.5t82.5 148.5l129 -25q-35 -156 -146.5 -226.5t-256.5 -70.5 q-137 0 -227.5 45.5t-144.5 120t-76.5 174t-22.5 207.5zM260 606h598q4 162 -60.5 252t-211.5 90q-59 0 -116.5 -19.5t-102.5 -60.5t-74 -105.5t-33 -156.5zM283 1196l233 338h137l242 -338l-115 -12l-196 250l-189 -254z" />
<glyph unicode="&#xeb;" horiz-adv-x="1118" d="M113 522q0 143 38.5 246.5t104.5 169.5t155 97.5t187 31.5q106 0 183 -35t126 -94t71.5 -140t22.5 -175q-2 -31 -4 -63t-6 -64h-733q2 -117 29.5 -194t73 -122t105.5 -63.5t128 -18.5q123 0 181.5 50.5t82.5 148.5l129 -25q-35 -156 -146.5 -226.5t-256.5 -70.5 q-137 0 -227.5 45.5t-144.5 120t-76.5 174t-22.5 207.5zM260 606h598q4 162 -60.5 252t-211.5 90q-59 0 -116.5 -19.5t-102.5 -60.5t-74 -105.5t-33 -156.5zM270 1368q0 47 30 76t79 29q47 0 76.5 -29t29.5 -76q0 -49 -29.5 -76.5t-76.5 -27.5q-49 0 -79 27.5t-30 76.5z M678 1368q0 47 29.5 76t78.5 29q47 0 77 -29t30 -76q0 -49 -29.5 -76.5t-77.5 -27.5q-49 0 -78.5 27.5t-29.5 76.5z" />
<glyph unicode="&#xec;" horiz-adv-x="495" d="M-61 1534h180l217 -336l-107 -27zM184 0v1047h138v-1047h-138z" />
<glyph unicode="&#xed;" horiz-adv-x="495" d="M182 1198l217 336h181l-291 -363zM184 0v1047h138v-1047h-138z" />
<glyph unicode="&#xee;" horiz-adv-x="495" d="M-49 1196l233 338h138l241 -338l-114 -12l-197 250l-189 -254zM184 0v1047h138v-1047h-138z" />
<glyph unicode="&#xef;" horiz-adv-x="495" d="M-61 1368q0 47 29.5 76t78.5 29q47 0 77 -29t30 -76q0 -49 -30 -76.5t-77 -27.5q-49 0 -78.5 27.5t-29.5 76.5zM184 0v1047h138v-1047h-138zM346 1368q0 47 30 76t79 29q47 0 76.5 -29t29.5 -76q0 -49 -29.5 -76.5t-76.5 -27.5q-49 0 -79 27.5t-30 76.5z" />
<glyph unicode="&#xf0;" horiz-adv-x="1171" d="M109 489q0 117 29.5 215.5t88 170t144.5 111.5t198 40q86 0 168 -23.5t142 -70.5l4 2q-27 102 -72 189t-117 157l-225 -121l-57 96l186 101q-123 80 -299 100l45 105q225 -25 379 -138l209 113l57 -98l-174 -95q123 -129 178.5 -310t55.5 -396q0 -109 -17.5 -225.5 t-70 -214t-146.5 -160t-248 -62.5q-117 0 -202.5 39t-143 107.5t-85 163t-27.5 204.5zM250 504q0 -70 14.5 -143.5t51 -134t98 -99.5t157.5 -39q106 0 173 48t106 126t53.5 175.5t14.5 195.5q0 70 -7 137q-41 53 -129 94t-194 41q-168 0 -253 -108.5t-85 -292.5z" />
<glyph unicode="&#xf1;" horiz-adv-x="1191" d="M184 0v1047h121l8 -132q86 63 184.5 107.5t209.5 44.5q168 0 242.5 -91t74.5 -269v-707h-137v692q0 119 -48 186.5t-169 67.5q-51 0 -103.5 -15.5t-98.5 -38t-84 -49t-62 -46.5v-797h-138zM270 1217q-8 63 4.5 107t37 71.5t56 41t66.5 13.5q47 0 89 -15.5t80 -33 t73 -32.5t69 -15q41 0 62.5 19.5t21.5 92.5l97 -4q8 -63 -4.5 -106t-37 -71t-57 -40t-69.5 -12q-47 0 -88 15.5t-80 32.5t-76 32.5t-74 15.5q-33 0 -56.5 -23.5t-18.5 -93.5z" />
<glyph unicode="&#xf2;" horiz-adv-x="1175" d="M113 518q0 256 128 402.5t369 146.5q119 0 205 -38t141.5 -106.5t81 -164.5t25.5 -213q0 -129 -26.5 -234.5t-85 -179.5t-148.5 -115t-219 -41q-133 0 -223.5 42t-145.5 115t-78.5 172t-23.5 214zM254 526q0 -434 340 -434q76 0 136.5 24.5t102 77t64.5 136.5t23 202 q0 117 -21.5 197t-62.5 128t-99.5 69.5t-134.5 21.5q-156 0 -252 -100t-96 -322zM381 1534h180l217 -336l-106 -27z" />
<glyph unicode="&#xf3;" horiz-adv-x="1175" d="M113 518q0 256 128 402.5t369 146.5q119 0 205 -38t141.5 -106.5t81 -164.5t25.5 -213q0 -129 -26.5 -234.5t-85 -179.5t-148.5 -115t-219 -41q-133 0 -223.5 42t-145.5 115t-78.5 172t-23.5 214zM254 526q0 -434 340 -434q76 0 136.5 24.5t102 77t64.5 136.5t23 202 q0 117 -21.5 197t-62.5 128t-99.5 69.5t-134.5 21.5q-156 0 -252 -100t-96 -322zM446 1198l218 336h180l-291 -363z" />
<glyph unicode="&#xf4;" horiz-adv-x="1175" d="M113 518q0 256 128 402.5t369 146.5q119 0 205 -38t141.5 -106.5t81 -164.5t25.5 -213q0 -129 -26.5 -234.5t-85 -179.5t-148.5 -115t-219 -41q-133 0 -223.5 42t-145.5 115t-78.5 172t-23.5 214zM254 526q0 -434 340 -434q76 0 136.5 24.5t102 77t64.5 136.5t23 202 q0 117 -21.5 197t-62.5 128t-99.5 69.5t-134.5 21.5q-156 0 -252 -100t-96 -322zM307 1196l234 338h137l242 -338l-115 -12l-197 250l-188 -254z" />
<glyph unicode="&#xf5;" horiz-adv-x="1175" d="M113 518q0 256 128 402.5t369 146.5q119 0 205 -38t141.5 -106.5t81 -164.5t25.5 -213q0 -129 -26.5 -234.5t-85 -179.5t-148.5 -115t-219 -41q-133 0 -223.5 42t-145.5 115t-78.5 172t-23.5 214zM254 526q0 -434 340 -434q76 0 136.5 24.5t102 77t64.5 136.5t23 202 q0 117 -21.5 197t-62.5 128t-99.5 69.5t-134.5 21.5q-156 0 -252 -100t-96 -322zM287 1217q-8 63 4 107t36.5 71.5t56.5 41t67 13.5q47 0 89 -15.5t79.5 -33t72.5 -32.5t70 -15q41 0 62.5 19.5t21.5 92.5l96 -4q8 -63 -4 -106t-36.5 -71t-57.5 -40t-70 -12q-47 0 -88 15.5 t-80 32.5t-75.5 32.5t-73.5 15.5q-33 0 -56.5 -23.5t-19.5 -93.5z" />
<glyph unicode="&#xf6;" horiz-adv-x="1175" d="M113 518q0 256 128 402.5t369 146.5q119 0 205 -38t141.5 -106.5t81 -164.5t25.5 -213q0 -129 -26.5 -234.5t-85 -179.5t-148.5 -115t-219 -41q-133 0 -223.5 42t-145.5 115t-78.5 172t-23.5 214zM254 526q0 -434 340 -434q76 0 136.5 24.5t102 77t64.5 136.5t23 202 q0 117 -21.5 197t-62.5 128t-99.5 69.5t-134.5 21.5q-156 0 -252 -100t-96 -322zM295 1368q0 47 29.5 76t78.5 29q47 0 77 -29t30 -76q0 -49 -29.5 -76.5t-77.5 -27.5q-49 0 -78.5 27.5t-29.5 76.5zM702 1368q0 47 30 76t79 29q47 0 77 -29t30 -76q0 -49 -30 -76.5 t-77 -27.5q-49 0 -79 27.5t-30 76.5z" />
<glyph unicode="&#xf7;" horiz-adv-x="1167" d="M195 598v127h763v-127h-763zM451 350q0 117 118 117q119 0 119 -117t-119 -117t-118 117zM451 969q0 117 118 116q119 1 119 -116t-119 -117t-118 117z" />
<glyph unicode="&#xf8;" horiz-adv-x="1175" d="M113 518q0 256 128 402.5t369 146.5q82 0 148 -18l69 151h136l-93 -201q100 -66 146.5 -182.5t46.5 -271.5q0 -129 -26.5 -234.5t-85 -179.5t-148.5 -115t-219 -41q-47 0 -88 5.5t-78 15.5l-64 -143h-137l88 194q-106 70 -149 194t-43 277zM254 526q0 -248 108 -354 l345 764q-47 12 -105 12q-156 0 -252 -100.5t-96 -321.5zM469 109q59 -17 125 -17q76 0 136.5 24.5t102 77t64.5 136.5t23 202q0 129 -27 213t-76 132z" />
<glyph unicode="&#xf9;" horiz-adv-x="1191" d="M182 340v707h137v-693q0 -121 45.5 -187.5t165.5 -66.5q51 0 103.5 15.5t98.5 38t84 48t63 48.5v797h137v-1047h-121l-8 131q-86 -63 -184.5 -107t-208.5 -44q-168 0 -240 91t-72 269zM352 1534h180l218 -336l-107 -27z" />
<glyph unicode="&#xfa;" horiz-adv-x="1191" d="M182 340v707h137v-693q0 -121 45.5 -187.5t165.5 -66.5q51 0 103.5 15.5t98.5 38t84 48t63 48.5v797h137v-1047h-121l-8 131q-86 -63 -184.5 -107t-208.5 -44q-168 0 -240 91t-72 269zM446 1198l218 336h180l-291 -363z" />
<glyph unicode="&#xfb;" horiz-adv-x="1191" d="M182 340v707h137v-693q0 -121 45.5 -187.5t165.5 -66.5q51 0 103.5 15.5t98.5 38t84 48t63 48.5v797h137v-1047h-121l-8 131q-86 -63 -184.5 -107t-208.5 -44q-168 0 -240 91t-72 269zM297 1196l233 338h138l241 -338l-114 -12l-197 250l-188 -254z" />
<glyph unicode="&#xfc;" horiz-adv-x="1191" d="M182 340v707h137v-693q0 -121 45.5 -187.5t165.5 -66.5q51 0 103.5 15.5t98.5 38t84 48t63 48.5v797h137v-1047h-121l-8 131q-86 -63 -184.5 -107t-208.5 -44q-168 0 -240 91t-72 269zM274 1368q0 47 30 76t79 29q47 0 76.5 -29t29.5 -76q0 -49 -29.5 -76.5t-76.5 -27.5 q-49 0 -79 27.5t-30 76.5zM682 1368q0 47 29.5 76t79.5 29q47 0 76.5 -29t29.5 -76q0 -49 -29.5 -76.5t-76.5 -27.5q-49 0 -79 27.5t-30 76.5z" />
<glyph unicode="&#xfd;" horiz-adv-x="960" d="M-39 -420l21 107q25 -8 76 -19.5t96 -11.5q37 0 70.5 15.5t66.5 53t62.5 103.5t58.5 164l-385 1055h147l307 -885l320 885h139l-422 -1108q-41 -113 -79 -189t-79 -122t-92 -65.5t-118 -19.5q-57 0 -108.5 12.5t-80.5 24.5zM346 1198l217 336h180l-290 -363z" />
<glyph unicode="&#xfe;" horiz-adv-x="1181" d="M184 -434v1980h135v-622q72 59 160 101t211 42q82 0 151.5 -26.5t120 -88t79 -161t28.5 -242.5q0 -154 -36 -262.5t-96 -177t-141 -101.5t-169 -33q-92 0 -170 35t-135 76v-520h-138zM322 217q18 -14 48.5 -35.5t70.5 -41t86 -34t100 -14.5q84 0 141 34t93 95.5 t52.5 146.5t16.5 187q0 215 -67.5 307t-207.5 92q-49 0 -98 -14t-93 -36.5t-81 -50.5t-61 -54v-582z" />
<glyph unicode="&#xff;" horiz-adv-x="960" d="M-39 -420l21 107q25 -8 76 -19.5t96 -11.5q37 0 70.5 15.5t66.5 53t62.5 103.5t58.5 164l-385 1055h147l307 -885l320 885h139l-422 -1108q-41 -113 -79 -189t-79 -122t-92 -65.5t-118 -19.5q-57 0 -108.5 12.5t-80.5 24.5zM168 1368q0 47 29.5 76t78.5 29q47 0 77 -29 t30 -76q0 -49 -29.5 -76.5t-77.5 -27.5q-49 0 -78.5 27.5t-29.5 76.5zM575 1368q0 47 30 76t79 29q47 0 77 -29t30 -76q0 -49 -30 -76.5t-77 -27.5q-49 0 -79 27.5t-30 76.5z" />
<glyph unicode="&#x2dc;" horiz-adv-x="1024" d="M190 1217q-8 63 4.5 107t37 71.5t56 41t66.5 13.5q47 0 89 -15.5t80 -33t73 -32.5t70 -15q41 0 62.5 19.5t21.5 92.5l96 -4q8 -63 -4.5 -106t-37 -71t-57 -40t-69.5 -12q-47 0 -88 15.5t-80 32.5t-76 32.5t-74 15.5q-33 0 -56 -23.5t-19 -93.5z" />
<glyph unicode="&#x2000;" horiz-adv-x="934" />
<glyph unicode="&#x2001;" horiz-adv-x="1868" />
<glyph unicode="&#x2002;" horiz-adv-x="934" />
<glyph unicode="&#x2003;" horiz-adv-x="1868" />
<glyph unicode="&#x2004;" horiz-adv-x="622" />
<glyph unicode="&#x2005;" horiz-adv-x="467" />
<glyph unicode="&#x2006;" horiz-adv-x="311" />
<glyph unicode="&#x2007;" horiz-adv-x="311" />
<glyph unicode="&#x2008;" horiz-adv-x="233" />
<glyph unicode="&#x2009;" horiz-adv-x="373" />
<glyph unicode="&#x200a;" horiz-adv-x="103" />
<glyph unicode="&#x2010;" horiz-adv-x="649" d="M41 537v137h555v-137h-555z" />
<glyph unicode="&#x2011;" horiz-adv-x="649" d="M41 537v137h555v-137h-555z" />
<glyph unicode="&#x2012;" horiz-adv-x="649" d="M41 537v137h555v-137h-555z" />
<glyph unicode="&#x2013;" horiz-adv-x="1024" d="M0 522v111h1022v-111h-1022z" />
<glyph unicode="&#x2014;" horiz-adv-x="2048" d="M0 522v111h2046v-111h-2046z" />
<glyph unicode="&#x2018;" horiz-adv-x="362" d="M76 1141l162 446l108 -16l-108 -430h-162z" />
<glyph unicode="&#x2019;" horiz-adv-x="362" d="M68 1153l108 430h162l-162 -446z" />
<glyph unicode="&#x201c;" horiz-adv-x="655" d="M76 1141l162 446l108 -16l-108 -430h-162zM369 1141l161 446l109 -16l-109 -430h-161z" />
<glyph unicode="&#x201d;" horiz-adv-x="655" d="M57 1153l109 430h162l-162 -446zM350 1153l109 430h162l-162 -446z" />
<glyph unicode="&#x201e;" horiz-adv-x="632" d="M31 -258l108 430h162l-162 -446zM322 -258l108 430h162l-162 -446z" />
<glyph unicode="&#x2022;" horiz-adv-x="747" d="M104 573q0 133 70 199t199 66t199.5 -66t70.5 -199t-70.5 -198.5t-199.5 -65.5t-199 65.5t-70 198.5z" />
<glyph unicode="&#x2026;" horiz-adv-x="1191" d="M102 92q0 117 119 117t119 -117t-119 -117t-119 117zM477 92q0 117 119 117t119 -117t-119 -117t-119 117zM852 92q0 117 119 117t119 -117t-119 -117t-119 117z" />
<glyph unicode="&#x202f;" horiz-adv-x="373" />
<glyph unicode="&#x2039;" horiz-adv-x="569" d="M133 532l182 304h136l-170 -299l168 -326h-136z" />
<glyph unicode="&#x203a;" horiz-adv-x="569" d="M113 211l170 303l-168 322h135l180 -318l-182 -307h-135z" />
<glyph unicode="&#x205f;" horiz-adv-x="467" />
<glyph unicode="&#x20ac;" horiz-adv-x="1226" d="M35 526l18 107h117q-2 20 -2 39.5v42.5v49t2 47h-104l18 107h96q20 172 74.5 285.5t131.5 181t170 96t192 28.5q184 0 302.5 -102t135.5 -322l-131 -12q-10 84 -32 143.5t-57.5 98.5t-91 56.5t-133.5 17.5q-104 0 -179 -35t-125 -97.5t-77.5 -149.5t-40.5 -189h488 l-21 -107h-475q-2 -23 -2 -45.5v-44.5v-44.5t2 -43.5h465l-20 -107h-437q27 -215 121.5 -323.5t280.5 -108.5q143 0 223 65.5t113 219.5l119 -31q-16 -104 -61.5 -175t-109 -115t-140.5 -63.5t-154 -19.5q-94 0 -182.5 25t-160 87.5t-121.5 168.5t-69 270h-143z" />
<glyph unicode="&#x2122;" horiz-adv-x="1685" d="M41 1386v97h653v-97h-274v-673h-107v673h-272zM809 713v770h129l246 -619l252 619h116v-770h-98v573l-233 -573h-82l-230 575v-575h-100z" />
<glyph unicode="&#x25fc;" horiz-adv-x="1044" d="M0 0v1044h1044v-1044h-1044z" />
</font>
</defs>
</svg>
